<svg xmlns="http://www.w3.org/2000/svg" xmlns:xlink="http://www.w3.org/1999/xlink" version="1.1" class="marks" width="506" height="364" viewBox="0 0 506 364"><rect width="506" height="364" fill="white"/><g fill="none" stroke-miterlimit="10" transform="translate(59,27)"><g class="mark-group role-frame root" role="graphics-object" aria-roledescription="group mark container"><g transform="translate(0,0)"><path class="background" aria-hidden="true" d="M0.5,0.5h300v300h-300Z" stroke="#ddd"/><g><g class="mark-group role-axis" aria-hidden="true"><g transform="translate(0.5,300.5)"><path class="background" aria-hidden="true" d="M0,0h0v0h0Z" pointer-events="none"/><g><g class="mark-rule role-axis-grid" pointer-events="none"><line transform="translate(60,-300)" x2="0" y2="300" stroke="#ddd" stroke-width="1" opacity="1"/><line transform="translate(106,-300)" x2="0" y2="300" stroke="#ddd" stroke-width="1" opacity="1"/><line transform="translate(153,-300)" x2="0" y2="300" stroke="#ddd" stroke-width="1" opacity="1"/><line transform="translate(199,-300)" x2="0" y2="300" stroke="#ddd" stroke-width="1" opacity="1"/><line transform="translate(245,-300)" x2="0" y2="300" stroke="#ddd" stroke-width="1" opacity="1"/><line transform="translate(14,-300)" x2="0" y2="300" stroke="#ddd" stroke-width="1" opacity="1"/><line transform="translate(291,-300)" x2="0" y2="300" stroke="#ddd" stroke-width="1" opacity="1"/></g></g><path class="foreground" aria-hidden="true" d="" pointer-events="none" display="none"/></g></g><g class="mark-group role-axis" aria-hidden="true"><g transform="translate(0.5,0.5)"><path class="background" aria-hidden="true" d="M0,0h0v0h0Z" pointer-events="none"/><g><g class="mark-rule role-axis-grid" pointer-events="none"><line transform="translate(0,271)" x2="300" y2="0" stroke="#ddd" stroke-width="1" opacity="1"/><line transform="translate(0,220)" x2="300" y2="0" stroke="#ddd" stroke-width="1" opacity="1"/><line transform="translate(0,169)" x2="300" y2="0" stroke="#ddd" stroke-width="1" opacity="1"/><line transform="translate(0,119)" x2="300" y2="0" stroke="#ddd" stroke-width="1" opacity="1"/><line transform="translate(0,68)" x2="300" y2="0" stroke="#ddd" stroke-width="1" opacity="1"/><line transform="translate(0,17)" x2="300" y2="0" stroke="#ddd" stroke-width="1" opacity="1"/></g></g><path class="foreground" aria-hidden="true" d="" pointer-events="none" display="none"/></g></g><g class="mark-group role-axis" role="graphics-symbol" aria-roledescription="axis" aria-label="X-axis titled 'x, x2' for a linear scale with values from −0.5 to 0.8"><g transform="translate(0.5,300.5)"><path class="background" aria-hidden="true" d="M0,0h0v0h0Z" pointer-events="none"/><g><g class="mark-rule role-axis-tick" pointer-events="none"><line transform="translate(60,0)" x2="0" y2="5" stroke="#888" stroke-width="1" opacity="1"/><line transform="translate(106,0)" x2="0" y2="5" stroke="#888" stroke-width="1" opacity="1"/><line transform="translate(153,0)" x2="0" y2="5" stroke="#888" stroke-width="1" opacity="1"/><line transform="translate(199,0)" x2="0" y2="5" stroke="#888" stroke-width="1" opacity="1"/><line transform="translate(245,0)" x2="0" y2="5" stroke="#888" stroke-width="1" opacity="1"/><line transform="translate(14,0)" x2="0" y2="5" stroke="#888" stroke-width="1" opacity="1"/><line transform="translate(291,0)" x2="0" y2="5" stroke="#888" stroke-width="1" opacity="1"/></g><g class="mark-text role-axis-label" pointer-events="none"><text text-anchor="middle" transform="translate(60.284493397000446,15)" font-family="sans-serif" font-size="10px" fill="#000" opacity="1">−0.2</text><text text-anchor="middle" transform="translate(106.46006955620742,15)" font-family="sans-serif" font-size="10px" fill="#000" opacity="1">0.0</text><text text-anchor="middle" transform="translate(152.63564571541437,15)" font-family="sans-serif" font-size="10px" fill="#000" opacity="1">0.2</text><text text-anchor="middle" transform="translate(198.81122187462134,15)" font-family="sans-serif" font-size="10px" fill="#000" opacity="1">0.4</text><text text-anchor="middle" transform="translate(244.98679803382828,15)" font-family="sans-serif" font-size="10px" fill="#000" opacity="1">0.6</text><text text-anchor="middle" transform="translate(14.108917237793479,15)" font-family="sans-serif" font-size="10px" fill="#000" opacity="1">−0.4</text><text text-anchor="middle" transform="translate(291.1623741930353,15)" font-family="sans-serif" font-size="10px" fill="#000" opacity="1">0.8</text></g><g class="mark-rule role-axis-domain" pointer-events="none"><line transform="translate(0,0)" x2="300" y2="0" stroke="#888" stroke-width="1" opacity="1"/></g><g class="mark-text role-axis-title" pointer-events="none"><text text-anchor="middle" transform="translate(150,30)" font-family="sans-serif" font-size="11px" font-weight="bold" fill="#000" opacity="1">x, x2</text></g></g><path class="foreground" aria-hidden="true" d="" pointer-events="none" display="none"/></g></g><g class="mark-group role-axis" role="graphics-symbol" aria-roledescription="axis" aria-label="Y-axis titled 'y, y2' for a linear scale with values from −0.03 to 0.03"><g transform="translate(0.5,0.5)"><path class="background" aria-hidden="true" d="M0,0h0v0h0Z" pointer-events="none"/><g><g class="mark-rule role-axis-tick" pointer-events="none"><line transform="translate(0,271)" x2="-5" y2="0" stroke="#888" stroke-width="1" opacity="1"/><line transform="translate(0,220)" x2="-5" y2="0" stroke="#888" stroke-width="1" opacity="1"/><line transform="translate(0,169)" x2="-5" y2="0" stroke="#888" stroke-width="1" opacity="1"/><line transform="translate(0,119)" x2="-5" y2="0" stroke="#888" stroke-width="1" opacity="1"/><line transform="translate(0,68)" x2="-5" y2="0" stroke="#888" stroke-width="1" opacity="1"/><line transform="translate(0,17)" x2="-5" y2="0" stroke="#888" stroke-width="1" opacity="1"/></g><g class="mark-text role-axis-label" pointer-events="none"><text text-anchor="end" transform="translate(-7,273.91373008547123)" font-family="sans-serif" font-size="10px" fill="#000" opacity="1">−0.02</text><text text-anchor="end" transform="translate(-7,223.1205963103436)" font-family="sans-serif" font-size="10px" fill="#000" opacity="1">−0.01</text><text text-anchor="end" transform="translate(-7,172.32746253521591)" font-family="sans-serif" font-size="10px" fill="#000" opacity="1">0.00</text><text text-anchor="end" transform="translate(-7,121.53432876008821)" font-family="sans-serif" font-size="10px" fill="#000" opacity="1">0.01</text><text text-anchor="end" transform="translate(-7,70.74119498496056)" font-family="sans-serif" font-size="10px" fill="#000" opacity="1">0.02</text><text text-anchor="end" transform="translate(-7,19.948061209832886)" font-family="sans-serif" font-size="10px" fill="#000" opacity="1">0.03</text></g><g class="mark-rule role-axis-domain" pointer-events="none"><line transform="translate(0,300)" x2="0" y2="-300" stroke="#888" stroke-width="1" opacity="1"/></g><g class="mark-text role-axis-title" pointer-events="none"><text text-anchor="middle" transform="translate(-37.181640625,150) rotate(-90) translate(0,-2)" font-family="sans-serif" font-size="11px" font-weight="bold" fill="#000" opacity="1">y, y2</text></g></g><path class="foreground" aria-hidden="true" d="" pointer-events="none" display="none"/></g></g><g class="mark-rule role-mark layer_0_marks" clip-path="url(#clip1)" role="graphics-object" aria-roledescription="rule mark container" pointer-events="none"><line aria-label="x: 0; y: 0; x2: −0.125781536405; y2: −0.0142965664504; color: #ebad69" role="graphics-symbol" aria-roledescription="rule mark" transform="translate(106.46006955620742,169.32746253521591)" x2="-29.040174568450198" y2="72.61674122387203" stroke="#ebad69"/><line aria-label="x: 0; y: 0; x2: −0.0973736385906; y2: −0.0127652053201; color: #ebad69" role="graphics-symbol" aria-roledescription="rule mark" transform="translate(106.46006955620742,169.32746253521591)" x2="-22.481419323205813" y2="64.8384781488806" stroke="#ebad69"/><line aria-label="x: 0; y: 0; x2: 0.61432832188; y2: 0.000613239653154; color: #ebad69" role="graphics-symbol" aria-roledescription="rule mark" transform="translate(106.46006955620742,169.32746253521591)" x2="141.8348210686413" y2="-3.114836373883975" stroke="#ebad69"/><line aria-label="x: 0; y: 0; x2: −0.121913678575; y2: 0.0273635752387; color: #ebad69" role="graphics-symbol" aria-roledescription="rule mark" transform="translate(106.46006955620742,169.32746253521591)" x2="-28.147171749536042" y2="-138.98817376626627" stroke="#ebad69"/></g><g class="mark-rule role-mark layer_1_layer_0_marks" clip-path="url(#clip2)" role="graphics-object" aria-roledescription="rule mark container" pointer-events="none"><line aria-label="x: 0; y: 0; x2: 0.249015710762; y2: 0.014864423019; color: #889fbf" role="graphics-symbol" aria-roledescription="rule mark" transform="translate(106.46006955620742,169.32746253521591)" x2="57.49221958569184" y2="-75.50106268917767" stroke="#889fbf"/><line aria-label="x: 0; y: 0; x2: −0.337052053523; y2: −0.0175710395432; color: #889fbf" role="graphics-symbol" aria-roledescription="rule mark" transform="translate(106.46006955620742,169.32746253521591)" x2="-77.81786383524471" y2="89.24881620847017" stroke="#889fbf"/><line aria-label="x: 0; y: 0; x2: −0.266623773138; y2: 0.0183886265372; color: #889fbf" role="graphics-symbol" aria-roledescription="rule mark" transform="translate(106.46006955620742,169.32746253521591)" x2="-61.557531711922685" y2="-93.40159676446495" stroke="#889fbf"/><line aria-label="x: 0; y: 0; x2: 0.218494652264; y2: −0.0197577808006; color: #889fbf" role="graphics-symbol" aria-roledescription="rule mark" transform="translate(106.46006955620742,169.32746253521591)" x2="50.44558227994655" y2="100.35596033068722" stroke="#889fbf"/></g><g class="mark-symbol role-mark view_436_marks" clip-path="url(#clip3)" role="graphics-object" aria-roledescription="symbol mark container"><path aria-label="x: 0.249015710762; y: 0.014864423019; component: attack_name; angle: 91.7144931855" role="graphics-symbol" aria-roledescription="point" transform="translate(163.95228914189926,93.82639984603824) rotate(360)" d="M2.739,0A2.739,2.739,0,1,1,-2.739,0A2.739,2.739,0,1,1,2.739,0" fill="#4c78a8" stroke-width="2" opacity="0.7"/><path aria-label="x: −0.337052053523; y: −0.0175710395432; component: attack_name; angle: 91.7144931855" role="graphics-symbol" aria-roledescription="point" transform="translate(28.642205720962707,258.5762787436861) rotate(360)" d="M2.739,0A2.739,2.739,0,1,1,-2.739,0A2.739,2.739,0,1,1,2.739,0" fill="#4c78a8" stroke-width="2" opacity="0.7"/><path aria-label="x: −0.266623773138; y: 0.0183886265372; component: attack_name; angle: 91.7144931855" role="graphics-symbol" aria-roledescription="point" transform="translate(44.90253784428473,75.92586577075096) rotate(360)" d="M2.739,0A2.739,2.739,0,1,1,-2.739,0A2.739,2.739,0,1,1,2.739,0" fill="#4c78a8" stroke-width="2" opacity="0.7"/><path aria-label="x: 0.218494652264; y: −0.0197577808006; component: attack_name; angle: 91.7144931855" role="graphics-symbol" aria-roledescription="point" transform="translate(156.90565183615396,269.68342286590314) rotate(360)" d="M2.739,0A2.739,2.739,0,1,1,-2.739,0A2.739,2.739,0,1,1,2.739,0" fill="#4c78a8" stroke-width="2" opacity="0.7"/></g><g class="mark-symbol role-mark view_437_marks" clip-path="url(#clip4)" role="graphics-object" aria-roledescription="symbol mark container"><path aria-label="x: −0.125781536405; y: −0.0142965664504; component: model; angle: −96.4845172793" role="graphics-symbol" aria-roledescription="point" transform="translate(77.41989498775722,241.94420375908794) rotate(1.8726375169787237)" d="M2.739,0A2.739,2.739,0,1,1,-2.739,0A2.739,2.739,0,1,1,2.739,0" fill="#f58518" stroke-width="2" opacity="0.7"/><path aria-label="x: −0.0973736385906; y: −0.0127652053201; component: model; angle: −97.4686044075" role="graphics-symbol" aria-roledescription="point" transform="translate(83.9786502330016,234.1659406840965)" d="M2.739,0A2.739,2.739,0,1,1,-2.739,0A2.739,2.739,0,1,1,2.739,0" fill="#f58518" stroke-width="2" opacity="0.7"/><path aria-label="x: 0.61432832188; y: 0.000613239653154; component: model; angle: 89.942805775" role="graphics-symbol" aria-roledescription="point" transform="translate(248.2948906248487,166.21262616133194) rotate(356.6286234029948)" d="M2.739,0A2.739,2.739,0,1,1,-2.739,0A2.739,2.739,0,1,1,2.739,0" fill="#f58518" stroke-width="2" opacity="0.7"/><path aria-label="x: −0.121913678575; y: 0.0273635752387; component: model; angle: −77.3495918517" role="graphics-symbol" aria-roledescription="point" transform="translate(78.31289780667137,30.339288768949636) rotate(38.28483946096303)" d="M2.739,0A2.739,2.739,0,1,1,-2.739,0A2.739,2.739,0,1,1,2.739,0" fill="#f58518" stroke-width="2" opacity="0.7"/></g><g class="mark-text role-mark layer_2_marks" clip-path="url(#clip5)" role="graphics-object" aria-roledescription="text mark container" pointer-events="none"><text aria-label="x: 0.249015710762; y: 0.014864423019; name: File_Inclusion" role="graphics-symbol" aria-roledescription="text mark" text-anchor="start" transform="translate(170.95228914189926,96.82639984603824)" font-family="sans-serif" font-size="10px" fill="black">File_Inclusion</text><text aria-label="x: −0.337052053523; y: −0.0175710395432; name: PW_Injection" role="graphics-symbol" aria-roledescription="text mark" text-anchor="start" transform="translate(35.64220572096271,261.5762787436861)" font-family="sans-serif" font-size="10px" fill="black">PW_Injection</text><text aria-label="x: −0.266623773138; y: 0.0183886265372; name: SQLi" role="graphics-symbol" aria-roledescription="text mark" text-anchor="start" transform="translate(51.90253784428473,78.92586577075096)" font-family="sans-serif" font-size="10px" fill="black">SQLi</text><text aria-label="x: 0.218494652264; y: −0.0197577808006; name: XSS" role="graphics-symbol" aria-roledescription="text mark" text-anchor="start" transform="translate(163.90565183615396,272.68342286590314)" font-family="sans-serif" font-size="10px" fill="black">XSS</text><text aria-label="x: −0.125781536405; y: −0.0142965664504; name: DFL" role="graphics-symbol" aria-roledescription="text mark" text-anchor="start" transform="translate(84.41989498775722,244.94420375908794)" font-family="sans-serif" font-size="10px" fill="black">DFL</text><text aria-label="x: −0.0973736385906; y: −0.0127652053201; name: DNN" role="graphics-symbol" aria-roledescription="text mark" text-anchor="start" transform="translate(90.9786502330016,237.1659406840965)" font-family="sans-serif" font-size="10px" fill="black">DNN</text><text aria-label="x: 0.61432832188; y: 0.000613239653154; name: H-LSTM" role="graphics-symbol" aria-roledescription="text mark" text-anchor="start" transform="translate(255.2948906248487,169.21262616133194)" font-family="sans-serif" font-size="10px" fill="black">H-LSTM</text><text aria-label="x: −0.121913678575; y: 0.0273635752387; name: form-LSTM" role="graphics-symbol" aria-roledescription="text mark" text-anchor="start" transform="translate(85.31289780667137,33.339288768949636)" font-family="sans-serif" font-size="10px" fill="black">form-LSTM</text></g><g class="mark-rule role-mark layer_3_marks" clip-path="url(#clip6)" role="graphics-object" aria-roledescription="rule mark container" pointer-events="none"><line aria-label="y: 0" role="graphics-symbol" aria-roledescription="rule mark" transform="translate(300,169.32746253521591)" x2="-300" y2="0" stroke="black"/></g><g class="mark-rule role-mark layer_4_marks" clip-path="url(#clip7)" role="graphics-object" aria-roledescription="rule mark container" pointer-events="none"><line aria-label="x: 0" role="graphics-symbol" aria-roledescription="rule mark" transform="translate(106.46006955620742,0)" x2="0" y2="300" stroke="black"/></g><g class="mark-group role-legend" role="graphics-symbol" aria-roledescription="legend" aria-label="Symbol legend titled 'color, color, component' for fill color with 2 values: attack_name, model"><g transform="translate(318,0)"><path class="background" aria-hidden="true" d="M0,0h124v40h-124Z" pointer-events="none"/><g><g class="mark-group role-legend-entry"><g transform="translate(0,16)"><path class="background" aria-hidden="true" d="M0,0h0v0h0Z" pointer-events="none"/><g><g class="mark-group role-scope" role="graphics-object" aria-roledescription="group mark container"><g transform="translate(0,0)"><path class="background" aria-hidden="true" d="M0,0h72.4697265625v11h-72.4697265625Z" pointer-events="none" opacity="1"/><g><g class="mark-symbol role-legend-symbol" pointer-events="none"><path transform="translate(6,6)" d="M5,0A5,5,0,1,1,-5,0A5,5,0,1,1,5,0" fill="#4c78a8" stroke-width="1.5" opacity="0.7"/></g><g class="mark-text role-legend-label" pointer-events="none"><text text-anchor="start" transform="translate(16,9)" font-family="sans-serif" font-size="10px" fill="#000" opacity="1">attack_name</text></g></g><path class="foreground" aria-hidden="true" d="" pointer-events="none" display="none"/></g><g transform="translate(0,13)"><path class="background" aria-hidden="true" d="M0,0h72.4697265625v11h-72.4697265625Z" pointer-events="none" opacity="1"/><g><g class="mark-symbol role-legend-symbol" pointer-events="none"><path transform="translate(6,6)" d="M5,0A5,5,0,1,1,-5,0A5,5,0,1,1,5,0" fill="#f58518" stroke-width="1.5" opacity="0.7"/></g><g class="mark-text role-legend-label" pointer-events="none"><text text-anchor="start" transform="translate(16,9)" font-family="sans-serif" font-size="10px" fill="#000" opacity="1">model</text></g></g><path class="foreground" aria-hidden="true" d="" pointer-events="none" display="none"/></g></g></g><path class="foreground" aria-hidden="true" d="" pointer-events="none" display="none"/></g></g><g class="mark-text role-legend-title" pointer-events="none"><text text-anchor="start" transform="translate(0,9)" font-family="sans-serif" font-size="11px" font-weight="bold" fill="#000" opacity="1">color, color, component</text></g></g><path class="foreground" aria-hidden="true" d="" pointer-events="none" display="none"/></g></g><g class="mark-group role-title"><g transform="translate(150,-17)"><path class="background" aria-hidden="true" d="M0,0h0v0h0Z" pointer-events="none"/><g><g class="mark-text role-title-text" role="graphics-symbol" aria-roledescription="title" aria-label="Title text 'accuracy'" pointer-events="none"><text text-anchor="middle" transform="translate(0,10)" font-family="sans-serif" font-size="13px" font-weight="bold" fill="#000" opacity="1">accuracy</text></g></g><path class="foreground" aria-hidden="true" d="" pointer-events="none" display="none"/></g></g></g><path class="foreground" aria-hidden="true" d="" display="none"/></g></g></g><defs><clipPath id="clip1"><rect x="0" y="0" width="300" height="300"/></clipPath><clipPath id="clip2"><rect x="0" y="0" width="300" height="300"/></clipPath><clipPath id="clip3"><rect x="0" y="0" width="300" height="300"/></clipPath><clipPath id="clip4"><rect x="0" y="0" width="300" height="300"/></clipPath><clipPath id="clip5"><rect x="0" y="0" width="300" height="300"/></clipPath><clipPath id="clip6"><rect x="0" y="0" width="300" height="300"/></clipPath><clipPath id="clip7"><rect x="0" y="0" width="300" height="300"/></clipPath></defs></svg>