<svg xmlns="http://www.w3.org/2000/svg" xmlns:xlink="http://www.w3.org/1999/xlink" version="1.1" class="marks" width="474" height="364" viewBox="0 0 474 364"><rect width="474" height="364" fill="white"/><g fill="none" stroke-miterlimit="10" transform="translate(59,27)"><g class="mark-group role-frame root" role="graphics-object" aria-roledescription="group mark container"><g transform="translate(0,0)"><path class="background" aria-hidden="true" d="M0.5,0.5h300v300h-300Z" stroke="#ddd"/><g><g class="mark-group role-axis" aria-hidden="true"><g transform="translate(0.5,300.5)"><path class="background" aria-hidden="true" d="M0,0h0v0h0Z" pointer-events="none"/><g><g class="mark-rule role-axis-grid" pointer-events="none"><line transform="translate(51,-300)" x2="0" y2="300" stroke="#ddd" stroke-width="1" opacity="1"/><line transform="translate(97,-300)" x2="0" y2="300" stroke="#ddd" stroke-width="1" opacity="1"/><line transform="translate(143,-300)" x2="0" y2="300" stroke="#ddd" stroke-width="1" opacity="1"/><line transform="translate(189,-300)" x2="0" y2="300" stroke="#ddd" stroke-width="1" opacity="1"/><line transform="translate(235,-300)" x2="0" y2="300" stroke="#ddd" stroke-width="1" opacity="1"/><line transform="translate(5,-300)" x2="0" y2="300" stroke="#ddd" stroke-width="1" opacity="1"/><line transform="translate(282,-300)" x2="0" y2="300" stroke="#ddd" stroke-width="1" opacity="1"/></g></g><path class="foreground" aria-hidden="true" d="" pointer-events="none" display="none"/></g></g><g class="mark-group role-axis" aria-hidden="true"><g transform="translate(0.5,0.5)"><path class="background" aria-hidden="true" d="M0,0h0v0h0Z" pointer-events="none"/><g><g class="mark-rule role-axis-grid" pointer-events="none"><line transform="translate(0,261)" x2="300" y2="0" stroke="#ddd" stroke-width="1" opacity="1"/><line transform="translate(0,215)" x2="300" y2="0" stroke="#ddd" stroke-width="1" opacity="1"/><line transform="translate(0,169)" x2="300" y2="0" stroke="#ddd" stroke-width="1" opacity="1"/><line transform="translate(0,123)" x2="300" y2="0" stroke="#ddd" stroke-width="1" opacity="1"/><line transform="translate(0,76)" x2="300" y2="0" stroke="#ddd" stroke-width="1" opacity="1"/><line transform="translate(0,30)" x2="300" y2="0" stroke="#ddd" stroke-width="1" opacity="1"/></g></g><path class="foreground" aria-hidden="true" d="" pointer-events="none" display="none"/></g></g><g class="mark-group role-axis" role="graphics-symbol" aria-roledescription="axis" aria-label="X-axis titled 'x, x2' for a linear scale with values from −0.4 to 0.9"><g transform="translate(0.5,300.5)"><path class="background" aria-hidden="true" d="M0,0h0v0h0Z" pointer-events="none"/><g><g class="mark-rule role-axis-tick" pointer-events="none"><line transform="translate(51,0)" x2="0" y2="5" stroke="#888" stroke-width="1" opacity="1"/><line transform="translate(97,0)" x2="0" y2="5" stroke="#888" stroke-width="1" opacity="1"/><line transform="translate(143,0)" x2="0" y2="5" stroke="#888" stroke-width="1" opacity="1"/><line transform="translate(189,0)" x2="0" y2="5" stroke="#888" stroke-width="1" opacity="1"/><line transform="translate(235,0)" x2="0" y2="5" stroke="#888" stroke-width="1" opacity="1"/><line transform="translate(5,0)" x2="0" y2="5" stroke="#888" stroke-width="1" opacity="1"/><line transform="translate(282,0)" x2="0" y2="5" stroke="#888" stroke-width="1" opacity="1"/></g><g class="mark-text role-axis-label" pointer-events="none"><text text-anchor="middle" transform="translate(50.685787548645244,15)" font-family="sans-serif" font-size="10px" fill="#000" opacity="1">−0.2</text><text text-anchor="middle" transform="translate(96.86136370785222,15)" font-family="sans-serif" font-size="10px" fill="#000" opacity="1">0.0</text><text text-anchor="middle" transform="translate(143.03693986705923,15)" font-family="sans-serif" font-size="10px" fill="#000" opacity="1">0.2</text><text text-anchor="middle" transform="translate(189.21251602626617,15)" font-family="sans-serif" font-size="10px" fill="#000" opacity="1">0.4</text><text text-anchor="middle" transform="translate(235.38809218547317,15)" font-family="sans-serif" font-size="10px" fill="#000" opacity="1">0.6</text><text text-anchor="middle" transform="translate(4.51021138943826,15)" font-family="sans-serif" font-size="10px" fill="#000" opacity="1">−0.4</text><text text-anchor="middle" transform="translate(281.5636683446802,15)" font-family="sans-serif" font-size="10px" fill="#000" opacity="1">0.8</text></g><g class="mark-rule role-axis-domain" pointer-events="none"><line transform="translate(0,0)" x2="300" y2="0" stroke="#888" stroke-width="1" opacity="1"/></g><g class="mark-text role-axis-title" pointer-events="none"><text text-anchor="middle" transform="translate(150,30)" font-family="sans-serif" font-size="11px" font-weight="bold" fill="#000" opacity="1">x, x2</text></g></g><path class="foreground" aria-hidden="true" d="" pointer-events="none" display="none"/></g></g><g class="mark-group role-axis" role="graphics-symbol" aria-roledescription="axis" aria-label="Y-axis titled 'y, y2' for a linear scale with values from −0.03 to 0.04"><g transform="translate(0.5,0.5)"><path class="background" aria-hidden="true" d="M0,0h0v0h0Z" pointer-events="none"/><g><g class="mark-rule role-axis-tick" pointer-events="none"><line transform="translate(0,261)" x2="-5" y2="0" stroke="#888" stroke-width="1" opacity="1"/><line transform="translate(0,215)" x2="-5" y2="0" stroke="#888" stroke-width="1" opacity="1"/><line transform="translate(0,169)" x2="-5" y2="0" stroke="#888" stroke-width="1" opacity="1"/><line transform="translate(0,123)" x2="-5" y2="0" stroke="#888" stroke-width="1" opacity="1"/><line transform="translate(0,76)" x2="-5" y2="0" stroke="#888" stroke-width="1" opacity="1"/><line transform="translate(0,30)" x2="-5" y2="0" stroke="#888" stroke-width="1" opacity="1"/></g><g class="mark-text role-axis-label" pointer-events="none"><text text-anchor="end" transform="translate(-7,264.14334445997594)" font-family="sans-serif" font-size="10px" fill="#000" opacity="1">−0.02</text><text text-anchor="end" transform="translate(-7,217.96776830076894)" font-family="sans-serif" font-size="10px" fill="#000" opacity="1">−0.01</text><text text-anchor="end" transform="translate(-7,171.79219214156194)" font-family="sans-serif" font-size="10px" fill="#000" opacity="1">0.00</text><text text-anchor="end" transform="translate(-7,125.61661598235499)" font-family="sans-serif" font-size="10px" fill="#000" opacity="1">0.01</text><text text-anchor="end" transform="translate(-7,79.44103982314799)" font-family="sans-serif" font-size="10px" fill="#000" opacity="1">0.02</text><text text-anchor="end" transform="translate(-7,33.265463663941034)" font-family="sans-serif" font-size="10px" fill="#000" opacity="1">0.03</text></g><g class="mark-rule role-axis-domain" pointer-events="none"><line transform="translate(0,300)" x2="0" y2="-300" stroke="#888" stroke-width="1" opacity="1"/></g><g class="mark-text role-axis-title" pointer-events="none"><text text-anchor="middle" transform="translate(-37.181640625,150) rotate(-90) translate(0,-2)" font-family="sans-serif" font-size="11px" font-weight="bold" fill="#000" opacity="1">y, y2</text></g></g><path class="foreground" aria-hidden="true" d="" pointer-events="none" display="none"/></g></g><g class="mark-rule role-mark layer_0_marks" clip-path="url(#clip7)" role="graphics-object" aria-roledescription="rule mark container" pointer-events="none"><line aria-label="x: 0; y: 0; x2: 0.246886194865; y2: 0.0156851073147; color: #889fbf" role="graphics-symbol" aria-roledescription="rule mark" transform="translate(96.86136370785222,168.79219214156194)" x2="57.000561468144966" y2="-72.42688673743447" stroke="#889fbf"/><line aria-label="x: 0; y: 0; x2: −0.336646863541; y2: −0.0173360643492; color: #889fbf" role="graphics-symbol" aria-roledescription="rule mark" transform="translate(96.86136370785222,168.79219214156194)" x2="-77.72431443108478" y2="80.05027596557616" stroke="#889fbf"/><line aria-label="x: 0; y: 0; x2: −0.266150060563; y2: 0.0181212600107; color: #889fbf" role="graphics-symbol" aria-roledescription="rule mark" transform="translate(96.86136370785222,168.79219214156194)" x2="-61.44816195648934" y2="-83.67596217251705" stroke="#889fbf"/><line aria-label="x: 0; y: 0; x2: 0.219033136351; y2: −0.0206957631743; color: #889fbf" role="graphics-symbol" aria-roledescription="rule mark" transform="translate(96.86136370785222,168.79219214156194)" x2="50.569906344891294" y2="95.56387886289258" stroke="#889fbf"/></g><g class="mark-symbol role-mark view_21_marks" clip-path="url(#clip8)" role="graphics-object" aria-roledescription="symbol mark container"><path aria-label="x: 0.246886194865; y: 0.0156851073147; component: attack_name; angle: 91.7681796484" role="graphics-symbol" aria-roledescription="point" transform="translate(153.8619251759972,96.36530540412747) rotate(180)" d="M2.739,0A2.739,2.739,0,1,1,-2.739,0A2.739,2.739,0,1,1,2.739,0" fill="#4c78a8" stroke-width="2" opacity="0.7"/><path aria-label="x: −0.336646863541; y: −0.0173360643492; component: attack_name; angle: 91.7681796484" role="graphics-symbol" aria-roledescription="point" transform="translate(19.137049276767442,248.8424681071381) rotate(180)" d="M2.739,0A2.739,2.739,0,1,1,-2.739,0A2.739,2.739,0,1,1,2.739,0" fill="#4c78a8" stroke-width="2" opacity="0.7"/><path aria-label="x: −0.266150060563; y: 0.0181212600107; component: attack_name; angle: 91.7681796484" role="graphics-symbol" aria-roledescription="point" transform="translate(35.41320175136288,85.1162299690449) rotate(180)" d="M2.739,0A2.739,2.739,0,1,1,-2.739,0A2.739,2.739,0,1,1,2.739,0" fill="#4c78a8" stroke-width="2" opacity="0.7"/><path aria-label="x: 0.219033136351; y: −0.0206957631743; component: attack_name; angle: 91.7681796484" role="graphics-symbol" aria-roledescription="point" transform="translate(147.4312700527435,264.3560710044545) rotate(180)" d="M2.739,0A2.739,2.739,0,1,1,-2.739,0A2.739,2.739,0,1,1,2.739,0" fill="#4c78a8" stroke-width="2" opacity="0.7"/></g><g class="mark-symbol role-mark view_22_marks" clip-path="url(#clip9)" role="graphics-object" aria-roledescription="symbol mark container"><path aria-label="x: −0.0984501741469; y: −0.0141383530936; component: model" role="graphics-symbol" aria-roledescription="circle" transform="translate(74.13139613680639,234.0768521452825)" d="M3.536,0A3.536,3.536,0,1,1,-3.536,0A3.536,3.536,0,1,1,3.536,0" fill="#f58518" stroke-width="2" opacity="0.7"/><path aria-label="x: −0.124663770556; y: −0.0135597535205; component: model" role="graphics-symbol" aria-roledescription="circle" transform="translate(68.07925654990453,231.40513528028126)" d="M3.536,0A3.536,3.536,0,1,1,-3.536,0A3.536,3.536,0,1,1,3.536,0" fill="#f58518" stroke-width="2" opacity="0.7"/><path aria-label="x: 0.613240484438; y: 0.000629084373966; component: model" role="graphics-symbol" aria-roledescription="circle" transform="translate(238.44502717323653,165.88735879949766)" d="M3.536,0A3.536,3.536,0,1,1,-3.536,0A3.536,3.536,0,1,1,3.536,0" fill="#f58518" stroke-width="2" opacity="0.7"/><path aria-label="x: −0.12080688573; y: 0.0279387846234; component: model" role="graphics-symbol" aria-roledescription="circle" transform="translate(68.96972594484696,39.7832444240938)" d="M3.536,0A3.536,3.536,0,1,1,-3.536,0A3.536,3.536,0,1,1,3.536,0" fill="#f58518" stroke-width="2" opacity="0.7"/></g><g class="mark-text role-mark layer_2_marks" clip-path="url(#clip10)" role="graphics-object" aria-roledescription="text mark container" pointer-events="none"><text aria-label="x: 0.246886194865; y: 0.0156851073147; name: File_Inclusion" role="graphics-symbol" aria-roledescription="text mark" text-anchor="start" transform="translate(160.8619251759972,100.36530540412747)" font-family="sans-serif" font-size="12px" fill="black">File_Inclusion</text><text aria-label="x: −0.336646863541; y: −0.0173360643492; name: PW_Attack" role="graphics-symbol" aria-roledescription="text mark" text-anchor="start" transform="translate(26.137049276767442,252.8424681071381)" font-family="sans-serif" font-size="12px" fill="black">PW_Attack</text><text aria-label="x: −0.266150060563; y: 0.0181212600107; name: SQLi" role="graphics-symbol" aria-roledescription="text mark" text-anchor="start" transform="translate(42.41320175136288,89.1162299690449)" font-family="sans-serif" font-size="12px" fill="black">SQLi</text><text aria-label="x: 0.219033136351; y: −0.0206957631743; name: XSS" role="graphics-symbol" aria-roledescription="text mark" text-anchor="start" transform="translate(154.4312700527435,268.3560710044545)" font-family="sans-serif" font-size="12px" fill="black">XSS</text><text aria-label="x: −0.0984501741469; y: −0.0141383530936; name: DNN" role="graphics-symbol" aria-roledescription="text mark" text-anchor="start" transform="translate(81.13139613680639,238.0768521452825)" font-family="sans-serif" font-size="12px" fill="black">DNN</text><text aria-label="x: −0.124663770556; y: −0.0135597535205; name: DPL" role="graphics-symbol" aria-roledescription="text mark" text-anchor="start" transform="translate(75.07925654990453,235.40513528028126)" font-family="sans-serif" font-size="12px" fill="black">DPL</text><text aria-label="x: 0.613240484438; y: 0.000629084373966; name: H-LSTM" role="graphics-symbol" aria-roledescription="text mark" text-anchor="start" transform="translate(245.44502717323653,169.88735879949766)" font-family="sans-serif" font-size="12px" fill="black">H-LSTM</text><text aria-label="x: −0.12080688573; y: 0.0279387846234; name: P-LSTM" role="graphics-symbol" aria-roledescription="text mark" text-anchor="start" transform="translate(75.96972594484696,43.7832444240938)" font-family="sans-serif" font-size="12px" fill="black">P-LSTM</text></g><g class="mark-rule role-mark layer_3_marks" clip-path="url(#clip11)" role="graphics-object" aria-roledescription="rule mark container" pointer-events="none"><line aria-label="y: 0" role="graphics-symbol" aria-roledescription="rule mark" transform="translate(300,168.79219214156194)" x2="-300" y2="0" stroke="gray"/></g><g class="mark-rule role-mark layer_4_marks" clip-path="url(#clip12)" role="graphics-object" aria-roledescription="rule mark container" pointer-events="none"><line aria-label="x: 0" role="graphics-symbol" aria-roledescription="rule mark" transform="translate(96.86136370785222,0)" x2="0" y2="300" stroke="gray"/></g><g class="mark-group role-legend" role="graphics-symbol" aria-roledescription="legend" aria-label="Symbol legend titled 'color, component' for fill color with 2 values: attack_name, model"><g transform="translate(318,0)"><path class="background" aria-hidden="true" d="M0,0h92v40h-92Z" pointer-events="none"/><g><g class="mark-group role-legend-entry"><g transform="translate(0,16)"><path class="background" aria-hidden="true" d="M0,0h0v0h0Z" pointer-events="none"/><g><g class="mark-group role-scope" role="graphics-object" aria-roledescription="group mark container"><g transform="translate(0,0)"><path class="background" aria-hidden="true" d="M0,0h72.4697265625v11h-72.4697265625Z" pointer-events="none" opacity="1"/><g><g class="mark-symbol role-legend-symbol" pointer-events="none"><path transform="translate(6,6)" d="M5,0A5,5,0,1,1,-5,0A5,5,0,1,1,5,0" fill="#4c78a8" stroke-width="1.5" opacity="0.7"/></g><g class="mark-text role-legend-label" pointer-events="none"><text text-anchor="start" transform="translate(16,9)" font-family="sans-serif" font-size="10px" fill="#000" opacity="1">attack_name</text></g></g><path class="foreground" aria-hidden="true" d="" pointer-events="none" display="none"/></g><g transform="translate(0,13)"><path class="background" aria-hidden="true" d="M0,0h72.4697265625v11h-72.4697265625Z" pointer-events="none" opacity="1"/><g><g class="mark-symbol role-legend-symbol" pointer-events="none"><path transform="translate(6,6)" d="M5,0A5,5,0,1,1,-5,0A5,5,0,1,1,5,0" fill="#f58518" stroke-width="1.5" opacity="0.7"/></g><g class="mark-text role-legend-label" pointer-events="none"><text text-anchor="start" transform="translate(16,9)" font-family="sans-serif" font-size="10px" fill="#000" opacity="1">model</text></g></g><path class="foreground" aria-hidden="true" d="" pointer-events="none" display="none"/></g></g></g><path class="foreground" aria-hidden="true" d="" pointer-events="none" display="none"/></g></g><g class="mark-text role-legend-title" pointer-events="none"><text text-anchor="start" transform="translate(0,9)" font-family="sans-serif" font-size="11px" font-weight="bold" fill="#000" opacity="1">color, component</text></g></g><path class="foreground" aria-hidden="true" d="" pointer-events="none" display="none"/></g></g><g class="mark-group role-title"><g transform="translate(150,-17)"><path class="background" aria-hidden="true" d="M0,0h0v0h0Z" pointer-events="none"/><g><g class="mark-text role-title-text" role="graphics-symbol" aria-roledescription="title" aria-label="Title text 'accuracy'" pointer-events="none"><text text-anchor="middle" transform="translate(0,10)" font-family="sans-serif" font-size="13px" font-weight="bold" fill="#000" opacity="1">accuracy</text></g></g><path class="foreground" aria-hidden="true" d="" pointer-events="none" display="none"/></g></g></g><path class="foreground" aria-hidden="true" d="" display="none"/></g></g></g><defs><clipPath id="clip7"><rect x="0" y="0" width="300" height="300"/></clipPath><clipPath id="clip8"><rect x="0" y="0" width="300" height="300"/></clipPath><clipPath id="clip9"><rect x="0" y="0" width="300" height="300"/></clipPath><clipPath id="clip10"><rect x="0" y="0" width="300" height="300"/></clipPath><clipPath id="clip11"><rect x="0" y="0" width="300" height="300"/></clipPath><clipPath id="clip12"><rect x="0" y="0" width="300" height="300"/></clipPath></defs></svg>