<svg xmlns="http://www.w3.org/2000/svg" xmlns:xlink="http://www.w3.org/1999/xlink" version="1.1" class="marks" width="463" height="364" viewBox="0 0 463 364"><rect width="463" height="364" fill="white"/><g fill="none" stroke-miterlimit="10" transform="translate(48,27)"><g class="mark-group role-frame root" role="graphics-object" aria-roledescription="group mark container"><g transform="translate(0,0)"><path class="background" aria-hidden="true" d="M0.5,0.5h300v300h-300Z" stroke="#ddd"/><g><g class="mark-group role-axis" aria-hidden="true"><g transform="translate(0.5,300.5)"><path class="background" aria-hidden="true" d="M0,0h0v0h0Z" pointer-events="none"/><g><g class="mark-rule role-axis-grid" pointer-events="none"><line transform="translate(13,-300)" x2="0" y2="300" stroke="#ddd" stroke-width="1" opacity="1"/><line transform="translate(38,-300)" x2="0" y2="300" stroke="#ddd" stroke-width="1" opacity="1"/><line transform="translate(63,-300)" x2="0" y2="300" stroke="#ddd" stroke-width="1" opacity="1"/><line transform="translate(88,-300)" x2="0" y2="300" stroke="#ddd" stroke-width="1" opacity="1"/><line transform="translate(113,-300)" x2="0" y2="300" stroke="#ddd" stroke-width="1" opacity="1"/><line transform="translate(138,-300)" x2="0" y2="300" stroke="#ddd" stroke-width="1" opacity="1"/><line transform="translate(163,-300)" x2="0" y2="300" stroke="#ddd" stroke-width="1" opacity="1"/><line transform="translate(188,-300)" x2="0" y2="300" stroke="#ddd" stroke-width="1" opacity="1"/><line transform="translate(213,-300)" x2="0" y2="300" stroke="#ddd" stroke-width="1" opacity="1"/><line transform="translate(238,-300)" x2="0" y2="300" stroke="#ddd" stroke-width="1" opacity="1"/><line transform="translate(263,-300)" x2="0" y2="300" stroke="#ddd" stroke-width="1" opacity="1"/><line transform="translate(288,-300)" x2="0" y2="300" stroke="#ddd" stroke-width="1" opacity="1"/></g></g><path class="foreground" aria-hidden="true" d="" pointer-events="none" display="none"/></g></g><g class="mark-group role-axis" aria-hidden="true"><g transform="translate(0.5,0.5)"><path class="background" aria-hidden="true" d="M0,0h0v0h0Z" pointer-events="none"/><g><g class="mark-rule role-axis-grid" pointer-events="none"><line transform="translate(0,273)" x2="300" y2="0" stroke="#ddd" stroke-width="1" opacity="1"/><line transform="translate(0,239)" x2="300" y2="0" stroke="#ddd" stroke-width="1" opacity="1"/><line transform="translate(0,206)" x2="300" y2="0" stroke="#ddd" stroke-width="1" opacity="1"/><line transform="translate(0,173)" x2="300" y2="0" stroke="#ddd" stroke-width="1" opacity="1"/><line transform="translate(0,139)" x2="300" y2="0" stroke="#ddd" stroke-width="1" opacity="1"/><line transform="translate(0,106)" x2="300" y2="0" stroke="#ddd" stroke-width="1" opacity="1"/><line transform="translate(0,73)" x2="300" y2="0" stroke="#ddd" stroke-width="1" opacity="1"/><line transform="translate(0,39)" x2="300" y2="0" stroke="#ddd" stroke-width="1" opacity="1"/><line transform="translate(0,6)" x2="300" y2="0" stroke="#ddd" stroke-width="1" opacity="1"/></g></g><path class="foreground" aria-hidden="true" d="" pointer-events="none" display="none"/></g></g><g class="mark-group role-axis" role="graphics-symbol" aria-roledescription="axis" aria-label="X-axis titled 'x, x2' for a linear scale with values from −1.1 to 1.3"><g transform="translate(0.5,300.5)"><path class="background" aria-hidden="true" d="M0,0h0v0h0Z" pointer-events="none"/><g><g class="mark-rule role-axis-tick" pointer-events="none"><line transform="translate(13,0)" x2="0" y2="5" stroke="#888" stroke-width="1" opacity="1"/><line transform="translate(38,0)" x2="0" y2="5" stroke="#888" stroke-width="1" opacity="1"/><line transform="translate(63,0)" x2="0" y2="5" stroke="#888" stroke-width="1" opacity="1"/><line transform="translate(88,0)" x2="0" y2="5" stroke="#888" stroke-width="1" opacity="1"/><line transform="translate(113,0)" x2="0" y2="5" stroke="#888" stroke-width="1" opacity="1"/><line transform="translate(138,0)" x2="0" y2="5" stroke="#888" stroke-width="1" opacity="1"/><line transform="translate(163,0)" x2="0" y2="5" stroke="#888" stroke-width="1" opacity="1"/><line transform="translate(188,0)" x2="0" y2="5" stroke="#888" stroke-width="1" opacity="1"/><line transform="translate(213,0)" x2="0" y2="5" stroke="#888" stroke-width="1" opacity="1"/><line transform="translate(238,0)" x2="0" y2="5" stroke="#888" stroke-width="1" opacity="1"/><line transform="translate(263,0)" x2="0" y2="5" stroke="#888" stroke-width="1" opacity="1"/><line transform="translate(288,0)" x2="0" y2="5" stroke="#888" stroke-width="1" opacity="1"/></g><g class="mark-text role-axis-label" pointer-events="none"><text text-anchor="middle" transform="translate(12.999999999999984,15)" font-family="sans-serif" font-size="10px" fill="#000" opacity="1">−1.0</text><text text-anchor="middle" transform="translate(37.99999999999998,15)" font-family="sans-serif" font-size="10px" fill="#000" opacity="1">−0.8</text><text text-anchor="middle" transform="translate(62.999999999999986,15)" font-family="sans-serif" font-size="10px" fill="#000" opacity="1">−0.6</text><text text-anchor="middle" transform="translate(87.99999999999999,15)" font-family="sans-serif" font-size="10px" fill="#000" opacity="1">−0.4</text><text text-anchor="middle" transform="translate(113,15)" font-family="sans-serif" font-size="10px" fill="#000" opacity="1">−0.2</text><text text-anchor="middle" transform="translate(138,15)" font-family="sans-serif" font-size="10px" fill="#000" opacity="1">0.0</text><text text-anchor="middle" transform="translate(163,15)" font-family="sans-serif" font-size="10px" fill="#000" opacity="1">0.2</text><text text-anchor="middle" transform="translate(188,15)" font-family="sans-serif" font-size="10px" fill="#000" opacity="1">0.4</text><text text-anchor="middle" transform="translate(213,15)" font-family="sans-serif" font-size="10px" fill="#000" opacity="1">0.6</text><text text-anchor="middle" transform="translate(238,15)" font-family="sans-serif" font-size="10px" fill="#000" opacity="1">0.8</text><text text-anchor="middle" transform="translate(263,15)" font-family="sans-serif" font-size="10px" fill="#000" opacity="1">1.0</text><text text-anchor="middle" transform="translate(288,15)" font-family="sans-serif" font-size="10px" fill="#000" opacity="1">1.2</text></g><g class="mark-rule role-axis-domain" pointer-events="none"><line transform="translate(0,0)" x2="300" y2="0" stroke="#888" stroke-width="1" opacity="1"/></g><g class="mark-text role-axis-title" pointer-events="none"><text text-anchor="middle" transform="translate(150,30)" font-family="sans-serif" font-size="11px" font-weight="bold" fill="#000" opacity="1">x, x2</text></g></g><path class="foreground" aria-hidden="true" d="" pointer-events="none" display="none"/></g></g><g class="mark-group role-axis" role="graphics-symbol" aria-roledescription="axis" aria-label="Y-axis titled 'y, y2' for a linear scale with values from −0.4 to 1.4"><g transform="translate(0.5,0.5)"><path class="background" aria-hidden="true" d="M0,0h0v0h0Z" pointer-events="none"/><g><g class="mark-rule role-axis-tick" pointer-events="none"><line transform="translate(0,273)" x2="-5" y2="0" stroke="#888" stroke-width="1" opacity="1"/><line transform="translate(0,239)" x2="-5" y2="0" stroke="#888" stroke-width="1" opacity="1"/><line transform="translate(0,206)" x2="-5" y2="0" stroke="#888" stroke-width="1" opacity="1"/><line transform="translate(0,173)" x2="-5" y2="0" stroke="#888" stroke-width="1" opacity="1"/><line transform="translate(0,139)" x2="-5" y2="0" stroke="#888" stroke-width="1" opacity="1"/><line transform="translate(0,106)" x2="-5" y2="0" stroke="#888" stroke-width="1" opacity="1"/><line transform="translate(0,73)" x2="-5" y2="0" stroke="#888" stroke-width="1" opacity="1"/><line transform="translate(0,39)" x2="-5" y2="0" stroke="#888" stroke-width="1" opacity="1"/><line transform="translate(0,6)" x2="-5" y2="0" stroke="#888" stroke-width="1" opacity="1"/></g><g class="mark-text role-axis-label" pointer-events="none"><text text-anchor="end" transform="translate(-7,275.66666666666663)" font-family="sans-serif" font-size="10px" fill="#000" opacity="1">−0.2</text><text text-anchor="end" transform="translate(-7,242.33333333333331)" font-family="sans-serif" font-size="10px" fill="#000" opacity="1">0.0</text><text text-anchor="end" transform="translate(-7,209)" font-family="sans-serif" font-size="10px" fill="#000" opacity="1">0.2</text><text text-anchor="end" transform="translate(-7,175.66666666666669)" font-family="sans-serif" font-size="10px" fill="#000" opacity="1">0.4</text><text text-anchor="end" transform="translate(-7,142.33333333333334)" font-family="sans-serif" font-size="10px" fill="#000" opacity="1">0.6</text><text text-anchor="end" transform="translate(-7,108.99999999999999)" font-family="sans-serif" font-size="10px" fill="#000" opacity="1">0.8</text><text text-anchor="end" transform="translate(-7,75.66666666666667)" font-family="sans-serif" font-size="10px" fill="#000" opacity="1">1.0</text><text text-anchor="end" transform="translate(-7,42.33333333333332)" font-family="sans-serif" font-size="10px" fill="#000" opacity="1">1.2</text><text text-anchor="end" transform="translate(-7,9.000000000000005)" font-family="sans-serif" font-size="10px" fill="#000" opacity="1">1.4</text></g><g class="mark-rule role-axis-domain" pointer-events="none"><line transform="translate(0,300)" x2="0" y2="-300" stroke="#888" stroke-width="1" opacity="1"/></g><g class="mark-text role-axis-title" pointer-events="none"><text text-anchor="middle" transform="translate(-31.673828125,150) rotate(-90) translate(0,-2)" font-family="sans-serif" font-size="11px" font-weight="bold" fill="#000" opacity="1">y, y2</text></g></g><path class="foreground" aria-hidden="true" d="" pointer-events="none" display="none"/></g></g><g class="mark-rule role-mark layer_0_marks" clip-path="url(#clip25)" role="graphics-object" aria-roledescription="rule mark container" pointer-events="none"><line aria-label="x: 0; y: 0; x2: −0.458311145546; y2: −0.210536332751; color: #889fbf" role="graphics-symbol" aria-roledescription="rule mark" transform="translate(138,239.33333333333331)" x2="-57.288893193236916" y2="35.08938879188935" stroke="#889fbf"/><line aria-label="x: 0; y: 0; x2: 0.347687771854; y2: −0.0652882582005; color: #889fbf" role="graphics-symbol" aria-roledescription="rule mark" transform="translate(138,239.33333333333331)" x2="43.460971481707105" y2="10.881376366752107" stroke="#889fbf"/><line aria-label="x: 0; y: 0; x2: −0.536384029788; y2: 0.214594481824; color: #889fbf" role="graphics-symbol" aria-roledescription="rule mark" transform="translate(138,239.33333333333331)" x2="-67.04800372351029" y2="-35.76574697070106" stroke="#889fbf"/><line aria-label="x: 0; y: 0; x2: 0.747737456624; y2: 0.1029116032; color: #889fbf" role="graphics-symbol" aria-roledescription="rule mark" transform="translate(138,239.33333333333331)" x2="93.46718207795206" y2="-17.151933866617213" stroke="#889fbf"/></g><g class="mark-symbol role-mark view_27_marks" clip-path="url(#clip26)" role="graphics-object" aria-roledescription="symbol mark container"><path aria-label="x: −0.458311145546; y: −0.210536332751; component: attack_name; angle: 67.5205205485" role="graphics-symbol" aria-roledescription="point" transform="translate(80.71110680676308,274.42272212522266) rotate(180)" d="M2.739,0A2.739,2.739,0,1,1,-2.739,0A2.739,2.739,0,1,1,2.739,0" fill="#4c78a8" stroke-width="2" opacity="0.7"/><path aria-label="x: 0.347687771854; y: −0.0652882582005; component: attack_name; angle: 67.5205205485" role="graphics-symbol" aria-roledescription="point" transform="translate(181.4609714817071,250.21470970008542) rotate(180)" d="M2.739,0A2.739,2.739,0,1,1,-2.739,0A2.739,2.739,0,1,1,2.739,0" fill="#4c78a8" stroke-width="2" opacity="0.7"/><path aria-label="x: −0.536384029788; y: 0.214594481824; component: attack_name; angle: 67.5205205485" role="graphics-symbol" aria-roledescription="point" transform="translate(70.95199627648971,203.56758636263226) rotate(180)" d="M2.739,0A2.739,2.739,0,1,1,-2.739,0A2.739,2.739,0,1,1,2.739,0" fill="#4c78a8" stroke-width="2" opacity="0.7"/><path aria-label="x: 0.747737456624; y: 0.1029116032; component: attack_name; angle: 67.5205205485" role="graphics-symbol" aria-roledescription="point" transform="translate(231.46718207795206,222.1813994667161) rotate(180)" d="M2.739,0A2.739,2.739,0,1,1,-2.739,0A2.739,2.739,0,1,1,2.739,0" fill="#4c78a8" stroke-width="2" opacity="0.7"/></g><g class="mark-symbol role-mark view_28_marks" clip-path="url(#clip27)" role="graphics-object" aria-roledescription="symbol mark container"><path aria-label="x: 1.00996110685; y: 0.0345299192434; component: model" role="graphics-symbol" aria-roledescription="circle" transform="translate(264.2451383564496,233.5783467927651)" d="M3.536,0A3.536,3.536,0,1,1,-3.536,0A3.536,3.536,0,1,1,3.536,0" fill="#f58518" stroke-width="2" opacity="0.7"/><path aria-label="x: −0.0935205188627; y: 0.0178781499631; component: model" role="graphics-symbol" aria-roledescription="circle" transform="translate(126.30993514216571,236.35364167280864)" d="M3.536,0A3.536,3.536,0,1,1,-3.536,0A3.536,3.536,0,1,1,3.536,0" fill="#f58518" stroke-width="2" opacity="0.7"/><path aria-label="x: −1.03959268794; y: 1.33893710306; component: model" role="graphics-symbol" aria-roledescription="circle" transform="translate(8.050914007648208,16.1771494892998)" d="M3.536,0A3.536,3.536,0,1,1,-3.536,0A3.536,3.536,0,1,1,3.536,0" fill="#f58518" stroke-width="2" opacity="0.7"/><path aria-label="x: −0.374887697416; y: −0.0852239427132; component: model" role="graphics-symbol" aria-roledescription="circle" transform="translate(91.13903782296286,253.53732378553022)" d="M3.536,0A3.536,3.536,0,1,1,-3.536,0A3.536,3.536,0,1,1,3.536,0" fill="#f58518" stroke-width="2" opacity="0.7"/></g><g class="mark-text role-mark layer_2_marks" clip-path="url(#clip28)" role="graphics-object" aria-roledescription="text mark container" pointer-events="none"><text aria-label="x: −0.458311145546; y: −0.210536332751; name: File_Inclusion" role="graphics-symbol" aria-roledescription="text mark" text-anchor="start" transform="translate(87.71110680676308,278.42272212522266)" font-family="sans-serif" font-size="12px" fill="black">File_Inclusion</text><text aria-label="x: 0.347687771854; y: −0.0652882582005; name: PW_Attack" role="graphics-symbol" aria-roledescription="text mark" text-anchor="start" transform="translate(188.4609714817071,254.21470970008542)" font-family="sans-serif" font-size="12px" fill="black">PW_Attack</text><text aria-label="x: −0.536384029788; y: 0.214594481824; name: SQLi" role="graphics-symbol" aria-roledescription="text mark" text-anchor="start" transform="translate(77.95199627648971,207.56758636263226)" font-family="sans-serif" font-size="12px" fill="black">SQLi</text><text aria-label="x: 0.747737456624; y: 0.1029116032; name: XSS" role="graphics-symbol" aria-roledescription="text mark" text-anchor="start" transform="translate(238.46718207795206,226.1813994667161)" font-family="sans-serif" font-size="12px" fill="black">XSS</text><text aria-label="x: 1.00996110685; y: 0.0345299192434; name: DNN" role="graphics-symbol" aria-roledescription="text mark" text-anchor="start" transform="translate(271.2451383564496,237.5783467927651)" font-family="sans-serif" font-size="12px" fill="black">DNN</text><text aria-label="x: −0.0935205188627; y: 0.0178781499631; name: DPL" role="graphics-symbol" aria-roledescription="text mark" text-anchor="start" transform="translate(133.30993514216573,240.35364167280864)" font-family="sans-serif" font-size="12px" fill="black">DPL</text><text aria-label="x: −1.03959268794; y: 1.33893710306; name: H-LSTM" role="graphics-symbol" aria-roledescription="text mark" text-anchor="start" transform="translate(15.050914007648208,20.1771494892998)" font-family="sans-serif" font-size="12px" fill="black">H-LSTM</text><text aria-label="x: −0.374887697416; y: −0.0852239427132; name: P-LSTM" role="graphics-symbol" aria-roledescription="text mark" text-anchor="start" transform="translate(98.13903782296286,257.53732378553025)" font-family="sans-serif" font-size="12px" fill="black">P-LSTM</text></g><g class="mark-rule role-mark layer_3_marks" clip-path="url(#clip29)" role="graphics-object" aria-roledescription="rule mark container" pointer-events="none"><line aria-label="y: 0" role="graphics-symbol" aria-roledescription="rule mark" transform="translate(300,239.33333333333331)" x2="-300" y2="0" stroke="gray"/></g><g class="mark-rule role-mark layer_4_marks" clip-path="url(#clip30)" role="graphics-object" aria-roledescription="rule mark container" pointer-events="none"><line aria-label="x: 0" role="graphics-symbol" aria-roledescription="rule mark" transform="translate(138,0)" x2="0" y2="300" stroke="gray"/></g><g class="mark-group role-legend" role="graphics-symbol" aria-roledescription="legend" aria-label="Symbol legend titled 'color, component' for fill color with 2 values: attack_name, model"><g transform="translate(318,0)"><path class="background" aria-hidden="true" d="M0,0h92v40h-92Z" pointer-events="none"/><g><g class="mark-group role-legend-entry"><g transform="translate(0,16)"><path class="background" aria-hidden="true" d="M0,0h0v0h0Z" pointer-events="none"/><g><g class="mark-group role-scope" role="graphics-object" aria-roledescription="group mark container"><g transform="translate(0,0)"><path class="background" aria-hidden="true" d="M0,0h72.4697265625v11h-72.4697265625Z" pointer-events="none" opacity="1"/><g><g class="mark-symbol role-legend-symbol" pointer-events="none"><path transform="translate(6,6)" d="M5,0A5,5,0,1,1,-5,0A5,5,0,1,1,5,0" fill="#4c78a8" stroke-width="1.5" opacity="0.7"/></g><g class="mark-text role-legend-label" pointer-events="none"><text text-anchor="start" transform="translate(16,9)" font-family="sans-serif" font-size="10px" fill="#000" opacity="1">attack_name</text></g></g><path class="foreground" aria-hidden="true" d="" pointer-events="none" display="none"/></g><g transform="translate(0,13)"><path class="background" aria-hidden="true" d="M0,0h72.4697265625v11h-72.4697265625Z" pointer-events="none" opacity="1"/><g><g class="mark-symbol role-legend-symbol" pointer-events="none"><path transform="translate(6,6)" d="M5,0A5,5,0,1,1,-5,0A5,5,0,1,1,5,0" fill="#f58518" stroke-width="1.5" opacity="0.7"/></g><g class="mark-text role-legend-label" pointer-events="none"><text text-anchor="start" transform="translate(16,9)" font-family="sans-serif" font-size="10px" fill="#000" opacity="1">model</text></g></g><path class="foreground" aria-hidden="true" d="" pointer-events="none" display="none"/></g></g></g><path class="foreground" aria-hidden="true" d="" pointer-events="none" display="none"/></g></g><g class="mark-text role-legend-title" pointer-events="none"><text text-anchor="start" transform="translate(0,9)" font-family="sans-serif" font-size="11px" font-weight="bold" fill="#000" opacity="1">color, component</text></g></g><path class="foreground" aria-hidden="true" d="" pointer-events="none" display="none"/></g></g><g class="mark-group role-title"><g transform="translate(150,-17)"><path class="background" aria-hidden="true" d="M0,0h0v0h0Z" pointer-events="none"/><g><g class="mark-text role-title-text" role="graphics-symbol" aria-roledescription="title" aria-label="Title text 'f1_score'" pointer-events="none"><text text-anchor="middle" transform="translate(0,10)" font-family="sans-serif" font-size="13px" font-weight="bold" fill="#000" opacity="1">f1_score</text></g></g><path class="foreground" aria-hidden="true" d="" pointer-events="none" display="none"/></g></g></g><path class="foreground" aria-hidden="true" d="" display="none"/></g></g></g><defs><clipPath id="clip25"><rect x="0" y="0" width="300" height="300"/></clipPath><clipPath id="clip26"><rect x="0" y="0" width="300" height="300"/></clipPath><clipPath id="clip27"><rect x="0" y="0" width="300" height="300"/></clipPath><clipPath id="clip28"><rect x="0" y="0" width="300" height="300"/></clipPath><clipPath id="clip29"><rect x="0" y="0" width="300" height="300"/></clipPath><clipPath id="clip30"><rect x="0" y="0" width="300" height="300"/></clipPath></defs></svg>