<svg xmlns="http://www.w3.org/2000/svg" xmlns:xlink="http://www.w3.org/1999/xlink" version="1.1" class="marks" width="463" height="359" viewBox="0 0 463 359"><rect width="463" height="359" fill="white"/><g fill="none" stroke-miterlimit="10" transform="translate(48,22)"><g class="mark-group role-frame root" role="graphics-object" aria-roledescription="group mark container"><g transform="translate(0,0)"><path class="background" aria-hidden="true" d="M0.5,0.5h300v300h-300Z" stroke="#ddd"/><g><g class="mark-group role-axis" aria-hidden="true"><g transform="translate(0.5,300.5)"><path class="background" aria-hidden="true" d="M0,0h0v0h0Z" pointer-events="none"/><g><g class="mark-rule role-axis-grid" pointer-events="none"><line transform="translate(51,-300)" x2="0" y2="300" stroke="#ddd" stroke-width="1" opacity="1"/><line transform="translate(100,-300)" x2="0" y2="300" stroke="#ddd" stroke-width="1" opacity="1"/><line transform="translate(149,-300)" x2="0" y2="300" stroke="#ddd" stroke-width="1" opacity="1"/><line transform="translate(198,-300)" x2="0" y2="300" stroke="#ddd" stroke-width="1" opacity="1"/><line transform="translate(247,-300)" x2="0" y2="300" stroke="#ddd" stroke-width="1" opacity="1"/><line transform="translate(2,-300)" x2="0" y2="300" stroke="#ddd" stroke-width="1" opacity="1"/><line transform="translate(295,-300)" x2="0" y2="300" stroke="#ddd" stroke-width="1" opacity="1"/></g></g><path class="foreground" aria-hidden="true" d="" pointer-events="none" display="none"/></g></g><g class="mark-group role-axis" aria-hidden="true"><g transform="translate(0.5,0.5)"><path class="background" aria-hidden="true" d="M0,0h0v0h0Z" pointer-events="none"/><g><g class="mark-rule role-axis-grid" pointer-events="none"><line transform="translate(0,251)" x2="300" y2="0" stroke="#ddd" stroke-width="1" opacity="1"/><line transform="translate(0,215)" x2="300" y2="0" stroke="#ddd" stroke-width="1" opacity="1"/><line transform="translate(0,178)" x2="300" y2="0" stroke="#ddd" stroke-width="1" opacity="1"/><line transform="translate(0,142)" x2="300" y2="0" stroke="#ddd" stroke-width="1" opacity="1"/><line transform="translate(0,106)" x2="300" y2="0" stroke="#ddd" stroke-width="1" opacity="1"/><line transform="translate(0,70)" x2="300" y2="0" stroke="#ddd" stroke-width="1" opacity="1"/><line transform="translate(0,33)" x2="300" y2="0" stroke="#ddd" stroke-width="1" opacity="1"/><line transform="translate(0,287)" x2="300" y2="0" stroke="#ddd" stroke-width="1" opacity="1"/></g></g><path class="foreground" aria-hidden="true" d="" pointer-events="none" display="none"/></g></g><g class="mark-group role-axis" role="graphics-symbol" aria-roledescription="axis" aria-label="X-axis titled 'x, x2' for a linear scale with values from −1.5 to 1.5"><g transform="translate(0.5,300.5)"><path class="background" aria-hidden="true" d="M0,0h0v0h0Z" pointer-events="none"/><g><g class="mark-rule role-axis-tick" pointer-events="none"><line transform="translate(51,0)" x2="0" y2="5" stroke="#888" stroke-width="1" opacity="1"/><line transform="translate(100,0)" x2="0" y2="5" stroke="#888" stroke-width="1" opacity="1"/><line transform="translate(149,0)" x2="0" y2="5" stroke="#888" stroke-width="1" opacity="1"/><line transform="translate(198,0)" x2="0" y2="5" stroke="#888" stroke-width="1" opacity="1"/><line transform="translate(247,0)" x2="0" y2="5" stroke="#888" stroke-width="1" opacity="1"/><line transform="translate(2,0)" x2="0" y2="5" stroke="#888" stroke-width="1" opacity="1"/><line transform="translate(295,0)" x2="0" y2="5" stroke="#888" stroke-width="1" opacity="1"/></g><g class="mark-text role-axis-label" pointer-events="none"><text text-anchor="middle" transform="translate(51.285315183314026,15)" font-family="sans-serif" font-size="10px" fill="#000" opacity="1">−1.0</text><text text-anchor="middle" transform="translate(100.12486689016754,15)" font-family="sans-serif" font-size="10px" fill="#000" opacity="1">−0.5</text><text text-anchor="middle" transform="translate(148.96441859702108,15)" font-family="sans-serif" font-size="10px" fill="#000" opacity="1">0.0</text><text text-anchor="middle" transform="translate(197.80397030387456,15)" font-family="sans-serif" font-size="10px" fill="#000" opacity="1">0.5</text><text text-anchor="middle" transform="translate(246.6435220107281,15)" font-family="sans-serif" font-size="10px" fill="#000" opacity="1">1.0</text><text text-anchor="middle" transform="translate(2.4457634764605127,15)" font-family="sans-serif" font-size="10px" fill="#000" opacity="1">−1.5</text><text text-anchor="middle" transform="translate(295.48307371758165,15)" font-family="sans-serif" font-size="10px" fill="#000" opacity="1">1.5</text></g><g class="mark-rule role-axis-domain" pointer-events="none"><line transform="translate(0,0)" x2="300" y2="0" stroke="#888" stroke-width="1" opacity="1"/></g><g class="mark-text role-axis-title" pointer-events="none"><text text-anchor="middle" transform="translate(150,30)" font-family="sans-serif" font-size="11px" font-weight="bold" fill="#000" opacity="1">x, x2</text></g></g><path class="foreground" aria-hidden="true" d="" pointer-events="none" display="none"/></g></g><g class="mark-group role-axis" role="graphics-symbol" aria-roledescription="axis" aria-label="Y-axis titled 'y, y2' for a linear scale with values from −0.9 to 0.8"><g transform="translate(0.5,0.5)"><path class="background" aria-hidden="true" d="M0,0h0v0h0Z" pointer-events="none"/><g><g class="mark-rule role-axis-tick" pointer-events="none"><line transform="translate(0,251)" x2="-5" y2="0" stroke="#888" stroke-width="1" opacity="1"/><line transform="translate(0,215)" x2="-5" y2="0" stroke="#888" stroke-width="1" opacity="1"/><line transform="translate(0,178)" x2="-5" y2="0" stroke="#888" stroke-width="1" opacity="1"/><line transform="translate(0,142)" x2="-5" y2="0" stroke="#888" stroke-width="1" opacity="1"/><line transform="translate(0,106)" x2="-5" y2="0" stroke="#888" stroke-width="1" opacity="1"/><line transform="translate(0,70)" x2="-5" y2="0" stroke="#888" stroke-width="1" opacity="1"/><line transform="translate(0,33)" x2="-5" y2="0" stroke="#888" stroke-width="1" opacity="1"/><line transform="translate(0,287)" x2="-5" y2="0" stroke="#888" stroke-width="1" opacity="1"/></g><g class="mark-text role-axis-label" pointer-events="none"><text text-anchor="end" transform="translate(-7,253.9476378186984)" font-family="sans-serif" font-size="10px" fill="#000" opacity="1">−0.6</text><text text-anchor="end" transform="translate(-7,217.6668279793215)" font-family="sans-serif" font-size="10px" fill="#000" opacity="1">−0.4</text><text text-anchor="end" transform="translate(-7,181.38601813994458)" font-family="sans-serif" font-size="10px" fill="#000" opacity="1">−0.2</text><text text-anchor="end" transform="translate(-7,145.1052083005677)" font-family="sans-serif" font-size="10px" fill="#000" opacity="1">0.0</text><text text-anchor="end" transform="translate(-7,108.82439846119081)" font-family="sans-serif" font-size="10px" fill="#000" opacity="1">0.2</text><text text-anchor="end" transform="translate(-7,72.54358862181388)" font-family="sans-serif" font-size="10px" fill="#000" opacity="1">0.4</text><text text-anchor="end" transform="translate(-7,36.26277878243702)" font-family="sans-serif" font-size="10px" fill="#000" opacity="1">0.6</text><text text-anchor="end" transform="translate(-7,290.2284476580753)" font-family="sans-serif" font-size="10px" fill="#000" opacity="1">−0.8</text></g><g class="mark-rule role-axis-domain" pointer-events="none"><line transform="translate(0,300)" x2="0" y2="-300" stroke="#888" stroke-width="1" opacity="1"/></g><g class="mark-text role-axis-title" pointer-events="none"><text text-anchor="middle" transform="translate(-31.673828125,150) rotate(-90) translate(0,-2)" font-family="sans-serif" font-size="11px" font-weight="bold" fill="#000" opacity="1">y, y2</text></g></g><path class="foreground" aria-hidden="true" d="" pointer-events="none" display="none"/></g></g><g class="mark-rule role-mark layer_0_marks" clip-path="url(#clip19)" role="graphics-object" aria-roledescription="rule mark container" pointer-events="none"><line aria-label="x: 0; y: 0; x2: −0.0841610366497; y2: −0.620205742718; color: #889fbf" role="graphics-symbol" aria-roledescription="rule mark" transform="translate(148.96441859702108,142.1052083005677)" x2="-8.220774602310684" y2="112.50783306428497" stroke="#889fbf"/><line aria-label="x: 0; y: 0; x2: 0.511999033452; y2: 0.0218330002777; color: #889fbf" role="graphics-symbol" aria-roledescription="rule mark" transform="translate(148.96441859702108,142.1052083005677)" x2="50.011606536277185" y2="-3.9605946564883823" stroke="#889fbf"/><line aria-label="x: 0; y: 0; x2: −0.748697470703; y2: 0.210269355326; color: #889fbf" role="graphics-symbol" aria-roledescription="rule mark" transform="translate(148.96441859702108,142.1052083005677)" x2="-73.13209766638373" y2="-38.14371247823108" stroke="#889fbf"/><line aria-label="x: 0; y: 0; x2: 0.820814667931; y2: 0.400185730275; color: #889fbf" role="graphics-symbol" aria-roledescription="rule mark" transform="translate(148.96441859702108,142.1052083005677)" x2="80.1764408322768" y2="-72.59531190274761" stroke="#889fbf"/></g><g class="mark-symbol role-mark view_25_marks" clip-path="url(#clip20)" role="graphics-object" aria-roledescription="symbol mark container"><path aria-label="x: −0.0841610366497; y: −0.620205742718; component: attack_name; angle: 88.615610848" role="graphics-symbol" aria-roledescription="point" transform="translate(140.7436439947104,254.61304136485268) rotate(180)" d="M2.739,0A2.739,2.739,0,1,1,-2.739,0A2.739,2.739,0,1,1,2.739,0" fill="#4c78a8" stroke-width="2" opacity="0.7"/><path aria-label="x: 0.511999033452; y: 0.0218330002777; component: attack_name; angle: 88.615610848" role="graphics-symbol" aria-roledescription="point" transform="translate(198.97602513329826,138.14461364407933) rotate(180)" d="M2.739,0A2.739,2.739,0,1,1,-2.739,0A2.739,2.739,0,1,1,2.739,0" fill="#4c78a8" stroke-width="2" opacity="0.7"/><path aria-label="x: −0.748697470703; y: 0.210269355326; component: attack_name; angle: 88.615610848" role="graphics-symbol" aria-roledescription="point" transform="translate(75.83232093063735,103.96149582233663) rotate(180)" d="M2.739,0A2.739,2.739,0,1,1,-2.739,0A2.739,2.739,0,1,1,2.739,0" fill="#4c78a8" stroke-width="2" opacity="0.7"/><path aria-label="x: 0.820814667931; y: 0.400185730275; component: attack_name; angle: 88.615610848" role="graphics-symbol" aria-roledescription="point" transform="translate(229.14085942929788,69.5098963978201) rotate(180)" d="M2.739,0A2.739,2.739,0,1,1,-2.739,0A2.739,2.739,0,1,1,2.739,0" fill="#4c78a8" stroke-width="2" opacity="0.7"/></g><g class="mark-symbol role-mark view_26_marks" clip-path="url(#clip21)" role="graphics-object" aria-roledescription="symbol mark container"><path aria-label="x: 1.02293530019; y: 0.43778780252; component: model" role="graphics-symbol" aria-roledescription="circle" transform="translate(248.8838215700313,62.68872823445552)" d="M3.536,0A3.536,3.536,0,1,1,-3.536,0A3.536,3.536,0,1,1,3.536,0" fill="#f58518" stroke-width="2" opacity="0.7"/><path aria-label="x: 0.0452696018457; y: −0.113240893859; component: model" role="graphics-symbol" aria-roledescription="circle" transform="translate(153.38631271720507,162.6475649813287)" d="M3.536,0A3.536,3.536,0,1,1,-3.536,0A3.536,3.536,0,1,1,3.536,0" fill="#f58518" stroke-width="2" opacity="0.7"/><path aria-label="x: −1.24708133201; y: 0.627299576854; component: model" role="graphics-symbol" aria-roledescription="circle" transform="translate(27.150632201825985,28.310524999706853)" d="M3.536,0A3.536,3.536,0,1,1,-3.536,0A3.536,3.536,0,1,1,3.536,0" fill="#f58518" stroke-width="2" opacity="0.7"/><path aria-label="x: −0.146296799827; y: −0.302589305943; component: model" role="graphics-symbol" aria-roledescription="circle" transform="translate(134.67427835766554,196.99613364233332)" d="M3.536,0A3.536,3.536,0,1,1,-3.536,0A3.536,3.536,0,1,1,3.536,0" fill="#f58518" stroke-width="2" opacity="0.7"/></g><g class="mark-text role-mark layer_2_marks" clip-path="url(#clip22)" role="graphics-object" aria-roledescription="text mark container" pointer-events="none"><text aria-label="x: −0.0841610366497; y: −0.620205742718; name: File_Inclusion" role="graphics-symbol" aria-roledescription="text mark" text-anchor="start" transform="translate(147.7436439947104,258.6130413648527)" font-family="sans-serif" font-size="12px" fill="black">File_Inclusion</text><text aria-label="x: 0.511999033452; y: 0.0218330002777; name: PW_Attack" role="graphics-symbol" aria-roledescription="text mark" text-anchor="start" transform="translate(205.97602513329826,142.14461364407933)" font-family="sans-serif" font-size="12px" fill="black">PW_Attack</text><text aria-label="x: −0.748697470703; y: 0.210269355326; name: SQLi" role="graphics-symbol" aria-roledescription="text mark" text-anchor="start" transform="translate(82.83232093063735,107.96149582233663)" font-family="sans-serif" font-size="12px" fill="black">SQLi</text><text aria-label="x: 0.820814667931; y: 0.400185730275; name: XSS" role="graphics-symbol" aria-roledescription="text mark" text-anchor="start" transform="translate(236.14085942929788,73.5098963978201)" font-family="sans-serif" font-size="12px" fill="black">XSS</text><text aria-label="x: 1.02293530019; y: 0.43778780252; name: DNN" role="graphics-symbol" aria-roledescription="text mark" text-anchor="start" transform="translate(255.8838215700313,66.68872823445551)" font-family="sans-serif" font-size="12px" fill="black">DNN</text><text aria-label="x: 0.0452696018457; y: −0.113240893859; name: DPL" role="graphics-symbol" aria-roledescription="text mark" text-anchor="start" transform="translate(160.38631271720507,166.6475649813287)" font-family="sans-serif" font-size="12px" fill="black">DPL</text><text aria-label="x: −1.24708133201; y: 0.627299576854; name: H-LSTM" role="graphics-symbol" aria-roledescription="text mark" text-anchor="start" transform="translate(34.150632201825985,32.31052499970686)" font-family="sans-serif" font-size="12px" fill="black">H-LSTM</text><text aria-label="x: −0.146296799827; y: −0.302589305943; name: P-LSTM" role="graphics-symbol" aria-roledescription="text mark" text-anchor="start" transform="translate(141.67427835766554,200.99613364233332)" font-family="sans-serif" font-size="12px" fill="black">P-LSTM</text></g><g class="mark-rule role-mark layer_3_marks" clip-path="url(#clip23)" role="graphics-object" aria-roledescription="rule mark container" pointer-events="none"><line aria-label="y: 0" role="graphics-symbol" aria-roledescription="rule mark" transform="translate(300,142.1052083005677)" x2="-300" y2="0" stroke="gray"/></g><g class="mark-rule role-mark layer_4_marks" clip-path="url(#clip24)" role="graphics-object" aria-roledescription="rule mark container" pointer-events="none"><line aria-label="x: 0" role="graphics-symbol" aria-roledescription="rule mark" transform="translate(148.96441859702108,0)" x2="0" y2="300" stroke="gray"/></g><g class="mark-group role-legend" role="graphics-symbol" aria-roledescription="legend" aria-label="Symbol legend titled 'color, component' for fill color with 2 values: attack_name, model"><g transform="translate(318,0)"><path class="background" aria-hidden="true" d="M0,0h92v40h-92Z" pointer-events="none"/><g><g class="mark-group role-legend-entry"><g transform="translate(0,16)"><path class="background" aria-hidden="true" d="M0,0h0v0h0Z" pointer-events="none"/><g><g class="mark-group role-scope" role="graphics-object" aria-roledescription="group mark container"><g transform="translate(0,0)"><path class="background" aria-hidden="true" d="M0,0h72.4697265625v11h-72.4697265625Z" pointer-events="none" opacity="1"/><g><g class="mark-symbol role-legend-symbol" pointer-events="none"><path transform="translate(6,6)" d="M5,0A5,5,0,1,1,-5,0A5,5,0,1,1,5,0" fill="#4c78a8" stroke-width="1.5" opacity="0.7"/></g><g class="mark-text role-legend-label" pointer-events="none"><text text-anchor="start" transform="translate(16,9)" font-family="sans-serif" font-size="10px" fill="#000" opacity="1">attack_name</text></g></g><path class="foreground" aria-hidden="true" d="" pointer-events="none" display="none"/></g><g transform="translate(0,13)"><path class="background" aria-hidden="true" d="M0,0h72.4697265625v11h-72.4697265625Z" pointer-events="none" opacity="1"/><g><g class="mark-symbol role-legend-symbol" pointer-events="none"><path transform="translate(6,6)" d="M5,0A5,5,0,1,1,-5,0A5,5,0,1,1,5,0" fill="#f58518" stroke-width="1.5" opacity="0.7"/></g><g class="mark-text role-legend-label" pointer-events="none"><text text-anchor="start" transform="translate(16,9)" font-family="sans-serif" font-size="10px" fill="#000" opacity="1">model</text></g></g><path class="foreground" aria-hidden="true" d="" pointer-events="none" display="none"/></g></g></g><path class="foreground" aria-hidden="true" d="" pointer-events="none" display="none"/></g></g><g class="mark-text role-legend-title" pointer-events="none"><text text-anchor="start" transform="translate(0,9)" font-family="sans-serif" font-size="11px" font-weight="bold" fill="#000" opacity="1">color, component</text></g></g><path class="foreground" aria-hidden="true" d="" pointer-events="none" display="none"/></g></g><g class="mark-group role-title"><g transform="translate(150,-17)"><path class="background" aria-hidden="true" d="M0,0h0v0h0Z" pointer-events="none"/><g><g class="mark-text role-title-text" role="graphics-symbol" aria-roledescription="title" aria-label="Title text 'recall'" pointer-events="none"><text text-anchor="middle" transform="translate(0,10)" font-family="sans-serif" font-size="13px" font-weight="bold" fill="#000" opacity="1">recall</text></g></g><path class="foreground" aria-hidden="true" d="" pointer-events="none" display="none"/></g></g></g><path class="foreground" aria-hidden="true" d="" display="none"/></g></g></g><defs><clipPath id="clip19"><rect x="0" y="0" width="300" height="300"/></clipPath><clipPath id="clip20"><rect x="0" y="0" width="300" height="300"/></clipPath><clipPath id="clip21"><rect x="0" y="0" width="300" height="300"/></clipPath><clipPath id="clip22"><rect x="0" y="0" width="300" height="300"/></clipPath><clipPath id="clip23"><rect x="0" y="0" width="300" height="300"/></clipPath><clipPath id="clip24"><rect x="0" y="0" width="300" height="300"/></clipPath></defs></svg>