<?xml version="1.0" encoding="utf-8" standalone="no"?>
<!DOCTYPE svg PUBLIC "-//W3C//DTD SVG 1.1//EN"
  "http://www.w3.org/Graphics/SVG/1.1/DTD/svg11.dtd">
<svg xmlns:xlink="http://www.w3.org/1999/xlink" width="1153.303125pt" height="358.836875pt" viewBox="0 0 1153.303125 358.836875" xmlns="http://www.w3.org/2000/svg" version="1.1">
 <metadata>
  <rdf:RDF xmlns:dc="http://purl.org/dc/elements/1.1/" xmlns:cc="http://creativecommons.org/ns#" xmlns:rdf="http://www.w3.org/1999/02/22-rdf-syntax-ns#">
   <cc:Work>
    <dc:type rdf:resource="http://purl.org/dc/dcmitype/StillImage"/>
    <dc:date>2023-08-12T19:05:30.202233</dc:date>
    <dc:format>image/svg+xml</dc:format>
    <dc:creator>
     <cc:Agent>
      <dc:title>Matplotlib v3.7.2, https://matplotlib.org/</dc:title>
     </cc:Agent>
    </dc:creator>
   </cc:Work>
  </rdf:RDF>
 </metadata>
 <defs>
  <style type="text/css">*{stroke-linejoin: round; stroke-linecap: butt}</style>
 </defs>
 <g id="figure_1">
  <g id="patch_1">
   <path d="M 0 358.836875 
L 1153.303125 358.836875 
L 1153.303125 0 
L 0 0 
z
" style="fill: #ffffff"/>
  </g>
  <g id="axes_1">
   <g id="patch_2">
    <path d="M 30.103125 299.518125 
L 272.711821 299.518125 
L 272.711821 22.318125 
L 30.103125 22.318125 
z
" style="fill: #ffffff"/>
   </g>
   <g id="patch_3">
    <path d="M 42.23356 299.518125 
L 66.494429 299.518125 
L 66.494429 45.629299 
L 42.23356 45.629299 
z
" clip-path="url(#p9eac054755)" style="fill: #66c2a5"/>
   </g>
   <g id="patch_4">
    <path d="M 90.755299 299.518125 
L 115.016168 299.518125 
L 115.016168 48.616675 
L 90.755299 48.616675 
z
" clip-path="url(#p9eac054755)" style="fill: #66c2a5"/>
   </g>
   <g id="patch_5">
    <path d="M 139.277038 299.518125 
L 163.537908 299.518125 
L 163.537908 118.722896 
L 139.277038 118.722896 
z
" clip-path="url(#p9eac054755)" style="fill: #66c2a5"/>
   </g>
   <g id="patch_6">
    <path d="M 187.798777 299.518125 
L 212.059647 299.518125 
L 212.059647 97.677577 
L 187.798777 97.677577 
z
" clip-path="url(#p9eac054755)" style="fill: #66c2a5"/>
   </g>
   <g id="patch_7">
    <path d="M 236.320516 299.518125 
L 260.581386 299.518125 
L 260.581386 151.818257 
L 236.320516 151.818257 
z
" clip-path="url(#p9eac054755)" style="fill: #66c2a5"/>
   </g>
   <g id="matplotlib.axis_1">
    <g id="xtick_1">
     <g id="line2d_1">
      <defs>
       <path id="m03566feefe" d="M 0 0 
L 0 3.5 
" style="stroke: #000000; stroke-width: 0.8"/>
      </defs>
      <g>
       <use xlink:href="#m03566feefe" x="54.363995" y="299.518125" style="stroke: #000000; stroke-width: 0.8"/>
      </g>
     </g>
     <g id="text_1">
      <!-- accuracy -->
      <g transform="translate(57.12337 351.636875) rotate(-90) scale(0.1 -0.1)">
       <defs>
        <path id="DejaVuSans-61" d="M 2194 1759 
Q 1497 1759 1228 1600 
Q 959 1441 959 1056 
Q 959 750 1161 570 
Q 1363 391 1709 391 
Q 2188 391 2477 730 
Q 2766 1069 2766 1631 
L 2766 1759 
L 2194 1759 
z
M 3341 1997 
L 3341 0 
L 2766 0 
L 2766 531 
Q 2569 213 2275 61 
Q 1981 -91 1556 -91 
Q 1019 -91 701 211 
Q 384 513 384 1019 
Q 384 1609 779 1909 
Q 1175 2209 1959 2209 
L 2766 2209 
L 2766 2266 
Q 2766 2663 2505 2880 
Q 2244 3097 1772 3097 
Q 1472 3097 1187 3025 
Q 903 2953 641 2809 
L 641 3341 
Q 956 3463 1253 3523 
Q 1550 3584 1831 3584 
Q 2591 3584 2966 3190 
Q 3341 2797 3341 1997 
z
" transform="scale(0.015625)"/>
        <path id="DejaVuSans-63" d="M 3122 3366 
L 3122 2828 
Q 2878 2963 2633 3030 
Q 2388 3097 2138 3097 
Q 1578 3097 1268 2742 
Q 959 2388 959 1747 
Q 959 1106 1268 751 
Q 1578 397 2138 397 
Q 2388 397 2633 464 
Q 2878 531 3122 666 
L 3122 134 
Q 2881 22 2623 -34 
Q 2366 -91 2075 -91 
Q 1284 -91 818 406 
Q 353 903 353 1747 
Q 353 2603 823 3093 
Q 1294 3584 2113 3584 
Q 2378 3584 2631 3529 
Q 2884 3475 3122 3366 
z
" transform="scale(0.015625)"/>
        <path id="DejaVuSans-75" d="M 544 1381 
L 544 3500 
L 1119 3500 
L 1119 1403 
Q 1119 906 1312 657 
Q 1506 409 1894 409 
Q 2359 409 2629 706 
Q 2900 1003 2900 1516 
L 2900 3500 
L 3475 3500 
L 3475 0 
L 2900 0 
L 2900 538 
Q 2691 219 2414 64 
Q 2138 -91 1772 -91 
Q 1169 -91 856 284 
Q 544 659 544 1381 
z
M 1991 3584 
L 1991 3584 
z
" transform="scale(0.015625)"/>
        <path id="DejaVuSans-72" d="M 2631 2963 
Q 2534 3019 2420 3045 
Q 2306 3072 2169 3072 
Q 1681 3072 1420 2755 
Q 1159 2438 1159 1844 
L 1159 0 
L 581 0 
L 581 3500 
L 1159 3500 
L 1159 2956 
Q 1341 3275 1631 3429 
Q 1922 3584 2338 3584 
Q 2397 3584 2469 3576 
Q 2541 3569 2628 3553 
L 2631 2963 
z
" transform="scale(0.015625)"/>
        <path id="DejaVuSans-79" d="M 2059 -325 
Q 1816 -950 1584 -1140 
Q 1353 -1331 966 -1331 
L 506 -1331 
L 506 -850 
L 844 -850 
Q 1081 -850 1212 -737 
Q 1344 -625 1503 -206 
L 1606 56 
L 191 3500 
L 800 3500 
L 1894 763 
L 2988 3500 
L 3597 3500 
L 2059 -325 
z
" transform="scale(0.015625)"/>
       </defs>
       <use xlink:href="#DejaVuSans-61"/>
       <use xlink:href="#DejaVuSans-63" x="61.279297"/>
       <use xlink:href="#DejaVuSans-63" x="116.259766"/>
       <use xlink:href="#DejaVuSans-75" x="171.240234"/>
       <use xlink:href="#DejaVuSans-72" x="234.619141"/>
       <use xlink:href="#DejaVuSans-61" x="275.732422"/>
       <use xlink:href="#DejaVuSans-63" x="337.011719"/>
       <use xlink:href="#DejaVuSans-79" x="391.992188"/>
      </g>
     </g>
    </g>
    <g id="xtick_2">
     <g id="line2d_2">
      <g>
       <use xlink:href="#m03566feefe" x="102.885734" y="299.518125" style="stroke: #000000; stroke-width: 0.8"/>
      </g>
     </g>
     <g id="text_2">
      <!-- precision -->
      <g transform="translate(105.645109 351.625938) rotate(-90) scale(0.1 -0.1)">
       <defs>
        <path id="DejaVuSans-70" d="M 1159 525 
L 1159 -1331 
L 581 -1331 
L 581 3500 
L 1159 3500 
L 1159 2969 
Q 1341 3281 1617 3432 
Q 1894 3584 2278 3584 
Q 2916 3584 3314 3078 
Q 3713 2572 3713 1747 
Q 3713 922 3314 415 
Q 2916 -91 2278 -91 
Q 1894 -91 1617 61 
Q 1341 213 1159 525 
z
M 3116 1747 
Q 3116 2381 2855 2742 
Q 2594 3103 2138 3103 
Q 1681 3103 1420 2742 
Q 1159 2381 1159 1747 
Q 1159 1113 1420 752 
Q 1681 391 2138 391 
Q 2594 391 2855 752 
Q 3116 1113 3116 1747 
z
" transform="scale(0.015625)"/>
        <path id="DejaVuSans-65" d="M 3597 1894 
L 3597 1613 
L 953 1613 
Q 991 1019 1311 708 
Q 1631 397 2203 397 
Q 2534 397 2845 478 
Q 3156 559 3463 722 
L 3463 178 
Q 3153 47 2828 -22 
Q 2503 -91 2169 -91 
Q 1331 -91 842 396 
Q 353 884 353 1716 
Q 353 2575 817 3079 
Q 1281 3584 2069 3584 
Q 2775 3584 3186 3129 
Q 3597 2675 3597 1894 
z
M 3022 2063 
Q 3016 2534 2758 2815 
Q 2500 3097 2075 3097 
Q 1594 3097 1305 2825 
Q 1016 2553 972 2059 
L 3022 2063 
z
" transform="scale(0.015625)"/>
        <path id="DejaVuSans-69" d="M 603 3500 
L 1178 3500 
L 1178 0 
L 603 0 
L 603 3500 
z
M 603 4863 
L 1178 4863 
L 1178 4134 
L 603 4134 
L 603 4863 
z
" transform="scale(0.015625)"/>
        <path id="DejaVuSans-73" d="M 2834 3397 
L 2834 2853 
Q 2591 2978 2328 3040 
Q 2066 3103 1784 3103 
Q 1356 3103 1142 2972 
Q 928 2841 928 2578 
Q 928 2378 1081 2264 
Q 1234 2150 1697 2047 
L 1894 2003 
Q 2506 1872 2764 1633 
Q 3022 1394 3022 966 
Q 3022 478 2636 193 
Q 2250 -91 1575 -91 
Q 1294 -91 989 -36 
Q 684 19 347 128 
L 347 722 
Q 666 556 975 473 
Q 1284 391 1588 391 
Q 1994 391 2212 530 
Q 2431 669 2431 922 
Q 2431 1156 2273 1281 
Q 2116 1406 1581 1522 
L 1381 1569 
Q 847 1681 609 1914 
Q 372 2147 372 2553 
Q 372 3047 722 3315 
Q 1072 3584 1716 3584 
Q 2034 3584 2315 3537 
Q 2597 3491 2834 3397 
z
" transform="scale(0.015625)"/>
        <path id="DejaVuSans-6f" d="M 1959 3097 
Q 1497 3097 1228 2736 
Q 959 2375 959 1747 
Q 959 1119 1226 758 
Q 1494 397 1959 397 
Q 2419 397 2687 759 
Q 2956 1122 2956 1747 
Q 2956 2369 2687 2733 
Q 2419 3097 1959 3097 
z
M 1959 3584 
Q 2709 3584 3137 3096 
Q 3566 2609 3566 1747 
Q 3566 888 3137 398 
Q 2709 -91 1959 -91 
Q 1206 -91 779 398 
Q 353 888 353 1747 
Q 353 2609 779 3096 
Q 1206 3584 1959 3584 
z
" transform="scale(0.015625)"/>
        <path id="DejaVuSans-6e" d="M 3513 2113 
L 3513 0 
L 2938 0 
L 2938 2094 
Q 2938 2591 2744 2837 
Q 2550 3084 2163 3084 
Q 1697 3084 1428 2787 
Q 1159 2491 1159 1978 
L 1159 0 
L 581 0 
L 581 3500 
L 1159 3500 
L 1159 2956 
Q 1366 3272 1645 3428 
Q 1925 3584 2291 3584 
Q 2894 3584 3203 3211 
Q 3513 2838 3513 2113 
z
" transform="scale(0.015625)"/>
       </defs>
       <use xlink:href="#DejaVuSans-70"/>
       <use xlink:href="#DejaVuSans-72" x="63.476562"/>
       <use xlink:href="#DejaVuSans-65" x="102.339844"/>
       <use xlink:href="#DejaVuSans-63" x="163.863281"/>
       <use xlink:href="#DejaVuSans-69" x="218.84375"/>
       <use xlink:href="#DejaVuSans-73" x="246.626953"/>
       <use xlink:href="#DejaVuSans-69" x="298.726562"/>
       <use xlink:href="#DejaVuSans-6f" x="326.509766"/>
       <use xlink:href="#DejaVuSans-6e" x="387.691406"/>
      </g>
     </g>
    </g>
    <g id="xtick_3">
     <g id="line2d_3">
      <g>
       <use xlink:href="#m03566feefe" x="151.407473" y="299.518125" style="stroke: #000000; stroke-width: 0.8"/>
      </g>
     </g>
     <g id="text_3">
      <!-- recall -->
      <g transform="translate(154.166848 333.74) rotate(-90) scale(0.1 -0.1)">
       <defs>
        <path id="DejaVuSans-6c" d="M 603 4863 
L 1178 4863 
L 1178 0 
L 603 0 
L 603 4863 
z
" transform="scale(0.015625)"/>
       </defs>
       <use xlink:href="#DejaVuSans-72"/>
       <use xlink:href="#DejaVuSans-65" x="38.863281"/>
       <use xlink:href="#DejaVuSans-63" x="100.386719"/>
       <use xlink:href="#DejaVuSans-61" x="155.367188"/>
       <use xlink:href="#DejaVuSans-6c" x="216.646484"/>
       <use xlink:href="#DejaVuSans-6c" x="244.429688"/>
      </g>
     </g>
    </g>
    <g id="xtick_4">
     <g id="line2d_4">
      <g>
       <use xlink:href="#m03566feefe" x="199.929212" y="299.518125" style="stroke: #000000; stroke-width: 0.8"/>
      </g>
     </g>
     <g id="text_4">
      <!-- f1_score -->
      <g transform="translate(202.549524 348.266563) rotate(-90) scale(0.1 -0.1)">
       <defs>
        <path id="DejaVuSans-66" d="M 2375 4863 
L 2375 4384 
L 1825 4384 
Q 1516 4384 1395 4259 
Q 1275 4134 1275 3809 
L 1275 3500 
L 2222 3500 
L 2222 3053 
L 1275 3053 
L 1275 0 
L 697 0 
L 697 3053 
L 147 3053 
L 147 3500 
L 697 3500 
L 697 3744 
Q 697 4328 969 4595 
Q 1241 4863 1831 4863 
L 2375 4863 
z
" transform="scale(0.015625)"/>
        <path id="DejaVuSans-31" d="M 794 531 
L 1825 531 
L 1825 4091 
L 703 3866 
L 703 4441 
L 1819 4666 
L 2450 4666 
L 2450 531 
L 3481 531 
L 3481 0 
L 794 0 
L 794 531 
z
" transform="scale(0.015625)"/>
        <path id="DejaVuSans-5f" d="M 3263 -1063 
L 3263 -1509 
L -63 -1509 
L -63 -1063 
L 3263 -1063 
z
" transform="scale(0.015625)"/>
       </defs>
       <use xlink:href="#DejaVuSans-66"/>
       <use xlink:href="#DejaVuSans-31" x="35.205078"/>
       <use xlink:href="#DejaVuSans-5f" x="98.828125"/>
       <use xlink:href="#DejaVuSans-73" x="148.828125"/>
       <use xlink:href="#DejaVuSans-63" x="200.927734"/>
       <use xlink:href="#DejaVuSans-6f" x="255.908203"/>
       <use xlink:href="#DejaVuSans-72" x="317.089844"/>
       <use xlink:href="#DejaVuSans-65" x="355.953125"/>
      </g>
     </g>
    </g>
    <g id="xtick_5">
     <g id="line2d_5">
      <g>
       <use xlink:href="#m03566feefe" x="248.450951" y="299.518125" style="stroke: #000000; stroke-width: 0.8"/>
      </g>
     </g>
     <g id="text_5">
      <!-- f1_micro -->
      <g transform="translate(251.071264 349.422813) rotate(-90) scale(0.1 -0.1)">
       <defs>
        <path id="DejaVuSans-6d" d="M 3328 2828 
Q 3544 3216 3844 3400 
Q 4144 3584 4550 3584 
Q 5097 3584 5394 3201 
Q 5691 2819 5691 2113 
L 5691 0 
L 5113 0 
L 5113 2094 
Q 5113 2597 4934 2840 
Q 4756 3084 4391 3084 
Q 3944 3084 3684 2787 
Q 3425 2491 3425 1978 
L 3425 0 
L 2847 0 
L 2847 2094 
Q 2847 2600 2669 2842 
Q 2491 3084 2119 3084 
Q 1678 3084 1418 2786 
Q 1159 2488 1159 1978 
L 1159 0 
L 581 0 
L 581 3500 
L 1159 3500 
L 1159 2956 
Q 1356 3278 1631 3431 
Q 1906 3584 2284 3584 
Q 2666 3584 2933 3390 
Q 3200 3197 3328 2828 
z
" transform="scale(0.015625)"/>
       </defs>
       <use xlink:href="#DejaVuSans-66"/>
       <use xlink:href="#DejaVuSans-31" x="35.205078"/>
       <use xlink:href="#DejaVuSans-5f" x="98.828125"/>
       <use xlink:href="#DejaVuSans-6d" x="148.828125"/>
       <use xlink:href="#DejaVuSans-69" x="246.240234"/>
       <use xlink:href="#DejaVuSans-63" x="274.023438"/>
       <use xlink:href="#DejaVuSans-72" x="329.003906"/>
       <use xlink:href="#DejaVuSans-6f" x="367.867188"/>
      </g>
     </g>
    </g>
   </g>
   <g id="matplotlib.axis_2">
    <g id="ytick_1">
     <g id="line2d_6">
      <defs>
       <path id="mf7390865d4" d="M 0 0 
L -3.5 0 
" style="stroke: #000000; stroke-width: 0.8"/>
      </defs>
      <g>
       <use xlink:href="#mf7390865d4" x="30.103125" y="299.518125" style="stroke: #000000; stroke-width: 0.8"/>
      </g>
     </g>
     <g id="text_6">
      <!-- 0.0 -->
      <g transform="translate(7.2 303.317344) scale(0.1 -0.1)">
       <defs>
        <path id="DejaVuSans-30" d="M 2034 4250 
Q 1547 4250 1301 3770 
Q 1056 3291 1056 2328 
Q 1056 1369 1301 889 
Q 1547 409 2034 409 
Q 2525 409 2770 889 
Q 3016 1369 3016 2328 
Q 3016 3291 2770 3770 
Q 2525 4250 2034 4250 
z
M 2034 4750 
Q 2819 4750 3233 4129 
Q 3647 3509 3647 2328 
Q 3647 1150 3233 529 
Q 2819 -91 2034 -91 
Q 1250 -91 836 529 
Q 422 1150 422 2328 
Q 422 3509 836 4129 
Q 1250 4750 2034 4750 
z
" transform="scale(0.015625)"/>
        <path id="DejaVuSans-2e" d="M 684 794 
L 1344 794 
L 1344 0 
L 684 0 
L 684 794 
z
" transform="scale(0.015625)"/>
       </defs>
       <use xlink:href="#DejaVuSans-30"/>
       <use xlink:href="#DejaVuSans-2e" x="63.623047"/>
       <use xlink:href="#DejaVuSans-30" x="95.410156"/>
      </g>
     </g>
    </g>
    <g id="ytick_2">
     <g id="line2d_7">
      <g>
       <use xlink:href="#mf7390865d4" x="30.103125" y="244.274517" style="stroke: #000000; stroke-width: 0.8"/>
      </g>
     </g>
     <g id="text_7">
      <!-- 0.2 -->
      <g transform="translate(7.2 248.073736) scale(0.1 -0.1)">
       <defs>
        <path id="DejaVuSans-32" d="M 1228 531 
L 3431 531 
L 3431 0 
L 469 0 
L 469 531 
Q 828 903 1448 1529 
Q 2069 2156 2228 2338 
Q 2531 2678 2651 2914 
Q 2772 3150 2772 3378 
Q 2772 3750 2511 3984 
Q 2250 4219 1831 4219 
Q 1534 4219 1204 4116 
Q 875 4013 500 3803 
L 500 4441 
Q 881 4594 1212 4672 
Q 1544 4750 1819 4750 
Q 2544 4750 2975 4387 
Q 3406 4025 3406 3419 
Q 3406 3131 3298 2873 
Q 3191 2616 2906 2266 
Q 2828 2175 2409 1742 
Q 1991 1309 1228 531 
z
" transform="scale(0.015625)"/>
       </defs>
       <use xlink:href="#DejaVuSans-30"/>
       <use xlink:href="#DejaVuSans-2e" x="63.623047"/>
       <use xlink:href="#DejaVuSans-32" x="95.410156"/>
      </g>
     </g>
    </g>
    <g id="ytick_3">
     <g id="line2d_8">
      <g>
       <use xlink:href="#mf7390865d4" x="30.103125" y="189.030909" style="stroke: #000000; stroke-width: 0.8"/>
      </g>
     </g>
     <g id="text_8">
      <!-- 0.4 -->
      <g transform="translate(7.2 192.830128) scale(0.1 -0.1)">
       <defs>
        <path id="DejaVuSans-34" d="M 2419 4116 
L 825 1625 
L 2419 1625 
L 2419 4116 
z
M 2253 4666 
L 3047 4666 
L 3047 1625 
L 3713 1625 
L 3713 1100 
L 3047 1100 
L 3047 0 
L 2419 0 
L 2419 1100 
L 313 1100 
L 313 1709 
L 2253 4666 
z
" transform="scale(0.015625)"/>
       </defs>
       <use xlink:href="#DejaVuSans-30"/>
       <use xlink:href="#DejaVuSans-2e" x="63.623047"/>
       <use xlink:href="#DejaVuSans-34" x="95.410156"/>
      </g>
     </g>
    </g>
    <g id="ytick_4">
     <g id="line2d_9">
      <g>
       <use xlink:href="#mf7390865d4" x="30.103125" y="133.787302" style="stroke: #000000; stroke-width: 0.8"/>
      </g>
     </g>
     <g id="text_9">
      <!-- 0.6 -->
      <g transform="translate(7.2 137.58652) scale(0.1 -0.1)">
       <defs>
        <path id="DejaVuSans-36" d="M 2113 2584 
Q 1688 2584 1439 2293 
Q 1191 2003 1191 1497 
Q 1191 994 1439 701 
Q 1688 409 2113 409 
Q 2538 409 2786 701 
Q 3034 994 3034 1497 
Q 3034 2003 2786 2293 
Q 2538 2584 2113 2584 
z
M 3366 4563 
L 3366 3988 
Q 3128 4100 2886 4159 
Q 2644 4219 2406 4219 
Q 1781 4219 1451 3797 
Q 1122 3375 1075 2522 
Q 1259 2794 1537 2939 
Q 1816 3084 2150 3084 
Q 2853 3084 3261 2657 
Q 3669 2231 3669 1497 
Q 3669 778 3244 343 
Q 2819 -91 2113 -91 
Q 1303 -91 875 529 
Q 447 1150 447 2328 
Q 447 3434 972 4092 
Q 1497 4750 2381 4750 
Q 2619 4750 2861 4703 
Q 3103 4656 3366 4563 
z
" transform="scale(0.015625)"/>
       </defs>
       <use xlink:href="#DejaVuSans-30"/>
       <use xlink:href="#DejaVuSans-2e" x="63.623047"/>
       <use xlink:href="#DejaVuSans-36" x="95.410156"/>
      </g>
     </g>
    </g>
    <g id="ytick_5">
     <g id="line2d_10">
      <g>
       <use xlink:href="#mf7390865d4" x="30.103125" y="78.543694" style="stroke: #000000; stroke-width: 0.8"/>
      </g>
     </g>
     <g id="text_10">
      <!-- 0.8 -->
      <g transform="translate(7.2 82.342913) scale(0.1 -0.1)">
       <defs>
        <path id="DejaVuSans-38" d="M 2034 2216 
Q 1584 2216 1326 1975 
Q 1069 1734 1069 1313 
Q 1069 891 1326 650 
Q 1584 409 2034 409 
Q 2484 409 2743 651 
Q 3003 894 3003 1313 
Q 3003 1734 2745 1975 
Q 2488 2216 2034 2216 
z
M 1403 2484 
Q 997 2584 770 2862 
Q 544 3141 544 3541 
Q 544 4100 942 4425 
Q 1341 4750 2034 4750 
Q 2731 4750 3128 4425 
Q 3525 4100 3525 3541 
Q 3525 3141 3298 2862 
Q 3072 2584 2669 2484 
Q 3125 2378 3379 2068 
Q 3634 1759 3634 1313 
Q 3634 634 3220 271 
Q 2806 -91 2034 -91 
Q 1263 -91 848 271 
Q 434 634 434 1313 
Q 434 1759 690 2068 
Q 947 2378 1403 2484 
z
M 1172 3481 
Q 1172 3119 1398 2916 
Q 1625 2713 2034 2713 
Q 2441 2713 2670 2916 
Q 2900 3119 2900 3481 
Q 2900 3844 2670 4047 
Q 2441 4250 2034 4250 
Q 1625 4250 1398 4047 
Q 1172 3844 1172 3481 
z
" transform="scale(0.015625)"/>
       </defs>
       <use xlink:href="#DejaVuSans-30"/>
       <use xlink:href="#DejaVuSans-2e" x="63.623047"/>
       <use xlink:href="#DejaVuSans-38" x="95.410156"/>
      </g>
     </g>
    </g>
    <g id="ytick_6">
     <g id="line2d_11">
      <g>
       <use xlink:href="#mf7390865d4" x="30.103125" y="23.300086" style="stroke: #000000; stroke-width: 0.8"/>
      </g>
     </g>
     <g id="text_11">
      <!-- 1.0 -->
      <g transform="translate(7.2 27.099305) scale(0.1 -0.1)">
       <use xlink:href="#DejaVuSans-31"/>
       <use xlink:href="#DejaVuSans-2e" x="63.623047"/>
       <use xlink:href="#DejaVuSans-30" x="95.410156"/>
      </g>
     </g>
    </g>
   </g>
   <g id="patch_8">
    <path d="M 30.103125 299.518125 
L 30.103125 22.318125 
" style="fill: none; stroke: #000000; stroke-width: 0.8; stroke-linejoin: miter; stroke-linecap: square"/>
   </g>
   <g id="patch_9">
    <path d="M 272.711821 299.518125 
L 272.711821 22.318125 
" style="fill: none; stroke: #000000; stroke-width: 0.8; stroke-linejoin: miter; stroke-linecap: square"/>
   </g>
   <g id="patch_10">
    <path d="M 30.103125 299.518125 
L 272.711821 299.518125 
" style="fill: none; stroke: #000000; stroke-width: 0.8; stroke-linejoin: miter; stroke-linecap: square"/>
   </g>
   <g id="patch_11">
    <path d="M 30.103125 22.318125 
L 272.711821 22.318125 
" style="fill: none; stroke: #000000; stroke-width: 0.8; stroke-linejoin: miter; stroke-linecap: square"/>
   </g>
   <g id="text_12">
    <!-- form-LSTM -->
    <g transform="translate(119.25966 16.318125) scale(0.12 -0.12)">
     <defs>
      <path id="DejaVuSans-2d" d="M 313 2009 
L 1997 2009 
L 1997 1497 
L 313 1497 
L 313 2009 
z
" transform="scale(0.015625)"/>
      <path id="DejaVuSans-4c" d="M 628 4666 
L 1259 4666 
L 1259 531 
L 3531 531 
L 3531 0 
L 628 0 
L 628 4666 
z
" transform="scale(0.015625)"/>
      <path id="DejaVuSans-53" d="M 3425 4513 
L 3425 3897 
Q 3066 4069 2747 4153 
Q 2428 4238 2131 4238 
Q 1616 4238 1336 4038 
Q 1056 3838 1056 3469 
Q 1056 3159 1242 3001 
Q 1428 2844 1947 2747 
L 2328 2669 
Q 3034 2534 3370 2195 
Q 3706 1856 3706 1288 
Q 3706 609 3251 259 
Q 2797 -91 1919 -91 
Q 1588 -91 1214 -16 
Q 841 59 441 206 
L 441 856 
Q 825 641 1194 531 
Q 1563 422 1919 422 
Q 2459 422 2753 634 
Q 3047 847 3047 1241 
Q 3047 1584 2836 1778 
Q 2625 1972 2144 2069 
L 1759 2144 
Q 1053 2284 737 2584 
Q 422 2884 422 3419 
Q 422 4038 858 4394 
Q 1294 4750 2059 4750 
Q 2388 4750 2728 4690 
Q 3069 4631 3425 4513 
z
" transform="scale(0.015625)"/>
      <path id="DejaVuSans-54" d="M -19 4666 
L 3928 4666 
L 3928 4134 
L 2272 4134 
L 2272 0 
L 1638 0 
L 1638 4134 
L -19 4134 
L -19 4666 
z
" transform="scale(0.015625)"/>
      <path id="DejaVuSans-4d" d="M 628 4666 
L 1569 4666 
L 2759 1491 
L 3956 4666 
L 4897 4666 
L 4897 0 
L 4281 0 
L 4281 4097 
L 3078 897 
L 2444 897 
L 1241 4097 
L 1241 0 
L 628 0 
L 628 4666 
z
" transform="scale(0.015625)"/>
     </defs>
     <use xlink:href="#DejaVuSans-66"/>
     <use xlink:href="#DejaVuSans-6f" x="35.205078"/>
     <use xlink:href="#DejaVuSans-72" x="96.386719"/>
     <use xlink:href="#DejaVuSans-6d" x="135.75"/>
     <use xlink:href="#DejaVuSans-2d" x="233.162109"/>
     <use xlink:href="#DejaVuSans-4c" x="269.246094"/>
     <use xlink:href="#DejaVuSans-53" x="324.958984"/>
     <use xlink:href="#DejaVuSans-54" x="388.435547"/>
     <use xlink:href="#DejaVuSans-4d" x="449.519531"/>
    </g>
   </g>
   <g id="legend_1">
    <g id="patch_12">
     <path d="M 206.846196 44.99625 
L 265.711821 44.99625 
Q 267.711821 44.99625 267.711821 42.99625 
L 267.711821 29.318125 
Q 267.711821 27.318125 265.711821 27.318125 
L 206.846196 27.318125 
Q 204.846196 27.318125 204.846196 29.318125 
L 204.846196 42.99625 
Q 204.846196 44.99625 206.846196 44.99625 
z
" style="fill: #ffffff; opacity: 0.8; stroke: #cccccc; stroke-linejoin: miter"/>
    </g>
    <g id="patch_13">
     <path d="M 208.846196 38.916563 
L 228.846196 38.916563 
L 228.846196 31.916563 
L 208.846196 31.916563 
z
" style="fill: #66c2a5"/>
    </g>
    <g id="text_13">
     <!-- score -->
     <g transform="translate(236.846196 38.916563) scale(0.1 -0.1)">
      <use xlink:href="#DejaVuSans-73"/>
      <use xlink:href="#DejaVuSans-63" x="52.099609"/>
      <use xlink:href="#DejaVuSans-6f" x="107.080078"/>
      <use xlink:href="#DejaVuSans-72" x="168.261719"/>
      <use xlink:href="#DejaVuSans-65" x="207.125"/>
     </g>
    </g>
   </g>
  </g>
  <g id="axes_2">
   <g id="patch_14">
    <path d="M 321.23356 299.518125 
L 563.842255 299.518125 
L 563.842255 22.318125 
L 321.23356 22.318125 
z
" style="fill: #ffffff"/>
   </g>
   <g id="patch_15">
    <path d="M 333.363995 299.518125 
L 357.624864 299.518125 
L 357.624864 154.905327 
L 333.363995 154.905327 
z
" clip-path="url(#p5f58c70c45)" style="fill: #66c2a5"/>
   </g>
   <g id="patch_16">
    <path d="M 381.885734 299.518125 
L 406.146603 299.518125 
L 406.146603 239.211872 
L 381.885734 239.211872 
z
" clip-path="url(#p5f58c70c45)" style="fill: #66c2a5"/>
   </g>
   <g id="patch_17">
    <path d="M 430.407473 299.518125 
L 454.668342 299.518125 
L 454.668342 207.433881 
L 430.407473 207.433881 
z
" clip-path="url(#p5f58c70c45)" style="fill: #66c2a5"/>
   </g>
   <g id="patch_18">
    <path d="M 478.929212 299.518125 
L 503.190082 299.518125 
L 503.190082 289.897584 
L 478.929212 289.897584 
z
" clip-path="url(#p5f58c70c45)" style="fill: #66c2a5"/>
   </g>
   <g id="patch_19">
    <path d="M 527.450951 299.518125 
L 551.711821 299.518125 
L 551.711821 282.540699 
L 527.450951 282.540699 
z
" clip-path="url(#p5f58c70c45)" style="fill: #66c2a5"/>
   </g>
   <g id="matplotlib.axis_3">
    <g id="xtick_6">
     <g id="line2d_12">
      <g>
       <use xlink:href="#m03566feefe" x="345.494429" y="299.518125" style="stroke: #000000; stroke-width: 0.8"/>
      </g>
     </g>
     <g id="text_14">
      <!-- accuracy -->
      <g transform="translate(348.253804 351.636875) rotate(-90) scale(0.1 -0.1)">
       <use xlink:href="#DejaVuSans-61"/>
       <use xlink:href="#DejaVuSans-63" x="61.279297"/>
       <use xlink:href="#DejaVuSans-63" x="116.259766"/>
       <use xlink:href="#DejaVuSans-75" x="171.240234"/>
       <use xlink:href="#DejaVuSans-72" x="234.619141"/>
       <use xlink:href="#DejaVuSans-61" x="275.732422"/>
       <use xlink:href="#DejaVuSans-63" x="337.011719"/>
       <use xlink:href="#DejaVuSans-79" x="391.992188"/>
      </g>
     </g>
    </g>
    <g id="xtick_7">
     <g id="line2d_13">
      <g>
       <use xlink:href="#m03566feefe" x="394.016168" y="299.518125" style="stroke: #000000; stroke-width: 0.8"/>
      </g>
     </g>
     <g id="text_15">
      <!-- precision -->
      <g transform="translate(396.775543 351.625938) rotate(-90) scale(0.1 -0.1)">
       <use xlink:href="#DejaVuSans-70"/>
       <use xlink:href="#DejaVuSans-72" x="63.476562"/>
       <use xlink:href="#DejaVuSans-65" x="102.339844"/>
       <use xlink:href="#DejaVuSans-63" x="163.863281"/>
       <use xlink:href="#DejaVuSans-69" x="218.84375"/>
       <use xlink:href="#DejaVuSans-73" x="246.626953"/>
       <use xlink:href="#DejaVuSans-69" x="298.726562"/>
       <use xlink:href="#DejaVuSans-6f" x="326.509766"/>
       <use xlink:href="#DejaVuSans-6e" x="387.691406"/>
      </g>
     </g>
    </g>
    <g id="xtick_8">
     <g id="line2d_14">
      <g>
       <use xlink:href="#m03566feefe" x="442.537908" y="299.518125" style="stroke: #000000; stroke-width: 0.8"/>
      </g>
     </g>
     <g id="text_16">
      <!-- recall -->
      <g transform="translate(445.297283 333.74) rotate(-90) scale(0.1 -0.1)">
       <use xlink:href="#DejaVuSans-72"/>
       <use xlink:href="#DejaVuSans-65" x="38.863281"/>
       <use xlink:href="#DejaVuSans-63" x="100.386719"/>
       <use xlink:href="#DejaVuSans-61" x="155.367188"/>
       <use xlink:href="#DejaVuSans-6c" x="216.646484"/>
       <use xlink:href="#DejaVuSans-6c" x="244.429688"/>
      </g>
     </g>
    </g>
    <g id="xtick_9">
     <g id="line2d_15">
      <g>
       <use xlink:href="#m03566feefe" x="491.059647" y="299.518125" style="stroke: #000000; stroke-width: 0.8"/>
      </g>
     </g>
     <g id="text_17">
      <!-- f1_score -->
      <g transform="translate(493.679959 348.266563) rotate(-90) scale(0.1 -0.1)">
       <use xlink:href="#DejaVuSans-66"/>
       <use xlink:href="#DejaVuSans-31" x="35.205078"/>
       <use xlink:href="#DejaVuSans-5f" x="98.828125"/>
       <use xlink:href="#DejaVuSans-73" x="148.828125"/>
       <use xlink:href="#DejaVuSans-63" x="200.927734"/>
       <use xlink:href="#DejaVuSans-6f" x="255.908203"/>
       <use xlink:href="#DejaVuSans-72" x="317.089844"/>
       <use xlink:href="#DejaVuSans-65" x="355.953125"/>
      </g>
     </g>
    </g>
    <g id="xtick_10">
     <g id="line2d_16">
      <g>
       <use xlink:href="#m03566feefe" x="539.581386" y="299.518125" style="stroke: #000000; stroke-width: 0.8"/>
      </g>
     </g>
     <g id="text_18">
      <!-- f1_micro -->
      <g transform="translate(542.201698 349.422813) rotate(-90) scale(0.1 -0.1)">
       <use xlink:href="#DejaVuSans-66"/>
       <use xlink:href="#DejaVuSans-31" x="35.205078"/>
       <use xlink:href="#DejaVuSans-5f" x="98.828125"/>
       <use xlink:href="#DejaVuSans-6d" x="148.828125"/>
       <use xlink:href="#DejaVuSans-69" x="246.240234"/>
       <use xlink:href="#DejaVuSans-63" x="274.023438"/>
       <use xlink:href="#DejaVuSans-72" x="329.003906"/>
       <use xlink:href="#DejaVuSans-6f" x="367.867188"/>
      </g>
     </g>
    </g>
   </g>
   <g id="matplotlib.axis_4">
    <g id="ytick_7">
     <g id="line2d_17">
      <g>
       <use xlink:href="#mf7390865d4" x="321.23356" y="299.518125" style="stroke: #000000; stroke-width: 0.8"/>
      </g>
     </g>
    </g>
    <g id="ytick_8">
     <g id="line2d_18">
      <g>
       <use xlink:href="#mf7390865d4" x="321.23356" y="244.274517" style="stroke: #000000; stroke-width: 0.8"/>
      </g>
     </g>
    </g>
    <g id="ytick_9">
     <g id="line2d_19">
      <g>
       <use xlink:href="#mf7390865d4" x="321.23356" y="189.030909" style="stroke: #000000; stroke-width: 0.8"/>
      </g>
     </g>
    </g>
    <g id="ytick_10">
     <g id="line2d_20">
      <g>
       <use xlink:href="#mf7390865d4" x="321.23356" y="133.787302" style="stroke: #000000; stroke-width: 0.8"/>
      </g>
     </g>
    </g>
    <g id="ytick_11">
     <g id="line2d_21">
      <g>
       <use xlink:href="#mf7390865d4" x="321.23356" y="78.543694" style="stroke: #000000; stroke-width: 0.8"/>
      </g>
     </g>
    </g>
    <g id="ytick_12">
     <g id="line2d_22">
      <g>
       <use xlink:href="#mf7390865d4" x="321.23356" y="23.300086" style="stroke: #000000; stroke-width: 0.8"/>
      </g>
     </g>
    </g>
   </g>
   <g id="patch_20">
    <path d="M 321.23356 299.518125 
L 321.23356 22.318125 
" style="fill: none; stroke: #000000; stroke-width: 0.8; stroke-linejoin: miter; stroke-linecap: square"/>
   </g>
   <g id="patch_21">
    <path d="M 563.842255 299.518125 
L 563.842255 22.318125 
" style="fill: none; stroke: #000000; stroke-width: 0.8; stroke-linejoin: miter; stroke-linecap: square"/>
   </g>
   <g id="patch_22">
    <path d="M 321.23356 299.518125 
L 563.842255 299.518125 
" style="fill: none; stroke: #000000; stroke-width: 0.8; stroke-linejoin: miter; stroke-linecap: square"/>
   </g>
   <g id="patch_23">
    <path d="M 321.23356 22.318125 
L 563.842255 22.318125 
" style="fill: none; stroke: #000000; stroke-width: 0.8; stroke-linejoin: miter; stroke-linecap: square"/>
   </g>
   <g id="text_19">
    <!-- H-LSTM -->
    <g transform="translate(419.867283 16.318125) scale(0.12 -0.12)">
     <defs>
      <path id="DejaVuSans-48" d="M 628 4666 
L 1259 4666 
L 1259 2753 
L 3553 2753 
L 3553 4666 
L 4184 4666 
L 4184 0 
L 3553 0 
L 3553 2222 
L 1259 2222 
L 1259 0 
L 628 0 
L 628 4666 
z
" transform="scale(0.015625)"/>
     </defs>
     <use xlink:href="#DejaVuSans-48"/>
     <use xlink:href="#DejaVuSans-2d" x="75.195312"/>
     <use xlink:href="#DejaVuSans-4c" x="111.279297"/>
     <use xlink:href="#DejaVuSans-53" x="166.992188"/>
     <use xlink:href="#DejaVuSans-54" x="230.46875"/>
     <use xlink:href="#DejaVuSans-4d" x="291.552734"/>
    </g>
   </g>
   <g id="legend_2">
    <g id="patch_24">
     <path d="M 497.97663 44.99625 
L 556.842255 44.99625 
Q 558.842255 44.99625 558.842255 42.99625 
L 558.842255 29.318125 
Q 558.842255 27.318125 556.842255 27.318125 
L 497.97663 27.318125 
Q 495.97663 27.318125 495.97663 29.318125 
L 495.97663 42.99625 
Q 495.97663 44.99625 497.97663 44.99625 
z
" style="fill: #ffffff; opacity: 0.8; stroke: #cccccc; stroke-linejoin: miter"/>
    </g>
    <g id="patch_25">
     <path d="M 499.97663 38.916563 
L 519.97663 38.916563 
L 519.97663 31.916563 
L 499.97663 31.916563 
z
" style="fill: #66c2a5"/>
    </g>
    <g id="text_20">
     <!-- score -->
     <g transform="translate(527.97663 38.916563) scale(0.1 -0.1)">
      <use xlink:href="#DejaVuSans-73"/>
      <use xlink:href="#DejaVuSans-63" x="52.099609"/>
      <use xlink:href="#DejaVuSans-6f" x="107.080078"/>
      <use xlink:href="#DejaVuSans-72" x="168.261719"/>
      <use xlink:href="#DejaVuSans-65" x="207.125"/>
     </g>
    </g>
   </g>
  </g>
  <g id="axes_3">
   <g id="patch_26">
    <path d="M 612.363995 299.518125 
L 854.97269 299.518125 
L 854.97269 22.318125 
L 612.363995 22.318125 
z
" style="fill: #ffffff"/>
   </g>
   <g id="patch_27">
    <path d="M 624.494429 299.518125 
L 648.755299 299.518125 
L 648.755299 44.570188 
L 624.494429 44.570188 
z
" clip-path="url(#pafe62aa042)" style="fill: #66c2a5"/>
   </g>
   <g id="patch_28">
    <path d="M 673.016168 299.518125 
L 697.277038 299.518125 
L 697.277038 130.854067 
L 673.016168 130.854067 
z
" clip-path="url(#pafe62aa042)" style="fill: #66c2a5"/>
   </g>
   <g id="patch_29">
    <path d="M 721.537908 299.518125 
L 745.798777 299.518125 
L 745.798777 162.056795 
L 721.537908 162.056795 
z
" clip-path="url(#pafe62aa042)" style="fill: #66c2a5"/>
   </g>
   <g id="patch_30">
    <path d="M 770.059647 299.518125 
L 794.320516 299.518125 
L 794.320516 155.09605 
L 770.059647 155.09605 
z
" clip-path="url(#pafe62aa042)" style="fill: #66c2a5"/>
   </g>
   <g id="patch_31">
    <path d="M 818.581386 299.518125 
L 842.842255 299.518125 
L 842.842255 93.200875 
L 818.581386 93.200875 
z
" clip-path="url(#pafe62aa042)" style="fill: #66c2a5"/>
   </g>
   <g id="matplotlib.axis_5">
    <g id="xtick_11">
     <g id="line2d_23">
      <g>
       <use xlink:href="#m03566feefe" x="636.624864" y="299.518125" style="stroke: #000000; stroke-width: 0.8"/>
      </g>
     </g>
     <g id="text_21">
      <!-- accuracy -->
      <g transform="translate(639.384239 351.636875) rotate(-90) scale(0.1 -0.1)">
       <use xlink:href="#DejaVuSans-61"/>
       <use xlink:href="#DejaVuSans-63" x="61.279297"/>
       <use xlink:href="#DejaVuSans-63" x="116.259766"/>
       <use xlink:href="#DejaVuSans-75" x="171.240234"/>
       <use xlink:href="#DejaVuSans-72" x="234.619141"/>
       <use xlink:href="#DejaVuSans-61" x="275.732422"/>
       <use xlink:href="#DejaVuSans-63" x="337.011719"/>
       <use xlink:href="#DejaVuSans-79" x="391.992188"/>
      </g>
     </g>
    </g>
    <g id="xtick_12">
     <g id="line2d_24">
      <g>
       <use xlink:href="#m03566feefe" x="685.146603" y="299.518125" style="stroke: #000000; stroke-width: 0.8"/>
      </g>
     </g>
     <g id="text_22">
      <!-- precision -->
      <g transform="translate(687.905978 351.625938) rotate(-90) scale(0.1 -0.1)">
       <use xlink:href="#DejaVuSans-70"/>
       <use xlink:href="#DejaVuSans-72" x="63.476562"/>
       <use xlink:href="#DejaVuSans-65" x="102.339844"/>
       <use xlink:href="#DejaVuSans-63" x="163.863281"/>
       <use xlink:href="#DejaVuSans-69" x="218.84375"/>
       <use xlink:href="#DejaVuSans-73" x="246.626953"/>
       <use xlink:href="#DejaVuSans-69" x="298.726562"/>
       <use xlink:href="#DejaVuSans-6f" x="326.509766"/>
       <use xlink:href="#DejaVuSans-6e" x="387.691406"/>
      </g>
     </g>
    </g>
    <g id="xtick_13">
     <g id="line2d_25">
      <g>
       <use xlink:href="#m03566feefe" x="733.668342" y="299.518125" style="stroke: #000000; stroke-width: 0.8"/>
      </g>
     </g>
     <g id="text_23">
      <!-- recall -->
      <g transform="translate(736.427717 333.74) rotate(-90) scale(0.1 -0.1)">
       <use xlink:href="#DejaVuSans-72"/>
       <use xlink:href="#DejaVuSans-65" x="38.863281"/>
       <use xlink:href="#DejaVuSans-63" x="100.386719"/>
       <use xlink:href="#DejaVuSans-61" x="155.367188"/>
       <use xlink:href="#DejaVuSans-6c" x="216.646484"/>
       <use xlink:href="#DejaVuSans-6c" x="244.429688"/>
      </g>
     </g>
    </g>
    <g id="xtick_14">
     <g id="line2d_26">
      <g>
       <use xlink:href="#m03566feefe" x="782.190082" y="299.518125" style="stroke: #000000; stroke-width: 0.8"/>
      </g>
     </g>
     <g id="text_24">
      <!-- f1_score -->
      <g transform="translate(784.810394 348.266563) rotate(-90) scale(0.1 -0.1)">
       <use xlink:href="#DejaVuSans-66"/>
       <use xlink:href="#DejaVuSans-31" x="35.205078"/>
       <use xlink:href="#DejaVuSans-5f" x="98.828125"/>
       <use xlink:href="#DejaVuSans-73" x="148.828125"/>
       <use xlink:href="#DejaVuSans-63" x="200.927734"/>
       <use xlink:href="#DejaVuSans-6f" x="255.908203"/>
       <use xlink:href="#DejaVuSans-72" x="317.089844"/>
       <use xlink:href="#DejaVuSans-65" x="355.953125"/>
      </g>
     </g>
    </g>
    <g id="xtick_15">
     <g id="line2d_27">
      <g>
       <use xlink:href="#m03566feefe" x="830.711821" y="299.518125" style="stroke: #000000; stroke-width: 0.8"/>
      </g>
     </g>
     <g id="text_25">
      <!-- f1_micro -->
      <g transform="translate(833.332133 349.422813) rotate(-90) scale(0.1 -0.1)">
       <use xlink:href="#DejaVuSans-66"/>
       <use xlink:href="#DejaVuSans-31" x="35.205078"/>
       <use xlink:href="#DejaVuSans-5f" x="98.828125"/>
       <use xlink:href="#DejaVuSans-6d" x="148.828125"/>
       <use xlink:href="#DejaVuSans-69" x="246.240234"/>
       <use xlink:href="#DejaVuSans-63" x="274.023438"/>
       <use xlink:href="#DejaVuSans-72" x="329.003906"/>
       <use xlink:href="#DejaVuSans-6f" x="367.867188"/>
      </g>
     </g>
    </g>
   </g>
   <g id="matplotlib.axis_6">
    <g id="ytick_13">
     <g id="line2d_28">
      <g>
       <use xlink:href="#mf7390865d4" x="612.363995" y="299.518125" style="stroke: #000000; stroke-width: 0.8"/>
      </g>
     </g>
    </g>
    <g id="ytick_14">
     <g id="line2d_29">
      <g>
       <use xlink:href="#mf7390865d4" x="612.363995" y="244.274517" style="stroke: #000000; stroke-width: 0.8"/>
      </g>
     </g>
    </g>
    <g id="ytick_15">
     <g id="line2d_30">
      <g>
       <use xlink:href="#mf7390865d4" x="612.363995" y="189.030909" style="stroke: #000000; stroke-width: 0.8"/>
      </g>
     </g>
    </g>
    <g id="ytick_16">
     <g id="line2d_31">
      <g>
       <use xlink:href="#mf7390865d4" x="612.363995" y="133.787302" style="stroke: #000000; stroke-width: 0.8"/>
      </g>
     </g>
    </g>
    <g id="ytick_17">
     <g id="line2d_32">
      <g>
       <use xlink:href="#mf7390865d4" x="612.363995" y="78.543694" style="stroke: #000000; stroke-width: 0.8"/>
      </g>
     </g>
    </g>
    <g id="ytick_18">
     <g id="line2d_33">
      <g>
       <use xlink:href="#mf7390865d4" x="612.363995" y="23.300086" style="stroke: #000000; stroke-width: 0.8"/>
      </g>
     </g>
    </g>
   </g>
   <g id="patch_32">
    <path d="M 612.363995 299.518125 
L 612.363995 22.318125 
" style="fill: none; stroke: #000000; stroke-width: 0.8; stroke-linejoin: miter; stroke-linecap: square"/>
   </g>
   <g id="patch_33">
    <path d="M 854.97269 299.518125 
L 854.97269 22.318125 
" style="fill: none; stroke: #000000; stroke-width: 0.8; stroke-linejoin: miter; stroke-linecap: square"/>
   </g>
   <g id="patch_34">
    <path d="M 612.363995 299.518125 
L 854.97269 299.518125 
" style="fill: none; stroke: #000000; stroke-width: 0.8; stroke-linejoin: miter; stroke-linecap: square"/>
   </g>
   <g id="patch_35">
    <path d="M 612.363995 22.318125 
L 854.97269 22.318125 
" style="fill: none; stroke: #000000; stroke-width: 0.8; stroke-linejoin: miter; stroke-linecap: square"/>
   </g>
   <g id="text_26">
    <!-- DNN -->
    <g transform="translate(720.070842 16.318125) scale(0.12 -0.12)">
     <defs>
      <path id="DejaVuSans-44" d="M 1259 4147 
L 1259 519 
L 2022 519 
Q 2988 519 3436 956 
Q 3884 1394 3884 2338 
Q 3884 3275 3436 3711 
Q 2988 4147 2022 4147 
L 1259 4147 
z
M 628 4666 
L 1925 4666 
Q 3281 4666 3915 4102 
Q 4550 3538 4550 2338 
Q 4550 1131 3912 565 
Q 3275 0 1925 0 
L 628 0 
L 628 4666 
z
" transform="scale(0.015625)"/>
      <path id="DejaVuSans-4e" d="M 628 4666 
L 1478 4666 
L 3547 763 
L 3547 4666 
L 4159 4666 
L 4159 0 
L 3309 0 
L 1241 3903 
L 1241 0 
L 628 0 
L 628 4666 
z
" transform="scale(0.015625)"/>
     </defs>
     <use xlink:href="#DejaVuSans-44"/>
     <use xlink:href="#DejaVuSans-4e" x="77.001953"/>
     <use xlink:href="#DejaVuSans-4e" x="151.806641"/>
    </g>
   </g>
   <g id="legend_3">
    <g id="patch_36">
     <path d="M 789.107065 44.99625 
L 847.97269 44.99625 
Q 849.97269 44.99625 849.97269 42.99625 
L 849.97269 29.318125 
Q 849.97269 27.318125 847.97269 27.318125 
L 789.107065 27.318125 
Q 787.107065 27.318125 787.107065 29.318125 
L 787.107065 42.99625 
Q 787.107065 44.99625 789.107065 44.99625 
z
" style="fill: #ffffff; opacity: 0.8; stroke: #cccccc; stroke-linejoin: miter"/>
    </g>
    <g id="patch_37">
     <path d="M 791.107065 38.916563 
L 811.107065 38.916563 
L 811.107065 31.916563 
L 791.107065 31.916563 
z
" style="fill: #66c2a5"/>
    </g>
    <g id="text_27">
     <!-- score -->
     <g transform="translate(819.107065 38.916563) scale(0.1 -0.1)">
      <use xlink:href="#DejaVuSans-73"/>
      <use xlink:href="#DejaVuSans-63" x="52.099609"/>
      <use xlink:href="#DejaVuSans-6f" x="107.080078"/>
      <use xlink:href="#DejaVuSans-72" x="168.261719"/>
      <use xlink:href="#DejaVuSans-65" x="207.125"/>
     </g>
    </g>
   </g>
  </g>
  <g id="axes_4">
   <g id="patch_38">
    <path d="M 903.494429 299.518125 
L 1146.103125 299.518125 
L 1146.103125 22.318125 
L 903.494429 22.318125 
z
" style="fill: #ffffff"/>
   </g>
   <g id="patch_39">
    <path d="M 915.624864 299.518125 
L 939.885734 299.518125 
L 939.885734 35.518125 
L 915.624864 35.518125 
z
" clip-path="url(#p46ea4022f2)" style="fill: #66c2a5"/>
   </g>
   <g id="patch_40">
    <path d="M 964.146603 299.518125 
L 988.407473 299.518125 
L 988.407473 42.081671 
L 964.146603 42.081671 
z
" clip-path="url(#p46ea4022f2)" style="fill: #66c2a5"/>
   </g>
   <g id="patch_41">
    <path d="M 1012.668342 299.518125 
L 1036.929212 299.518125 
L 1036.929212 79.191384 
L 1012.668342 79.191384 
z
" clip-path="url(#p46ea4022f2)" style="fill: #66c2a5"/>
   </g>
   <g id="patch_42">
    <path d="M 1061.190082 299.518125 
L 1085.450951 299.518125 
L 1085.450951 57.447673 
L 1061.190082 57.447673 
z
" clip-path="url(#p46ea4022f2)" style="fill: #66c2a5"/>
   </g>
   <g id="patch_43">
    <path d="M 1109.711821 299.518125 
L 1133.97269 299.518125 
L 1133.97269 85.386607 
L 1109.711821 85.386607 
z
" clip-path="url(#p46ea4022f2)" style="fill: #66c2a5"/>
   </g>
   <g id="matplotlib.axis_7">
    <g id="xtick_16">
     <g id="line2d_34">
      <g>
       <use xlink:href="#m03566feefe" x="927.755299" y="299.518125" style="stroke: #000000; stroke-width: 0.8"/>
      </g>
     </g>
     <g id="text_28">
      <!-- accuracy -->
      <g transform="translate(930.514674 351.636875) rotate(-90) scale(0.1 -0.1)">
       <use xlink:href="#DejaVuSans-61"/>
       <use xlink:href="#DejaVuSans-63" x="61.279297"/>
       <use xlink:href="#DejaVuSans-63" x="116.259766"/>
       <use xlink:href="#DejaVuSans-75" x="171.240234"/>
       <use xlink:href="#DejaVuSans-72" x="234.619141"/>
       <use xlink:href="#DejaVuSans-61" x="275.732422"/>
       <use xlink:href="#DejaVuSans-63" x="337.011719"/>
       <use xlink:href="#DejaVuSans-79" x="391.992188"/>
      </g>
     </g>
    </g>
    <g id="xtick_17">
     <g id="line2d_35">
      <g>
       <use xlink:href="#m03566feefe" x="976.277038" y="299.518125" style="stroke: #000000; stroke-width: 0.8"/>
      </g>
     </g>
     <g id="text_29">
      <!-- precision -->
      <g transform="translate(979.036413 351.625938) rotate(-90) scale(0.1 -0.1)">
       <use xlink:href="#DejaVuSans-70"/>
       <use xlink:href="#DejaVuSans-72" x="63.476562"/>
       <use xlink:href="#DejaVuSans-65" x="102.339844"/>
       <use xlink:href="#DejaVuSans-63" x="163.863281"/>
       <use xlink:href="#DejaVuSans-69" x="218.84375"/>
       <use xlink:href="#DejaVuSans-73" x="246.626953"/>
       <use xlink:href="#DejaVuSans-69" x="298.726562"/>
       <use xlink:href="#DejaVuSans-6f" x="326.509766"/>
       <use xlink:href="#DejaVuSans-6e" x="387.691406"/>
      </g>
     </g>
    </g>
    <g id="xtick_18">
     <g id="line2d_36">
      <g>
       <use xlink:href="#m03566feefe" x="1024.798777" y="299.518125" style="stroke: #000000; stroke-width: 0.8"/>
      </g>
     </g>
     <g id="text_30">
      <!-- recall -->
      <g transform="translate(1027.558152 333.74) rotate(-90) scale(0.1 -0.1)">
       <use xlink:href="#DejaVuSans-72"/>
       <use xlink:href="#DejaVuSans-65" x="38.863281"/>
       <use xlink:href="#DejaVuSans-63" x="100.386719"/>
       <use xlink:href="#DejaVuSans-61" x="155.367188"/>
       <use xlink:href="#DejaVuSans-6c" x="216.646484"/>
       <use xlink:href="#DejaVuSans-6c" x="244.429688"/>
      </g>
     </g>
    </g>
    <g id="xtick_19">
     <g id="line2d_37">
      <g>
       <use xlink:href="#m03566feefe" x="1073.320516" y="299.518125" style="stroke: #000000; stroke-width: 0.8"/>
      </g>
     </g>
     <g id="text_31">
      <!-- f1_score -->
      <g transform="translate(1075.940829 348.266563) rotate(-90) scale(0.1 -0.1)">
       <use xlink:href="#DejaVuSans-66"/>
       <use xlink:href="#DejaVuSans-31" x="35.205078"/>
       <use xlink:href="#DejaVuSans-5f" x="98.828125"/>
       <use xlink:href="#DejaVuSans-73" x="148.828125"/>
       <use xlink:href="#DejaVuSans-63" x="200.927734"/>
       <use xlink:href="#DejaVuSans-6f" x="255.908203"/>
       <use xlink:href="#DejaVuSans-72" x="317.089844"/>
       <use xlink:href="#DejaVuSans-65" x="355.953125"/>
      </g>
     </g>
    </g>
    <g id="xtick_20">
     <g id="line2d_38">
      <g>
       <use xlink:href="#m03566feefe" x="1121.842255" y="299.518125" style="stroke: #000000; stroke-width: 0.8"/>
      </g>
     </g>
     <g id="text_32">
      <!-- f1_micro -->
      <g transform="translate(1124.462568 349.422813) rotate(-90) scale(0.1 -0.1)">
       <use xlink:href="#DejaVuSans-66"/>
       <use xlink:href="#DejaVuSans-31" x="35.205078"/>
       <use xlink:href="#DejaVuSans-5f" x="98.828125"/>
       <use xlink:href="#DejaVuSans-6d" x="148.828125"/>
       <use xlink:href="#DejaVuSans-69" x="246.240234"/>
       <use xlink:href="#DejaVuSans-63" x="274.023438"/>
       <use xlink:href="#DejaVuSans-72" x="329.003906"/>
       <use xlink:href="#DejaVuSans-6f" x="367.867188"/>
      </g>
     </g>
    </g>
   </g>
   <g id="matplotlib.axis_8">
    <g id="ytick_19">
     <g id="line2d_39">
      <g>
       <use xlink:href="#mf7390865d4" x="903.494429" y="299.518125" style="stroke: #000000; stroke-width: 0.8"/>
      </g>
     </g>
    </g>
    <g id="ytick_20">
     <g id="line2d_40">
      <g>
       <use xlink:href="#mf7390865d4" x="903.494429" y="244.274517" style="stroke: #000000; stroke-width: 0.8"/>
      </g>
     </g>
    </g>
    <g id="ytick_21">
     <g id="line2d_41">
      <g>
       <use xlink:href="#mf7390865d4" x="903.494429" y="189.030909" style="stroke: #000000; stroke-width: 0.8"/>
      </g>
     </g>
    </g>
    <g id="ytick_22">
     <g id="line2d_42">
      <g>
       <use xlink:href="#mf7390865d4" x="903.494429" y="133.787302" style="stroke: #000000; stroke-width: 0.8"/>
      </g>
     </g>
    </g>
    <g id="ytick_23">
     <g id="line2d_43">
      <g>
       <use xlink:href="#mf7390865d4" x="903.494429" y="78.543694" style="stroke: #000000; stroke-width: 0.8"/>
      </g>
     </g>
    </g>
    <g id="ytick_24">
     <g id="line2d_44">
      <g>
       <use xlink:href="#mf7390865d4" x="903.494429" y="23.300086" style="stroke: #000000; stroke-width: 0.8"/>
      </g>
     </g>
    </g>
   </g>
   <g id="patch_44">
    <path d="M 903.494429 299.518125 
L 903.494429 22.318125 
" style="fill: none; stroke: #000000; stroke-width: 0.8; stroke-linejoin: miter; stroke-linecap: square"/>
   </g>
   <g id="patch_45">
    <path d="M 1146.103125 299.518125 
L 1146.103125 22.318125 
" style="fill: none; stroke: #000000; stroke-width: 0.8; stroke-linejoin: miter; stroke-linecap: square"/>
   </g>
   <g id="patch_46">
    <path d="M 903.494429 299.518125 
L 1146.103125 299.518125 
" style="fill: none; stroke: #000000; stroke-width: 0.8; stroke-linejoin: miter; stroke-linecap: square"/>
   </g>
   <g id="patch_47">
    <path d="M 903.494429 22.318125 
L 1146.103125 22.318125 
" style="fill: none; stroke: #000000; stroke-width: 0.8; stroke-linejoin: miter; stroke-linecap: square"/>
   </g>
   <g id="text_33">
    <!-- DFL -->
    <g transform="translate(1013.384715 16.318125) scale(0.12 -0.12)">
     <defs>
      <path id="DejaVuSans-46" d="M 628 4666 
L 3309 4666 
L 3309 4134 
L 1259 4134 
L 1259 2759 
L 3109 2759 
L 3109 2228 
L 1259 2228 
L 1259 0 
L 628 0 
L 628 4666 
z
" transform="scale(0.015625)"/>
     </defs>
     <use xlink:href="#DejaVuSans-44"/>
     <use xlink:href="#DejaVuSans-46" x="77.001953"/>
     <use xlink:href="#DejaVuSans-4c" x="134.521484"/>
    </g>
   </g>
   <g id="legend_4">
    <g id="patch_48">
     <path d="M 1080.2375 44.99625 
L 1139.103125 44.99625 
Q 1141.103125 44.99625 1141.103125 42.99625 
L 1141.103125 29.318125 
Q 1141.103125 27.318125 1139.103125 27.318125 
L 1080.2375 27.318125 
Q 1078.2375 27.318125 1078.2375 29.318125 
L 1078.2375 42.99625 
Q 1078.2375 44.99625 1080.2375 44.99625 
z
" style="fill: #ffffff; opacity: 0.8; stroke: #cccccc; stroke-linejoin: miter"/>
    </g>
    <g id="patch_49">
     <path d="M 1082.2375 38.916563 
L 1102.2375 38.916563 
L 1102.2375 31.916563 
L 1082.2375 31.916563 
z
" style="fill: #66c2a5"/>
    </g>
    <g id="text_34">
     <!-- score -->
     <g transform="translate(1110.2375 38.916563) scale(0.1 -0.1)">
      <use xlink:href="#DejaVuSans-73"/>
      <use xlink:href="#DejaVuSans-63" x="52.099609"/>
      <use xlink:href="#DejaVuSans-6f" x="107.080078"/>
      <use xlink:href="#DejaVuSans-72" x="168.261719"/>
      <use xlink:href="#DejaVuSans-65" x="207.125"/>
     </g>
    </g>
   </g>
  </g>
 </g>
 <defs>
  <clipPath id="p9eac054755">
   <rect x="30.103125" y="22.318125" width="242.608696" height="277.2"/>
  </clipPath>
  <clipPath id="p5f58c70c45">
   <rect x="321.23356" y="22.318125" width="242.608696" height="277.2"/>
  </clipPath>
  <clipPath id="pafe62aa042">
   <rect x="612.363995" y="22.318125" width="242.608696" height="277.2"/>
  </clipPath>
  <clipPath id="p46ea4022f2">
   <rect x="903.494429" y="22.318125" width="242.608696" height="277.2"/>
  </clipPath>
 </defs>
</svg>
