<svg xmlns="http://www.w3.org/2000/svg" xmlns:xlink="http://www.w3.org/1999/xlink" version="1.1" class="marks" width="456" height="364" viewBox="0 0 456 364"><rect width="456" height="364" fill="white"/><g fill="none" stroke-miterlimit="10" transform="translate(59,27)"><g class="mark-group role-frame root" role="graphics-object" aria-roledescription="group mark container"><g transform="translate(0,0)"><path class="background" aria-hidden="true" d="M0.5,0.5h300v300h-300Z" stroke="#ddd"/><g><g class="mark-group role-axis" aria-hidden="true"><g transform="translate(0.5,300.5)"><path class="background" aria-hidden="true" d="M0,0h0v0h0Z" pointer-events="none"/><g><g class="mark-rule role-axis-grid" pointer-events="none"><line transform="translate(58,-300)" x2="0" y2="300" stroke="#ddd" stroke-width="1" opacity="1"/><line transform="translate(104,-300)" x2="0" y2="300" stroke="#ddd" stroke-width="1" opacity="1"/><line transform="translate(151,-300)" x2="0" y2="300" stroke="#ddd" stroke-width="1" opacity="1"/><line transform="translate(197,-300)" x2="0" y2="300" stroke="#ddd" stroke-width="1" opacity="1"/><line transform="translate(243,-300)" x2="0" y2="300" stroke="#ddd" stroke-width="1" opacity="1"/><line transform="translate(12,-300)" x2="0" y2="300" stroke="#ddd" stroke-width="1" opacity="1"/><line transform="translate(289,-300)" x2="0" y2="300" stroke="#ddd" stroke-width="1" opacity="1"/></g></g><path class="foreground" aria-hidden="true" d="" pointer-events="none" display="none"/></g></g><g class="mark-group role-axis" aria-hidden="true"><g transform="translate(0.5,0.5)"><path class="background" aria-hidden="true" d="M0,0h0v0h0Z" pointer-events="none"/><g><g class="mark-rule role-axis-grid" pointer-events="none"><line transform="translate(0,231)" x2="300" y2="0" stroke="#ddd" stroke-width="1" opacity="1"/><line transform="translate(0,185)" x2="300" y2="0" stroke="#ddd" stroke-width="1" opacity="1"/><line transform="translate(0,139)" x2="300" y2="0" stroke="#ddd" stroke-width="1" opacity="1"/><line transform="translate(0,93)" x2="300" y2="0" stroke="#ddd" stroke-width="1" opacity="1"/><line transform="translate(0,47)" x2="300" y2="0" stroke="#ddd" stroke-width="1" opacity="1"/><line transform="translate(0,1)" x2="300" y2="0" stroke="#ddd" stroke-width="1" opacity="1"/><line transform="translate(0,278)" x2="300" y2="0" stroke="#ddd" stroke-width="1" opacity="1"/></g></g><path class="foreground" aria-hidden="true" d="" pointer-events="none" display="none"/></g></g><g class="mark-group role-axis" role="graphics-symbol" aria-roledescription="axis" aria-label="X-axis titled 'component 0 — 99.52%' for a linear scale with values from −0.5 to 0.8"><g transform="translate(0.5,300.5)"><path class="background" aria-hidden="true" d="M0,0h0v0h0Z" pointer-events="none"/><g><g class="mark-rule role-axis-tick" pointer-events="none"><line transform="translate(58,0)" x2="0" y2="5" stroke="#888" stroke-width="1" opacity="1"/><line transform="translate(104,0)" x2="0" y2="5" stroke="#888" stroke-width="1" opacity="1"/><line transform="translate(151,0)" x2="0" y2="5" stroke="#888" stroke-width="1" opacity="1"/><line transform="translate(197,0)" x2="0" y2="5" stroke="#888" stroke-width="1" opacity="1"/><line transform="translate(243,0)" x2="0" y2="5" stroke="#888" stroke-width="1" opacity="1"/><line transform="translate(12,0)" x2="0" y2="5" stroke="#888" stroke-width="1" opacity="1"/><line transform="translate(289,0)" x2="0" y2="5" stroke="#888" stroke-width="1" opacity="1"/></g><g class="mark-text role-axis-label" pointer-events="none"><text text-anchor="middle" transform="translate(58.30475761491443,15)" font-family="sans-serif" font-size="10px" fill="#000" opacity="1">−0.2</text><text text-anchor="middle" transform="translate(104.48033377412139,15)" font-family="sans-serif" font-size="10px" fill="#000" opacity="1">0.0</text><text text-anchor="middle" transform="translate(150.65590993332836,15)" font-family="sans-serif" font-size="10px" fill="#000" opacity="1">0.2</text><text text-anchor="middle" transform="translate(196.83148609253533,15)" font-family="sans-serif" font-size="10px" fill="#000" opacity="1">0.4</text><text text-anchor="middle" transform="translate(243.0070622517423,15)" font-family="sans-serif" font-size="10px" fill="#000" opacity="1">0.6</text><text text-anchor="middle" transform="translate(12.129181455707466,15)" font-family="sans-serif" font-size="10px" fill="#000" opacity="1">−0.4</text><text text-anchor="middle" transform="translate(289.18263841094927,15)" font-family="sans-serif" font-size="10px" fill="#000" opacity="1">0.8</text></g><g class="mark-rule role-axis-domain" pointer-events="none"><line transform="translate(0,0)" x2="300" y2="0" stroke="#888" stroke-width="1" opacity="1"/></g><g class="mark-text role-axis-title" pointer-events="none"><text text-anchor="middle" transform="translate(150,30)" font-family="sans-serif" font-size="11px" font-weight="bold" fill="#000" opacity="1">component 0 — 99.52%</text></g></g><path class="foreground" aria-hidden="true" d="" pointer-events="none" display="none"/></g></g><g class="mark-group role-axis" role="graphics-symbol" aria-roledescription="axis" aria-label="Y-axis titled 'component 1 — 0.46%' for a linear scale with values from −0.03 to 0.03"><g transform="translate(0.5,0.5)"><path class="background" aria-hidden="true" d="M0,0h0v0h0Z" pointer-events="none"/><g><g class="mark-rule role-axis-tick" pointer-events="none"><line transform="translate(0,231)" x2="-5" y2="0" stroke="#888" stroke-width="1" opacity="1"/><line transform="translate(0,185)" x2="-5" y2="0" stroke="#888" stroke-width="1" opacity="1"/><line transform="translate(0,139)" x2="-5" y2="0" stroke="#888" stroke-width="1" opacity="1"/><line transform="translate(0,93)" x2="-5" y2="0" stroke="#888" stroke-width="1" opacity="1"/><line transform="translate(0,47)" x2="-5" y2="0" stroke="#888" stroke-width="1" opacity="1"/><line transform="translate(0,1)" x2="-5" y2="0" stroke="#888" stroke-width="1" opacity="1"/><line transform="translate(0,278)" x2="-5" y2="0" stroke="#888" stroke-width="1" opacity="1"/></g><g class="mark-text role-axis-label" pointer-events="none"><text text-anchor="end" transform="translate(-7,234.44506101619402)" font-family="sans-serif" font-size="10px" fill="#000" opacity="1">−0.02</text><text text-anchor="end" transform="translate(-7,188.26948485698708)" font-family="sans-serif" font-size="10px" fill="#000" opacity="1">−0.01</text><text text-anchor="end" transform="translate(-7,142.09390869778008)" font-family="sans-serif" font-size="10px" fill="#000" opacity="1">0.00</text><text text-anchor="end" transform="translate(-7,95.91833253857308)" font-family="sans-serif" font-size="10px" fill="#000" opacity="1">0.01</text><text text-anchor="end" transform="translate(-7,49.742756379366135)" font-family="sans-serif" font-size="10px" fill="#000" opacity="1">0.02</text><text text-anchor="end" transform="translate(-7,3.567180220159147)" font-family="sans-serif" font-size="10px" fill="#000" opacity="1">0.03</text><text text-anchor="end" transform="translate(-7,280.620637175401)" font-family="sans-serif" font-size="10px" fill="#000" opacity="1">−0.03</text></g><g class="mark-rule role-axis-domain" pointer-events="none"><line transform="translate(0,300)" x2="0" y2="-300" stroke="#888" stroke-width="1" opacity="1"/></g><g class="mark-text role-axis-title" pointer-events="none"><text text-anchor="middle" transform="translate(-37.181640625,150) rotate(-90) translate(0,-2)" font-family="sans-serif" font-size="11px" font-weight="bold" fill="#000" opacity="1">component 1 — 0.46%</text></g></g><path class="foreground" aria-hidden="true" d="" pointer-events="none" display="none"/></g></g><g class="mark-rule role-mark layer_0_marks" clip-path="url(#clip6)" role="graphics-object" aria-roledescription="rule mark container" pointer-events="none"><line aria-label="x: 0; y: 0; x2: 0.246886194865; y2: 0.0156851073147; color: #889fbf" role="graphics-symbol" aria-roledescription="rule mark" transform="translate(104.48033377412139,139.09390869778008)" x2="57.00056146814495" y2="-72.42688673743554" stroke="#889fbf"/><line aria-label="x: 0; y: 0; x2: −0.336646863541; y2: −0.0173360643492; color: #889fbf" role="graphics-symbol" aria-roledescription="rule mark" transform="translate(104.48033377412139,139.09390869778008)" x2="-77.72431443108474" y2="80.05027596557514" stroke="#889fbf"/><line aria-label="x: 0; y: 0; x2: −0.266150060563; y2: 0.0181212600107; color: #889fbf" role="graphics-symbol" aria-roledescription="rule mark" transform="translate(104.48033377412139,139.09390869778008)" x2="-61.448161956489315" y2="-83.67596217251834" stroke="#889fbf"/><line aria-label="x: 0; y: 0; x2: 0.219033136351; y2: −0.0206957631743; color: #889fbf" role="graphics-symbol" aria-roledescription="rule mark" transform="translate(104.48033377412139,139.09390869778008)" x2="50.56990634489128" y2="95.56387886289127" stroke="#889fbf"/></g><g class="mark-symbol role-mark view_27_marks" clip-path="url(#clip7)" role="graphics-object" aria-roledescription="symbol mark container"><path aria-label="component 0: −0.0984501741469; component 1: −0.0141383530936; variable: model; value: DNN" role="graphics-symbol" aria-roledescription="circle" transform="translate(81.75036620307559,204.37856870150264)" d="M3.536,0A3.536,3.536,0,1,1,-3.536,0A3.536,3.536,0,1,1,3.536,0" fill="#f58518" stroke-width="2" opacity="0.7"/><path aria-label="component 0: −0.124663770556; component 1: −0.0135597535205; variable: model; value: DPL" role="graphics-symbol" aria-roledescription="circle" transform="translate(75.69822661617374,201.70685183650144)" d="M3.536,0A3.536,3.536,0,1,1,-3.536,0A3.536,3.536,0,1,1,3.536,0" fill="#f58518" stroke-width="2" opacity="0.7"/><path aria-label="component 0: 0.613240484438; component 1: 0.000629084373966; variable: model; value: H-LSTM" role="graphics-symbol" aria-roledescription="circle" transform="translate(246.06399723950568,136.18907535571705)" d="M3.536,0A3.536,3.536,0,1,1,-3.536,0A3.536,3.536,0,1,1,3.536,0" fill="#f58518" stroke-width="2" opacity="0.7"/><path aria-label="component 0: −0.12080688573; component 1: 0.0279387846234; variable: model; value: P-LSTM" role="graphics-symbol" aria-roledescription="circle" transform="translate(76.58869601111617,10.08496098031344)" d="M3.536,0A3.536,3.536,0,1,1,-3.536,0A3.536,3.536,0,1,1,3.536,0" fill="#f58518" stroke-width="2" opacity="0.7"/><path aria-label="component 0: 0.246886194865; component 1: 0.0156851073147; variable: attack_name; value: File_Inclusion" role="graphics-symbol" aria-roledescription="circle" transform="translate(161.48089524226634,66.66702196034454)" d="M3.536,0A3.536,3.536,0,1,1,-3.536,0A3.536,3.536,0,1,1,3.536,0" fill="#4c78a8" stroke-width="2" opacity="0.7"/><path aria-label="component 0: −0.336646863541; component 1: −0.0173360643492; variable: attack_name; value: PW_Attack" role="graphics-symbol" aria-roledescription="circle" transform="translate(26.756019343036655,219.14418466335522)" d="M3.536,0A3.536,3.536,0,1,1,-3.536,0A3.536,3.536,0,1,1,3.536,0" fill="#4c78a8" stroke-width="2" opacity="0.7"/><path aria-label="component 0: −0.266150060563; component 1: 0.0181212600107; variable: attack_name; value: SQLi" role="graphics-symbol" aria-roledescription="circle" transform="translate(43.032171817632076,55.41794652526174)" d="M3.536,0A3.536,3.536,0,1,1,-3.536,0A3.536,3.536,0,1,1,3.536,0" fill="#4c78a8" stroke-width="2" opacity="0.7"/><path aria-label="component 0: 0.219033136351; component 1: −0.0206957631743; variable: attack_name; value: XSS" role="graphics-symbol" aria-roledescription="circle" transform="translate(155.05024011901267,234.65778756067135)" d="M3.536,0A3.536,3.536,0,1,1,-3.536,0A3.536,3.536,0,1,1,3.536,0" fill="#4c78a8" stroke-width="2" opacity="0.7"/></g><g class="mark-text role-mark layer_2_marks" clip-path="url(#clip8)" role="graphics-object" aria-roledescription="text mark container" pointer-events="none"><text aria-label="x: 0.246886194865; y: 0.0156851073147; name: File_Inclusion" role="graphics-symbol" aria-roledescription="text mark" text-anchor="start" transform="translate(168.48089524226634,70.66702196034454)" font-family="sans-serif" font-size="12px" fill="black">File_Inclusion</text><text aria-label="x: −0.336646863541; y: −0.0173360643492; name: PW_Attack" role="graphics-symbol" aria-roledescription="text mark" text-anchor="start" transform="translate(33.756019343036655,223.14418466335522)" font-family="sans-serif" font-size="12px" fill="black">PW_Attack</text><text aria-label="x: −0.266150060563; y: 0.0181212600107; name: SQLi" role="graphics-symbol" aria-roledescription="text mark" text-anchor="start" transform="translate(50.032171817632076,59.41794652526174)" font-family="sans-serif" font-size="12px" fill="black">SQLi</text><text aria-label="x: 0.219033136351; y: −0.0206957631743; name: XSS" role="graphics-symbol" aria-roledescription="text mark" text-anchor="start" transform="translate(162.05024011901267,238.65778756067135)" font-family="sans-serif" font-size="12px" fill="black">XSS</text><text aria-label="x: −0.0984501741469; y: −0.0141383530936; name: DNN" role="graphics-symbol" aria-roledescription="text mark" text-anchor="start" transform="translate(88.75036620307559,208.37856870150264)" font-family="sans-serif" font-size="12px" fill="black">DNN</text><text aria-label="x: −0.124663770556; y: −0.0135597535205; name: DPL" role="graphics-symbol" aria-roledescription="text mark" text-anchor="start" transform="translate(82.69822661617374,205.70685183650144)" font-family="sans-serif" font-size="12px" fill="black">DPL</text><text aria-label="x: 0.613240484438; y: 0.000629084373966; name: H-LSTM" role="graphics-symbol" aria-roledescription="text mark" text-anchor="start" transform="translate(253.06399723950568,140.18907535571705)" font-family="sans-serif" font-size="12px" fill="black">H-LSTM</text><text aria-label="x: −0.12080688573; y: 0.0279387846234; name: P-LSTM" role="graphics-symbol" aria-roledescription="text mark" text-anchor="start" transform="translate(83.58869601111617,14.08496098031344)" font-family="sans-serif" font-size="12px" fill="black">P-LSTM</text></g><g class="mark-rule role-mark layer_3_marks" clip-path="url(#clip9)" role="graphics-object" aria-roledescription="rule mark container" pointer-events="none"><line aria-label="y: 0" role="graphics-symbol" aria-roledescription="rule mark" transform="translate(300,139.09390869778008)" x2="-300" y2="0" stroke="gray"/></g><g class="mark-rule role-mark layer_4_marks" clip-path="url(#clip10)" role="graphics-object" aria-roledescription="rule mark container" pointer-events="none"><line aria-label="x: 0" role="graphics-symbol" aria-roledescription="rule mark" transform="translate(104.48033377412139,0)" x2="0" y2="300" stroke="gray"/></g><g class="mark-group role-legend" role="graphics-symbol" aria-roledescription="legend" aria-label="Symbol legend titled 'color, variable' for fill color with 2 values: attack_name, model"><g transform="translate(318,0)"><path class="background" aria-hidden="true" d="M0,0h74v40h-74Z" pointer-events="none"/><g><g class="mark-group role-legend-entry"><g transform="translate(0,16)"><path class="background" aria-hidden="true" d="M0,0h0v0h0Z" pointer-events="none"/><g><g class="mark-group role-scope" role="graphics-object" aria-roledescription="group mark container"><g transform="translate(0,0)"><path class="background" aria-hidden="true" d="M0,0h72.4697265625v11h-72.4697265625Z" pointer-events="none" opacity="1"/><g><g class="mark-symbol role-legend-symbol" pointer-events="none"><path transform="translate(6,6)" d="M5,0A5,5,0,1,1,-5,0A5,5,0,1,1,5,0" fill="#4c78a8" stroke-width="1.5" opacity="0.7"/></g><g class="mark-text role-legend-label" pointer-events="none"><text text-anchor="start" transform="translate(16,9)" font-family="sans-serif" font-size="10px" fill="#000" opacity="1">attack_name</text></g></g><path class="foreground" aria-hidden="true" d="" pointer-events="none" display="none"/></g><g transform="translate(0,13)"><path class="background" aria-hidden="true" d="M0,0h72.4697265625v11h-72.4697265625Z" pointer-events="none" opacity="1"/><g><g class="mark-symbol role-legend-symbol" pointer-events="none"><path transform="translate(6,6)" d="M5,0A5,5,0,1,1,-5,0A5,5,0,1,1,5,0" fill="#f58518" stroke-width="1.5" opacity="0.7"/></g><g class="mark-text role-legend-label" pointer-events="none"><text text-anchor="start" transform="translate(16,9)" font-family="sans-serif" font-size="10px" fill="#000" opacity="1">model</text></g></g><path class="foreground" aria-hidden="true" d="" pointer-events="none" display="none"/></g></g></g><path class="foreground" aria-hidden="true" d="" pointer-events="none" display="none"/></g></g><g class="mark-text role-legend-title" pointer-events="none"><text text-anchor="start" transform="translate(0,9)" font-family="sans-serif" font-size="11px" font-weight="bold" fill="#000" opacity="1">color, variable</text></g></g><path class="foreground" aria-hidden="true" d="" pointer-events="none" display="none"/></g></g><g class="mark-group role-title"><g transform="translate(150,-21.432819779840855)"><path class="background" aria-hidden="true" d="M0,0h0v0h0Z" pointer-events="none"/><g><g class="mark-text role-title-text" role="graphics-symbol" aria-roledescription="title" aria-label="Title text 'accuracy'" pointer-events="none"><text text-anchor="middle" transform="translate(0,10)" font-family="sans-serif" font-size="13px" font-weight="bold" fill="#000" opacity="1">accuracy</text></g></g><path class="foreground" aria-hidden="true" d="" pointer-events="none" display="none"/></g></g></g><path class="foreground" aria-hidden="true" d="" display="none"/></g></g></g><defs><clipPath id="clip6"><rect x="0" y="0" width="300" height="300"/></clipPath><clipPath id="clip7"><rect x="0" y="0" width="300" height="300"/></clipPath><clipPath id="clip8"><rect x="0" y="0" width="300" height="300"/></clipPath><clipPath id="clip9"><rect x="0" y="0" width="300" height="300"/></clipPath><clipPath id="clip10"><rect x="0" y="0" width="300" height="300"/></clipPath></defs></svg>