<svg xmlns="http://www.w3.org/2000/svg" xmlns:xlink="http://www.w3.org/1999/xlink" version="1.1" class="marks" width="445" height="364" viewBox="0 0 445 364"><rect width="445" height="364" fill="white"/><g fill="none" stroke-miterlimit="10" transform="translate(48,27)"><g class="mark-group role-frame root" role="graphics-object" aria-roledescription="group mark container"><g transform="translate(0,0)"><path class="background" aria-hidden="true" d="M0.5,0.5h300v300h-300Z" stroke="#ddd"/><g><g class="mark-group role-axis" aria-hidden="true"><g transform="translate(0.5,300.5)"><path class="background" aria-hidden="true" d="M0,0h0v0h0Z" pointer-events="none"/><g><g class="mark-rule role-axis-grid" pointer-events="none"><line transform="translate(21,-300)" x2="0" y2="300" stroke="#ddd" stroke-width="1" opacity="1"/><line transform="translate(137,-300)" x2="0" y2="300" stroke="#ddd" stroke-width="1" opacity="1"/><line transform="translate(252,-300)" x2="0" y2="300" stroke="#ddd" stroke-width="1" opacity="1"/><line transform="translate(79,-300)" x2="0" y2="300" stroke="#ddd" stroke-width="1" opacity="1"/><line transform="translate(195,-300)" x2="0" y2="300" stroke="#ddd" stroke-width="1" opacity="1"/></g></g><path class="foreground" aria-hidden="true" d="" pointer-events="none" display="none"/></g></g><g class="mark-group role-axis" aria-hidden="true"><g transform="translate(0.5,0.5)"><path class="background" aria-hidden="true" d="M0,0h0v0h0Z" pointer-events="none"/><g><g class="mark-rule role-axis-grid" pointer-events="none"><line transform="translate(0,220)" x2="300" y2="0" stroke="#ddd" stroke-width="1" opacity="1"/><line transform="translate(0,192)" x2="300" y2="0" stroke="#ddd" stroke-width="1" opacity="1"/><line transform="translate(0,164)" x2="300" y2="0" stroke="#ddd" stroke-width="1" opacity="1"/><line transform="translate(0,136)" x2="300" y2="0" stroke="#ddd" stroke-width="1" opacity="1"/><line transform="translate(0,107)" x2="300" y2="0" stroke="#ddd" stroke-width="1" opacity="1"/><line transform="translate(0,79)" x2="300" y2="0" stroke="#ddd" stroke-width="1" opacity="1"/><line transform="translate(0,51)" x2="300" y2="0" stroke="#ddd" stroke-width="1" opacity="1"/><line transform="translate(0,23)" x2="300" y2="0" stroke="#ddd" stroke-width="1" opacity="1"/><line transform="translate(0,248)" x2="300" y2="0" stroke="#ddd" stroke-width="1" opacity="1"/><line transform="translate(0,277)" x2="300" y2="0" stroke="#ddd" stroke-width="1" opacity="1"/></g></g><path class="foreground" aria-hidden="true" d="" pointer-events="none" display="none"/></g></g><g class="mark-group role-axis" role="graphics-symbol" aria-roledescription="axis" aria-label="X-axis titled 'component 0 — 87.74%' for a linear scale with values from −1.2 to 1.4"><g transform="translate(0.5,300.5)"><path class="background" aria-hidden="true" d="M0,0h0v0h0Z" pointer-events="none"/><g><g class="mark-rule role-axis-tick" pointer-events="none"><line transform="translate(21,0)" x2="0" y2="5" stroke="#888" stroke-width="1" opacity="1"/><line transform="translate(137,0)" x2="0" y2="5" stroke="#888" stroke-width="1" opacity="1"/><line transform="translate(252,0)" x2="0" y2="5" stroke="#888" stroke-width="1" opacity="1"/><line transform="translate(79,0)" x2="0" y2="5" stroke="#888" stroke-width="1" opacity="1"/><line transform="translate(195,0)" x2="0" y2="5" stroke="#888" stroke-width="1" opacity="1"/></g><g class="mark-text role-axis-label" pointer-events="none"><text text-anchor="middle" transform="translate(21.485983575515196,15)" font-family="sans-serif" font-size="10px" fill="#000" opacity="1">−1.0</text><text text-anchor="middle" transform="translate(136.9249239735326,15)" font-family="sans-serif" font-size="10px" fill="#000" opacity="1">0.0</text><text text-anchor="middle" transform="translate(252.36386437155,15)" font-family="sans-serif" font-size="10px" fill="#000" opacity="1">1.0</text><text text-anchor="middle" transform="translate(79.20545377452389,15)" font-family="sans-serif" font-size="10px" fill="#000" opacity="1">−0.5</text><text text-anchor="middle" transform="translate(194.64439417254133,15)" font-family="sans-serif" font-size="10px" fill="#000" opacity="1">0.5</text></g><g class="mark-rule role-axis-domain" pointer-events="none"><line transform="translate(0,0)" x2="300" y2="0" stroke="#888" stroke-width="1" opacity="1"/></g><g class="mark-text role-axis-title" pointer-events="none"><text text-anchor="middle" transform="translate(150,30)" font-family="sans-serif" font-size="11px" font-weight="bold" fill="#000" opacity="1">component 0 — 87.74%</text></g></g><path class="foreground" aria-hidden="true" d="" pointer-events="none" display="none"/></g></g><g class="mark-group role-axis" role="graphics-symbol" aria-roledescription="axis" aria-label="Y-axis titled 'component 1 — 8.35%' for a linear scale with values from −0.8 to 1.4"><g transform="translate(0.5,0.5)"><path class="background" aria-hidden="true" d="M0,0h0v0h0Z" pointer-events="none"/><g><g class="mark-rule role-axis-tick" pointer-events="none"><line transform="translate(0,220)" x2="-5" y2="0" stroke="#888" stroke-width="1" opacity="1"/><line transform="translate(0,192)" x2="-5" y2="0" stroke="#888" stroke-width="1" opacity="1"/><line transform="translate(0,164)" x2="-5" y2="0" stroke="#888" stroke-width="1" opacity="1"/><line transform="translate(0,136)" x2="-5" y2="0" stroke="#888" stroke-width="1" opacity="1"/><line transform="translate(0,107)" x2="-5" y2="0" stroke="#888" stroke-width="1" opacity="1"/><line transform="translate(0,79)" x2="-5" y2="0" stroke="#888" stroke-width="1" opacity="1"/><line transform="translate(0,51)" x2="-5" y2="0" stroke="#888" stroke-width="1" opacity="1"/><line transform="translate(0,23)" x2="-5" y2="0" stroke="#888" stroke-width="1" opacity="1"/><line transform="translate(0,248)" x2="-5" y2="0" stroke="#888" stroke-width="1" opacity="1"/><line transform="translate(0,277)" x2="-5" y2="0" stroke="#888" stroke-width="1" opacity="1"/></g><g class="mark-text role-axis-label" pointer-events="none"><text text-anchor="end" transform="translate(-7,223.17135164175625)" font-family="sans-serif" font-size="10px" fill="#000" opacity="1">−0.2</text><text text-anchor="end" transform="translate(-7,194.95294398890758)" font-family="sans-serif" font-size="10px" fill="#000" opacity="1">0.0</text><text text-anchor="end" transform="translate(-7,166.73453633605885)" font-family="sans-serif" font-size="10px" fill="#000" opacity="1">0.2</text><text text-anchor="end" transform="translate(-7,138.51612868321016)" font-family="sans-serif" font-size="10px" fill="#000" opacity="1">0.4</text><text text-anchor="end" transform="translate(-7,110.29772103036143)" font-family="sans-serif" font-size="10px" fill="#000" opacity="1">0.6</text><text text-anchor="end" transform="translate(-7,82.07931337751275)" font-family="sans-serif" font-size="10px" fill="#000" opacity="1">0.8</text><text text-anchor="end" transform="translate(-7,53.86090572466399)" font-family="sans-serif" font-size="10px" fill="#000" opacity="1">1.0</text><text text-anchor="end" transform="translate(-7,25.642498071815343)" font-family="sans-serif" font-size="10px" fill="#000" opacity="1">1.2</text><text text-anchor="end" transform="translate(-7,251.38975929460497)" font-family="sans-serif" font-size="10px" fill="#000" opacity="1">−0.4</text><text text-anchor="end" transform="translate(-7,279.6081669474537)" font-family="sans-serif" font-size="10px" fill="#000" opacity="1">−0.6</text></g><g class="mark-rule role-axis-domain" pointer-events="none"><line transform="translate(0,300)" x2="0" y2="-300" stroke="#888" stroke-width="1" opacity="1"/></g><g class="mark-text role-axis-title" pointer-events="none"><text text-anchor="middle" transform="translate(-31.673828125,150) rotate(-90) translate(0,-2)" font-family="sans-serif" font-size="11px" font-weight="bold" fill="#000" opacity="1">component 1 — 8.35%</text></g></g><path class="foreground" aria-hidden="true" d="" pointer-events="none" display="none"/></g></g><g class="mark-rule role-mark layer_0_marks" clip-path="url(#clip1)" role="graphics-object" aria-roledescription="rule mark container" pointer-events="none"><line aria-label="x: 0; y: 0; x2: −0.464856058259; y2: −0.210380019824; color: #889fbf" role="graphics-symbol" aria-roledescription="rule mark" transform="translate(136.9249239735326,191.95294398890758)" x2="-53.662490803028845" y2="29.6829458070155" stroke="#889fbf"/><line aria-label="x: 0; y: 0; x2: 0.330030636219; y2: −0.0773716507202; color: #889fbf" role="graphics-symbol" aria-roledescription="rule mark" transform="translate(136.9249239735326,191.95294398890758)" x2="38.09838694401566" y2="10.91652390398633" stroke="#889fbf"/><line aria-label="x: 0; y: 0; x2: −0.544690213893; y2: 0.201455438006; color: #889fbf" role="graphics-symbol" aria-roledescription="rule mark" transform="translate(136.9249239735326,191.95294398890758)" x2="-62.87846113693976" y2="-28.42375836773624" stroke="#889fbf"/><line aria-label="x: 0; y: 0; x2: 0.745154916575; y2: 0.116770966077; color: #889fbf" role="graphics-symbol" aria-roledescription="rule mark" transform="translate(136.9249239735326,191.95294398890758)" x2="86.01989400184053" y2="-16.475453613852807" stroke="#889fbf"/></g><g class="mark-symbol role-mark view_15_marks" clip-path="url(#clip2)" role="graphics-object" aria-roledescription="symbol mark container"><path aria-label="component 0: 0.988421368494; component 1: 0.0276723953183; variable: model; value: DNN" role="graphics-symbol" aria-roledescription="circle" transform="translate(251.02723941927528,188.04858932979982)" d="M3.536,0A3.536,3.536,0,1,1,-3.536,0A3.536,3.536,0,1,1,3.536,0" fill="#f58518" stroke-width="2" opacity="0.7"/><path aria-label="component 0: −0.0888504170701; component 1: 0.0291367689382; variable: model; value: DPL" role="graphics-symbol" aria-roledescription="circle" transform="translate(126.66812597303313,187.84197787097781)" d="M3.536,0A3.536,3.536,0,1,1,-3.536,0A3.536,3.536,0,1,1,3.536,0" fill="#f58518" stroke-width="2" opacity="0.7"/><path aria-label="component 0: −1.06046825256; component 1: 1.2770319189; variable: model; value: H-LSTM" role="graphics-symbol" aria-roledescription="circle" transform="translate(14.505592572681829,11.773907623071722)" d="M3.536,0A3.536,3.536,0,1,1,-3.536,0A3.536,3.536,0,1,1,3.536,0" fill="#f58518" stroke-width="2" opacity="0.7"/><path aria-label="component 0: −0.385961242781; component 1: −0.0954458023626; variable: model; value: P-LSTM" role="graphics-symbol" aria-roledescription="circle" transform="translate(92.36996707217754,205.41958678801788)" d="M3.536,0A3.536,3.536,0,1,1,-3.536,0A3.536,3.536,0,1,1,3.536,0" fill="#f58518" stroke-width="2" opacity="0.7"/><path aria-label="component 0: −0.464856058259; component 1: −0.210380019824; variable: attack_name; value: File_Inclusion" role="graphics-symbol" aria-roledescription="circle" transform="translate(83.26243317050375,221.63588979592308)" d="M3.536,0A3.536,3.536,0,1,1,-3.536,0A3.536,3.536,0,1,1,3.536,0" fill="#4c78a8" stroke-width="2" opacity="0.7"/><path aria-label="component 0: 0.330030636219; component 1: −0.0773716507202; variable: attack_name; value: PW_Attack" role="graphics-symbol" aria-roledescription="circle" transform="translate(175.02331091754826,202.8694678928939)" d="M3.536,0A3.536,3.536,0,1,1,-3.536,0A3.536,3.536,0,1,1,3.536,0" fill="#4c78a8" stroke-width="2" opacity="0.7"/><path aria-label="component 0: −0.544690213893; component 1: 0.201455438006; variable: attack_name; value: SQLi" role="graphics-symbol" aria-roledescription="circle" transform="translate(74.04646283659284,163.52918562117134)" d="M3.536,0A3.536,3.536,0,1,1,-3.536,0A3.536,3.536,0,1,1,3.536,0" fill="#4c78a8" stroke-width="2" opacity="0.7"/><path aria-label="component 0: 0.745154916575; component 1: 0.116770966077; variable: attack_name; value: XSS" role="graphics-symbol" aria-roledescription="circle" transform="translate(222.94481797537313,175.47749037505477)" d="M3.536,0A3.536,3.536,0,1,1,-3.536,0A3.536,3.536,0,1,1,3.536,0" fill="#4c78a8" stroke-width="2" opacity="0.7"/></g><g class="mark-text role-mark layer_2_marks" clip-path="url(#clip3)" role="graphics-object" aria-roledescription="text mark container" pointer-events="none"><text aria-label="x: −0.464856058259; y: −0.210380019824; name: File_Inclusion" role="graphics-symbol" aria-roledescription="text mark" text-anchor="start" transform="translate(90.26243317050375,225.63588979592308)" font-family="sans-serif" font-size="12px" fill="black">File_Inclusion</text><text aria-label="x: 0.330030636219; y: −0.0773716507202; name: PW_Attack" role="graphics-symbol" aria-roledescription="text mark" text-anchor="start" transform="translate(182.02331091754826,206.8694678928939)" font-family="sans-serif" font-size="12px" fill="black">PW_Attack</text><text aria-label="x: −0.544690213893; y: 0.201455438006; name: SQLi" role="graphics-symbol" aria-roledescription="text mark" text-anchor="start" transform="translate(81.04646283659284,167.52918562117134)" font-family="sans-serif" font-size="12px" fill="black">SQLi</text><text aria-label="x: 0.745154916575; y: 0.116770966077; name: XSS" role="graphics-symbol" aria-roledescription="text mark" text-anchor="start" transform="translate(229.94481797537313,179.47749037505477)" font-family="sans-serif" font-size="12px" fill="black">XSS</text><text aria-label="x: 0.988421368494; y: 0.0276723953183; name: DNN" role="graphics-symbol" aria-roledescription="text mark" text-anchor="start" transform="translate(258.02723941927525,192.04858932979982)" font-family="sans-serif" font-size="12px" fill="black">DNN</text><text aria-label="x: −0.0888504170701; y: 0.0291367689382; name: DPL" role="graphics-symbol" aria-roledescription="text mark" text-anchor="start" transform="translate(133.6681259730331,191.84197787097781)" font-family="sans-serif" font-size="12px" fill="black">DPL</text><text aria-label="x: −1.06046825256; y: 1.2770319189; name: H-LSTM" role="graphics-symbol" aria-roledescription="text mark" text-anchor="start" transform="translate(21.505592572681827,15.773907623071722)" font-family="sans-serif" font-size="12px" fill="black">H-LSTM</text><text aria-label="x: −0.385961242781; y: −0.0954458023626; name: P-LSTM" role="graphics-symbol" aria-roledescription="text mark" text-anchor="start" transform="translate(99.36996707217754,209.41958678801788)" font-family="sans-serif" font-size="12px" fill="black">P-LSTM</text></g><g class="mark-rule role-mark layer_3_marks" clip-path="url(#clip4)" role="graphics-object" aria-roledescription="rule mark container" pointer-events="none"><line aria-label="y: 0" role="graphics-symbol" aria-roledescription="rule mark" transform="translate(300,191.95294398890758)" x2="-300" y2="0" stroke="gray"/></g><g class="mark-rule role-mark layer_4_marks" clip-path="url(#clip5)" role="graphics-object" aria-roledescription="rule mark container" pointer-events="none"><line aria-label="x: 0" role="graphics-symbol" aria-roledescription="rule mark" transform="translate(136.9249239735326,0)" x2="0" y2="300" stroke="gray"/></g><g class="mark-group role-legend" role="graphics-symbol" aria-roledescription="legend" aria-label="Symbol legend titled 'color, variable' for fill color with 2 values: attack_name, model"><g transform="translate(318,0)"><path class="background" aria-hidden="true" d="M0,0h74v40h-74Z" pointer-events="none"/><g><g class="mark-group role-legend-entry"><g transform="translate(0,16)"><path class="background" aria-hidden="true" d="M0,0h0v0h0Z" pointer-events="none"/><g><g class="mark-group role-scope" role="graphics-object" aria-roledescription="group mark container"><g transform="translate(0,0)"><path class="background" aria-hidden="true" d="M0,0h72.4697265625v11h-72.4697265625Z" pointer-events="none" opacity="1"/><g><g class="mark-symbol role-legend-symbol" pointer-events="none"><path transform="translate(6,6)" d="M5,0A5,5,0,1,1,-5,0A5,5,0,1,1,5,0" fill="#4c78a8" stroke-width="1.5" opacity="0.7"/></g><g class="mark-text role-legend-label" pointer-events="none"><text text-anchor="start" transform="translate(16,9)" font-family="sans-serif" font-size="10px" fill="#000" opacity="1">attack_name</text></g></g><path class="foreground" aria-hidden="true" d="" pointer-events="none" display="none"/></g><g transform="translate(0,13)"><path class="background" aria-hidden="true" d="M0,0h72.4697265625v11h-72.4697265625Z" pointer-events="none" opacity="1"/><g><g class="mark-symbol role-legend-symbol" pointer-events="none"><path transform="translate(6,6)" d="M5,0A5,5,0,1,1,-5,0A5,5,0,1,1,5,0" fill="#f58518" stroke-width="1.5" opacity="0.7"/></g><g class="mark-text role-legend-label" pointer-events="none"><text text-anchor="start" transform="translate(16,9)" font-family="sans-serif" font-size="10px" fill="#000" opacity="1">model</text></g></g><path class="foreground" aria-hidden="true" d="" pointer-events="none" display="none"/></g></g></g><path class="foreground" aria-hidden="true" d="" pointer-events="none" display="none"/></g></g><g class="mark-text role-legend-title" pointer-events="none"><text text-anchor="start" transform="translate(0,9)" font-family="sans-serif" font-size="11px" font-weight="bold" fill="#000" opacity="1">color, variable</text></g></g><path class="foreground" aria-hidden="true" d="" pointer-events="none" display="none"/></g></g><g class="mark-group role-title"><g transform="translate(150,-17)"><path class="background" aria-hidden="true" d="M0,0h0v0h0Z" pointer-events="none"/><g><g class="mark-text role-title-text" role="graphics-symbol" aria-roledescription="title" aria-label="Title text 'f1_micro'" pointer-events="none"><text text-anchor="middle" transform="translate(0,10)" font-family="sans-serif" font-size="13px" font-weight="bold" fill="#000" opacity="1">f1_micro</text></g></g><path class="foreground" aria-hidden="true" d="" pointer-events="none" display="none"/></g></g></g><path class="foreground" aria-hidden="true" d="" display="none"/></g></g></g><defs><clipPath id="clip1"><rect x="0" y="0" width="300" height="300"/></clipPath><clipPath id="clip2"><rect x="0" y="0" width="300" height="300"/></clipPath><clipPath id="clip3"><rect x="0" y="0" width="300" height="300"/></clipPath><clipPath id="clip4"><rect x="0" y="0" width="300" height="300"/></clipPath><clipPath id="clip5"><rect x="0" y="0" width="300" height="300"/></clipPath></defs></svg>