<svg xmlns="http://www.w3.org/2000/svg" xmlns:xlink="http://www.w3.org/1999/xlink" version="1.1" class="marks" width="445" height="364" viewBox="0 0 445 364"><rect width="445" height="364" fill="white"/><g fill="none" stroke-miterlimit="10" transform="translate(48,27)"><g class="mark-group role-frame root" role="graphics-object" aria-roledescription="group mark container"><g transform="translate(0,0)"><path class="background" aria-hidden="true" d="M0.5,0.5h300v300h-300Z" stroke="#ddd"/><g><g class="mark-group role-axis" aria-hidden="true"><g transform="translate(0.5,300.5)"><path class="background" aria-hidden="true" d="M0,0h0v0h0Z" pointer-events="none"/><g><g class="mark-rule role-axis-grid" pointer-events="none"><line transform="translate(0,-300)" x2="0" y2="300" stroke="#ddd" stroke-width="1" opacity="1"/><line transform="translate(25,-300)" x2="0" y2="300" stroke="#ddd" stroke-width="1" opacity="1"/><line transform="translate(50,-300)" x2="0" y2="300" stroke="#ddd" stroke-width="1" opacity="1"/><line transform="translate(75,-300)" x2="0" y2="300" stroke="#ddd" stroke-width="1" opacity="1"/><line transform="translate(100,-300)" x2="0" y2="300" stroke="#ddd" stroke-width="1" opacity="1"/><line transform="translate(125,-300)" x2="0" y2="300" stroke="#ddd" stroke-width="1" opacity="1"/><line transform="translate(150,-300)" x2="0" y2="300" stroke="#ddd" stroke-width="1" opacity="1"/><line transform="translate(175,-300)" x2="0" y2="300" stroke="#ddd" stroke-width="1" opacity="1"/><line transform="translate(200,-300)" x2="0" y2="300" stroke="#ddd" stroke-width="1" opacity="1"/><line transform="translate(225,-300)" x2="0" y2="300" stroke="#ddd" stroke-width="1" opacity="1"/><line transform="translate(250,-300)" x2="0" y2="300" stroke="#ddd" stroke-width="1" opacity="1"/><line transform="translate(275,-300)" x2="0" y2="300" stroke="#ddd" stroke-width="1" opacity="1"/><line transform="translate(300,-300)" x2="0" y2="300" stroke="#ddd" stroke-width="1" opacity="1"/></g></g><path class="foreground" aria-hidden="true" d="" pointer-events="none" display="none"/></g></g><g class="mark-group role-axis" aria-hidden="true"><g transform="translate(0.5,0.5)"><path class="background" aria-hidden="true" d="M0,0h0v0h0Z" pointer-events="none"/><g><g class="mark-rule role-axis-grid" pointer-events="none"><line transform="translate(0,300)" x2="300" y2="0" stroke="#ddd" stroke-width="1" opacity="1"/><line transform="translate(0,267)" x2="300" y2="0" stroke="#ddd" stroke-width="1" opacity="1"/><line transform="translate(0,233)" x2="300" y2="0" stroke="#ddd" stroke-width="1" opacity="1"/><line transform="translate(0,200)" x2="300" y2="0" stroke="#ddd" stroke-width="1" opacity="1"/><line transform="translate(0,167)" x2="300" y2="0" stroke="#ddd" stroke-width="1" opacity="1"/><line transform="translate(0,133)" x2="300" y2="0" stroke="#ddd" stroke-width="1" opacity="1"/><line transform="translate(0,100)" x2="300" y2="0" stroke="#ddd" stroke-width="1" opacity="1"/><line transform="translate(0,67)" x2="300" y2="0" stroke="#ddd" stroke-width="1" opacity="1"/><line transform="translate(0,33)" x2="300" y2="0" stroke="#ddd" stroke-width="1" opacity="1"/><line transform="translate(0,0)" x2="300" y2="0" stroke="#ddd" stroke-width="1" opacity="1"/></g></g><path class="foreground" aria-hidden="true" d="" pointer-events="none" display="none"/></g></g><g class="mark-group role-axis" role="graphics-symbol" aria-roledescription="axis" aria-label="X-axis titled 'component 0 — 87.71%' for a linear scale with values from −1.2 to 1.2"><g transform="translate(0.5,300.5)"><path class="background" aria-hidden="true" d="M0,0h0v0h0Z" pointer-events="none"/><g><g class="mark-rule role-axis-tick" pointer-events="none"><line transform="translate(0,0)" x2="0" y2="5" stroke="#888" stroke-width="1" opacity="1"/><line transform="translate(25,0)" x2="0" y2="5" stroke="#888" stroke-width="1" opacity="1"/><line transform="translate(50,0)" x2="0" y2="5" stroke="#888" stroke-width="1" opacity="1"/><line transform="translate(75,0)" x2="0" y2="5" stroke="#888" stroke-width="1" opacity="1"/><line transform="translate(100,0)" x2="0" y2="5" stroke="#888" stroke-width="1" opacity="1"/><line transform="translate(125,0)" x2="0" y2="5" stroke="#888" stroke-width="1" opacity="1"/><line transform="translate(150,0)" x2="0" y2="5" stroke="#888" stroke-width="1" opacity="1"/><line transform="translate(175,0)" x2="0" y2="5" stroke="#888" stroke-width="1" opacity="1"/><line transform="translate(200,0)" x2="0" y2="5" stroke="#888" stroke-width="1" opacity="1"/><line transform="translate(225,0)" x2="0" y2="5" stroke="#888" stroke-width="1" opacity="1"/><line transform="translate(250,0)" x2="0" y2="5" stroke="#888" stroke-width="1" opacity="1"/><line transform="translate(275,0)" x2="0" y2="5" stroke="#888" stroke-width="1" opacity="1"/><line transform="translate(300,0)" x2="0" y2="5" stroke="#888" stroke-width="1" opacity="1"/></g><g class="mark-text role-axis-label" pointer-events="none"><text text-anchor="start" transform="translate(0,15)" font-family="sans-serif" font-size="10px" fill="#000" opacity="1">−1.2</text><text text-anchor="middle" transform="translate(24.999999999999993,15)" font-family="sans-serif" font-size="10px" fill="#000" opacity="0">−1.0</text><text text-anchor="middle" transform="translate(49.999999999999986,15)" font-family="sans-serif" font-size="10px" fill="#000" opacity="1">−0.8</text><text text-anchor="middle" transform="translate(75,15)" font-family="sans-serif" font-size="10px" fill="#000" opacity="0">−0.6</text><text text-anchor="middle" transform="translate(100,15)" font-family="sans-serif" font-size="10px" fill="#000" opacity="1">−0.4</text><text text-anchor="middle" transform="translate(125,15)" font-family="sans-serif" font-size="10px" fill="#000" opacity="0">−0.2</text><text text-anchor="middle" transform="translate(150,15)" font-family="sans-serif" font-size="10px" fill="#000" opacity="1">0.0</text><text text-anchor="middle" transform="translate(175,15)" font-family="sans-serif" font-size="10px" fill="#000" opacity="0">0.2</text><text text-anchor="middle" transform="translate(200.00000000000003,15)" font-family="sans-serif" font-size="10px" fill="#000" opacity="1">0.4</text><text text-anchor="middle" transform="translate(225,15)" font-family="sans-serif" font-size="10px" fill="#000" opacity="0">0.6</text><text text-anchor="middle" transform="translate(250,15)" font-family="sans-serif" font-size="10px" fill="#000" opacity="1">0.8</text><text text-anchor="middle" transform="translate(275,15)" font-family="sans-serif" font-size="10px" fill="#000" opacity="0">1.0</text><text text-anchor="end" transform="translate(300,15)" font-family="sans-serif" font-size="10px" fill="#000" opacity="1">1.2</text></g><g class="mark-rule role-axis-domain" pointer-events="none"><line transform="translate(0,0)" x2="300" y2="0" stroke="#888" stroke-width="1" opacity="1"/></g><g class="mark-text role-axis-title" pointer-events="none"><text text-anchor="middle" transform="translate(150,30)" font-family="sans-serif" font-size="11px" font-weight="bold" fill="#000" opacity="1">component 0 — 87.71%</text></g></g><path class="foreground" aria-hidden="true" d="" pointer-events="none" display="none"/></g></g><g class="mark-group role-axis" role="graphics-symbol" aria-roledescription="axis" aria-label="Y-axis titled 'component 1 — 8.59%' for a linear scale with values from −0.4 to 1.4"><g transform="translate(0.5,0.5)"><path class="background" aria-hidden="true" d="M0,0h0v0h0Z" pointer-events="none"/><g><g class="mark-rule role-axis-tick" pointer-events="none"><line transform="translate(0,300)" x2="-5" y2="0" stroke="#888" stroke-width="1" opacity="1"/><line transform="translate(0,267)" x2="-5" y2="0" stroke="#888" stroke-width="1" opacity="1"/><line transform="translate(0,233)" x2="-5" y2="0" stroke="#888" stroke-width="1" opacity="1"/><line transform="translate(0,200)" x2="-5" y2="0" stroke="#888" stroke-width="1" opacity="1"/><line transform="translate(0,167)" x2="-5" y2="0" stroke="#888" stroke-width="1" opacity="1"/><line transform="translate(0,133)" x2="-5" y2="0" stroke="#888" stroke-width="1" opacity="1"/><line transform="translate(0,100)" x2="-5" y2="0" stroke="#888" stroke-width="1" opacity="1"/><line transform="translate(0,67)" x2="-5" y2="0" stroke="#888" stroke-width="1" opacity="1"/><line transform="translate(0,33)" x2="-5" y2="0" stroke="#888" stroke-width="1" opacity="1"/><line transform="translate(0,0)" x2="-5" y2="0" stroke="#888" stroke-width="1" opacity="1"/></g><g class="mark-text role-axis-label" pointer-events="none"><text text-anchor="end" transform="translate(-7,303)" font-family="sans-serif" font-size="10px" fill="#000" opacity="1">−0.4</text><text text-anchor="end" transform="translate(-7,269.66666666666663)" font-family="sans-serif" font-size="10px" fill="#000" opacity="1">−0.2</text><text text-anchor="end" transform="translate(-7,236.33333333333331)" font-family="sans-serif" font-size="10px" fill="#000" opacity="1">0.0</text><text text-anchor="end" transform="translate(-7,202.99999999999994)" font-family="sans-serif" font-size="10px" fill="#000" opacity="1">0.2</text><text text-anchor="end" transform="translate(-7,169.66666666666663)" font-family="sans-serif" font-size="10px" fill="#000" opacity="1">0.4</text><text text-anchor="end" transform="translate(-7,136.33333333333331)" font-family="sans-serif" font-size="10px" fill="#000" opacity="1">0.6</text><text text-anchor="end" transform="translate(-7,102.99999999999994)" font-family="sans-serif" font-size="10px" fill="#000" opacity="1">0.8</text><text text-anchor="end" transform="translate(-7,69.66666666666666)" font-family="sans-serif" font-size="10px" fill="#000" opacity="1">1.0</text><text text-anchor="end" transform="translate(-7,36.33333333333328)" font-family="sans-serif" font-size="10px" fill="#000" opacity="1">1.2</text><text text-anchor="end" transform="translate(-7,3)" font-family="sans-serif" font-size="10px" fill="#000" opacity="1">1.4</text></g><g class="mark-rule role-axis-domain" pointer-events="none"><line transform="translate(0,300)" x2="0" y2="-300" stroke="#888" stroke-width="1" opacity="1"/></g><g class="mark-text role-axis-title" pointer-events="none"><text text-anchor="middle" transform="translate(-31.673828125,150) rotate(-90) translate(0,-2)" font-family="sans-serif" font-size="11px" font-weight="bold" fill="#000" opacity="1">component 1 — 8.59%</text></g></g><path class="foreground" aria-hidden="true" d="" pointer-events="none" display="none"/></g></g><g class="mark-rule role-mark layer_0_marks" clip-path="url(#clip27)" role="graphics-object" aria-roledescription="rule mark container" pointer-events="none"><line aria-label="x: 0; y: 0; x2: −0.458311145546; y2: −0.210536332751; color: #889fbf" role="graphics-symbol" aria-roledescription="rule mark" transform="translate(150,233.33333333333331)" x2="-57.2888931932369" y2="35.08938879188946" stroke="#889fbf"/><line aria-label="x: 0; y: 0; x2: 0.347687771854; y2: −0.0652882582005; color: #889fbf" role="graphics-symbol" aria-roledescription="rule mark" transform="translate(150,233.33333333333331)" x2="43.46097148170713" y2="10.881376366752193" stroke="#889fbf"/><line aria-label="x: 0; y: 0; x2: −0.536384029788; y2: 0.214594481824; color: #889fbf" role="graphics-symbol" aria-roledescription="rule mark" transform="translate(150,233.33333333333331)" x2="-67.04800372351026" y2="-35.76574697070092" stroke="#889fbf"/><line aria-label="x: 0; y: 0; x2: 0.747737456624; y2: 0.1029116032; color: #889fbf" role="graphics-symbol" aria-roledescription="rule mark" transform="translate(150,233.33333333333331)" x2="93.467182077952" y2="-17.1519338666171" stroke="#889fbf"/></g><g class="mark-symbol role-mark view_36_marks" clip-path="url(#clip28)" role="graphics-object" aria-roledescription="symbol mark container"><path aria-label="component 0: 1.00996110685; component 1: 0.0345299192434; variable: model; value: DNN" role="graphics-symbol" aria-roledescription="circle" transform="translate(276.2451383564496,227.57834679276525)" d="M3.536,0A3.536,3.536,0,1,1,-3.536,0A3.536,3.536,0,1,1,3.536,0" fill="#f58518" stroke-width="2" opacity="0.7"/><path aria-label="component 0: −0.0935205188627; component 1: 0.0178781499631; variable: model; value: DPL" role="graphics-symbol" aria-roledescription="circle" transform="translate(138.30993514216576,230.35364167280872)" d="M3.536,0A3.536,3.536,0,1,1,-3.536,0A3.536,3.536,0,1,1,3.536,0" fill="#f58518" stroke-width="2" opacity="0.7"/><path aria-label="component 0: −1.03959268794; component 1: 1.33893710306; variable: model; value: H-LSTM" role="graphics-symbol" aria-roledescription="circle" transform="translate(20.050914007648192,10.177149489299698)" d="M3.536,0A3.536,3.536,0,1,1,-3.536,0A3.536,3.536,0,1,1,3.536,0" fill="#f58518" stroke-width="2" opacity="0.7"/><path aria-label="component 0: −0.374887697416; component 1: −0.0852239427132; variable: model; value: P-LSTM" role="graphics-symbol" aria-roledescription="circle" transform="translate(103.13903782296285,247.53732378553025)" d="M3.536,0A3.536,3.536,0,1,1,-3.536,0A3.536,3.536,0,1,1,3.536,0" fill="#f58518" stroke-width="2" opacity="0.7"/><path aria-label="component 0: −0.458311145546; component 1: −0.210536332751; variable: attack_name; value: File_Inclusion" role="graphics-symbol" aria-roledescription="circle" transform="translate(92.7111068067631,268.4227221252228)" d="M3.536,0A3.536,3.536,0,1,1,-3.536,0A3.536,3.536,0,1,1,3.536,0" fill="#4c78a8" stroke-width="2" opacity="0.7"/><path aria-label="component 0: 0.347687771854; component 1: −0.0652882582005; variable: attack_name; value: PW_Attack" role="graphics-symbol" aria-roledescription="circle" transform="translate(193.46097148170713,244.2147097000855)" d="M3.536,0A3.536,3.536,0,1,1,-3.536,0A3.536,3.536,0,1,1,3.536,0" fill="#4c78a8" stroke-width="2" opacity="0.7"/><path aria-label="component 0: −0.536384029788; component 1: 0.214594481824; variable: attack_name; value: SQLi" role="graphics-symbol" aria-roledescription="circle" transform="translate(82.95199627648974,197.5675863626324)" d="M3.536,0A3.536,3.536,0,1,1,-3.536,0A3.536,3.536,0,1,1,3.536,0" fill="#4c78a8" stroke-width="2" opacity="0.7"/><path aria-label="component 0: 0.747737456624; component 1: 0.1029116032; variable: attack_name; value: XSS" role="graphics-symbol" aria-roledescription="circle" transform="translate(243.467182077952,216.18139946671621)" d="M3.536,0A3.536,3.536,0,1,1,-3.536,0A3.536,3.536,0,1,1,3.536,0" fill="#4c78a8" stroke-width="2" opacity="0.7"/></g><g class="mark-text role-mark layer_2_marks" clip-path="url(#clip29)" role="graphics-object" aria-roledescription="text mark container" pointer-events="none"><text aria-label="x: −0.458311145546; y: −0.210536332751; name: File_Inclusion" role="graphics-symbol" aria-roledescription="text mark" text-anchor="start" transform="translate(99.7111068067631,272.4227221252228)" font-family="sans-serif" font-size="12px" fill="black">File_Inclusion</text><text aria-label="x: 0.347687771854; y: −0.0652882582005; name: PW_Attack" role="graphics-symbol" aria-roledescription="text mark" text-anchor="start" transform="translate(200.46097148170713,248.2147097000855)" font-family="sans-serif" font-size="12px" fill="black">PW_Attack</text><text aria-label="x: −0.536384029788; y: 0.214594481824; name: SQLi" role="graphics-symbol" aria-roledescription="text mark" text-anchor="start" transform="translate(89.95199627648974,201.5675863626324)" font-family="sans-serif" font-size="12px" fill="black">SQLi</text><text aria-label="x: 0.747737456624; y: 0.1029116032; name: XSS" role="graphics-symbol" aria-roledescription="text mark" text-anchor="start" transform="translate(250.467182077952,220.18139946671621)" font-family="sans-serif" font-size="12px" fill="black">XSS</text><text aria-label="x: 1.00996110685; y: 0.0345299192434; name: DNN" role="graphics-symbol" aria-roledescription="text mark" text-anchor="start" transform="translate(283.2451383564496,231.57834679276525)" font-family="sans-serif" font-size="12px" fill="black">DNN</text><text aria-label="x: −0.0935205188627; y: 0.0178781499631; name: DPL" role="graphics-symbol" aria-roledescription="text mark" text-anchor="start" transform="translate(145.30993514216576,234.35364167280872)" font-family="sans-serif" font-size="12px" fill="black">DPL</text><text aria-label="x: −1.03959268794; y: 1.33893710306; name: H-LSTM" role="graphics-symbol" aria-roledescription="text mark" text-anchor="start" transform="translate(27.050914007648192,14.177149489299698)" font-family="sans-serif" font-size="12px" fill="black">H-LSTM</text><text aria-label="x: −0.374887697416; y: −0.0852239427132; name: P-LSTM" role="graphics-symbol" aria-roledescription="text mark" text-anchor="start" transform="translate(110.13903782296285,251.53732378553025)" font-family="sans-serif" font-size="12px" fill="black">P-LSTM</text></g><g class="mark-rule role-mark layer_3_marks" clip-path="url(#clip30)" role="graphics-object" aria-roledescription="rule mark container" pointer-events="none"><line aria-label="y: 0" role="graphics-symbol" aria-roledescription="rule mark" transform="translate(300,233.33333333333331)" x2="-300" y2="0" stroke="gray"/></g><g class="mark-rule role-mark layer_4_marks" clip-path="url(#clip31)" role="graphics-object" aria-roledescription="rule mark container" pointer-events="none"><line aria-label="x: 0" role="graphics-symbol" aria-roledescription="rule mark" transform="translate(150,0)" x2="0" y2="300" stroke="gray"/></g><g class="mark-group role-legend" role="graphics-symbol" aria-roledescription="legend" aria-label="Symbol legend titled 'color, variable' for fill color with 2 values: attack_name, model"><g transform="translate(318,0)"><path class="background" aria-hidden="true" d="M0,0h74v40h-74Z" pointer-events="none"/><g><g class="mark-group role-legend-entry"><g transform="translate(0,16)"><path class="background" aria-hidden="true" d="M0,0h0v0h0Z" pointer-events="none"/><g><g class="mark-group role-scope" role="graphics-object" aria-roledescription="group mark container"><g transform="translate(0,0)"><path class="background" aria-hidden="true" d="M0,0h72.4697265625v11h-72.4697265625Z" pointer-events="none" opacity="1"/><g><g class="mark-symbol role-legend-symbol" pointer-events="none"><path transform="translate(6,6)" d="M5,0A5,5,0,1,1,-5,0A5,5,0,1,1,5,0" fill="#4c78a8" stroke-width="1.5" opacity="0.7"/></g><g class="mark-text role-legend-label" pointer-events="none"><text text-anchor="start" transform="translate(16,9)" font-family="sans-serif" font-size="10px" fill="#000" opacity="1">attack_name</text></g></g><path class="foreground" aria-hidden="true" d="" pointer-events="none" display="none"/></g><g transform="translate(0,13)"><path class="background" aria-hidden="true" d="M0,0h72.4697265625v11h-72.4697265625Z" pointer-events="none" opacity="1"/><g><g class="mark-symbol role-legend-symbol" pointer-events="none"><path transform="translate(6,6)" d="M5,0A5,5,0,1,1,-5,0A5,5,0,1,1,5,0" fill="#f58518" stroke-width="1.5" opacity="0.7"/></g><g class="mark-text role-legend-label" pointer-events="none"><text text-anchor="start" transform="translate(16,9)" font-family="sans-serif" font-size="10px" fill="#000" opacity="1">model</text></g></g><path class="foreground" aria-hidden="true" d="" pointer-events="none" display="none"/></g></g></g><path class="foreground" aria-hidden="true" d="" pointer-events="none" display="none"/></g></g><g class="mark-text role-legend-title" pointer-events="none"><text text-anchor="start" transform="translate(0,9)" font-family="sans-serif" font-size="11px" font-weight="bold" fill="#000" opacity="1">color, variable</text></g></g><path class="foreground" aria-hidden="true" d="" pointer-events="none" display="none"/></g></g><g class="mark-group role-title"><g transform="translate(150,-22)"><path class="background" aria-hidden="true" d="M0,0h0v0h0Z" pointer-events="none"/><g><g class="mark-text role-title-text" role="graphics-symbol" aria-roledescription="title" aria-label="Title text 'f1_score'" pointer-events="none"><text text-anchor="middle" transform="translate(0,10)" font-family="sans-serif" font-size="13px" font-weight="bold" fill="#000" opacity="1">f1_score</text></g></g><path class="foreground" aria-hidden="true" d="" pointer-events="none" display="none"/></g></g></g><path class="foreground" aria-hidden="true" d="" display="none"/></g></g></g><defs><clipPath id="clip27"><rect x="0" y="0" width="300" height="300"/></clipPath><clipPath id="clip28"><rect x="0" y="0" width="300" height="300"/></clipPath><clipPath id="clip29"><rect x="0" y="0" width="300" height="300"/></clipPath><clipPath id="clip30"><rect x="0" y="0" width="300" height="300"/></clipPath><clipPath id="clip31"><rect x="0" y="0" width="300" height="300"/></clipPath></defs></svg>